<svg xmlns="http://www.w3.org/2000/svg" width="77.559" height="77.544" viewBox="0 0 77.559 77.544"><g transform="translate(-135.874 -43.624)"><g transform="translate(141.475 43.624)"><path d="M207.5,65.181l-.039-.058-.1-.212v-.039a8.192,8.192,0,0,0-3.862-3.882l-.116.039a4.052,4.052,0,0,0-.579-.213l-50.6-17a7.789,7.789,0,0,0-9.1,5.1l-6.952,20.819c.348-.077.676-.116,1.043-.174h3.283l5.35-15.991A8.766,8.766,0,0,0,156.925,49.6l39.32,13.229a8.847,8.847,0,0,0,2.743,7.822h0c.155.155.309.29.483.464l.058-.039a9.212,9.212,0,0,0,3.167,1.584L201.4,76.517a7.93,7.93,0,0,1,.347.85l.077.251V77.7l.019.039a3.259,3.259,0,0,1,.116.464l.02.039.29,2.723v5.7l5.388-16.087a8.372,8.372,0,0,0,.367-1.757l.058-.019.019-.348.019-.27A7.979,7.979,0,0,0,207.5,65.181Z" transform="translate(-136.164 -43.624)" fill="#e8e8e8"/><path d="M150.96,50.447l.058-.174.039-.174.155-.444a1.218,1.218,0,1,1,2.317.753l-.058.174h.02l-.155.483a8.466,8.466,0,0,1,2.7,1.487h6.045a13.357,13.357,0,0,0-8.092-7.281,13.57,13.57,0,0,0-16.706,7.281H145.9C146.807,50.968,148.623,50.138,150.96,50.447Z" transform="translate(-115.617 -26.611)" fill="#e8e8e8"/></g><g transform="translate(181.309 88.458)"><path d="M.125,0H28.956a.125.125,0,0,1,.125.125V9.552a.124.124,0,0,1-.124.124H.127A.127.127,0,0,1,0,9.549V.125A.125.125,0,0,1,.125,0Z" transform="translate(3.036 23.028)" fill="#e8e8e8"/><path d="M.124,0H28.955a.126.126,0,0,1,.126.126V9.551a.125.125,0,0,1-.125.125H.126A.126.126,0,0,1,0,9.55V.124A.124.124,0,0,1,.124,0Z" transform="translate(0 11.504)" fill="#e8e8e8"/><path d="M.127,0H28.956a.125.125,0,0,1,.125.125V9.551a.125.125,0,0,1-.125.125H.127A.127.127,0,0,1,0,9.549V.127A.127.127,0,0,1,.127,0Z" transform="translate(3.036)" fill="#e8e8e8"/></g><g transform="translate(135.874 73.176)"><path d="M181.915,89.129l-32.754.058a8.748,8.748,0,0,0-9.231-7.319V56.452a8.781,8.781,0,0,0,9.231-7.319l41.5.058a8.827,8.827,0,0,0,5.079,6.547h0l.6.27.058-.039a8.536,8.536,0,0,0,3.476.483v1.564h4.055V52.9a8.8,8.8,0,0,0-.193-1.777l.039-.039-.077-.348-.1-.251a8.144,8.144,0,0,0-1.526-2.627l-.039-.039-.174-.213-.019-.019a8.06,8.06,0,0,0-4.886-2.433l-.1.077a3.318,3.318,0,0,0-.618-.039l-53.4-.039a7.806,7.806,0,0,0-6.972,7.744V85.4a7.792,7.792,0,0,0,6.972,7.744l39.707-.019a4.823,4.823,0,0,1-.637-2.395Z" transform="translate(-135.874 -45.154)" fill="#e8e8e8"/><path d="M159.508,64.5a4.855,4.855,0,0,1,3.476-4.635,5.023,5.023,0,0,1-.444-2.028V52.9A13.634,13.634,0,1,0,159.528,69.5l-.019-.135Zm-7.821,2.511.019.579h-.039v.251a1.217,1.217,0,0,1-2.433,0v-.212h0l-.02-.406a10.632,10.632,0,0,1-4.229-1.062l.734-2.916a8.774,8.774,0,0,0,4.152,1.062c1.448,0,2.414-.579,2.414-1.545,0-.946-.811-1.526-2.685-2.163-2.684-.888-4.5-2.105-4.519-4.538,0-2.24,1.545-3.959,4.21-4.461v-.213l-.019-.154v-.483a1.241,1.241,0,0,1,1.236-1.217,1.212,1.212,0,0,1,1.217,1.217v.174h0v.483a9.145,9.145,0,0,1,3.669.811l-.734,2.839a7.681,7.681,0,0,0-3.612-.888c-1.622.019-2.144.753-2.124,1.448,0,.792.869,1.333,3.013,2.105,2.974,1.043,4.152,2.414,4.172,4.693C156.109,64.638,154.583,66.511,151.687,67.013Z" transform="translate(-116.499 -35.302)" fill="#e8e8e8"/></g></g></svg>