<svg xmlns="http://www.w3.org/2000/svg" width="57.102" height="57.077" viewBox="0 0 57.102 57.077"><defs><style>.a{opacity:0.6;}.b{fill:#f2f2f2;}</style></defs><g class="a" transform="translate(-82.429 -177.657)"><path class="b" d="M120.635,215.541a49.2,49.2,0,0,1-.926,5.253,18.166,18.166,0,0,1-9.391,11.61c-6.668,3.4-13.309,3.109-19.531-1.062A18.155,18.155,0,0,1,82.629,218.3,18.951,18.951,0,0,1,97.1,197.151a21.049,21.049,0,0,1,3.5-.449c.645-.041.882-.2.907-.885a18.319,18.319,0,0,1,6.626-13.657,17.8,17.8,0,0,1,11.076-4.478c7.914-.353,13.932,2.958,17.861,9.757a17.789,17.789,0,0,1,1.455,14.975c-2.283,6.879-7.119,11.057-14.1,12.812a12.007,12.007,0,0,1-1.955.3C121.835,215.581,121.2,215.541,120.635,215.541Zm-.348-33.18A14.264,14.264,0,0,0,105.972,196.6a14.279,14.279,0,0,0,28.557.058A14.229,14.229,0,0,0,120.286,182.361ZM95.217,220.6c.76.3,1.4.6,2.075.813a8.385,8.385,0,0,0,4.938.3,1.771,1.771,0,0,0,1.412-1.509,1.85,1.85,0,0,0-.961-1.9,10.847,10.847,0,0,0-1.582-.776,20.223,20.223,0,0,1-4.7-2.264,5.173,5.173,0,0,1-1.46-6.24,5.9,5.9,0,0,1,4.213-3.261c.561-.139.77-.369.725-.954-.056-.746-.014-1.5-.014-2.3h2.477l-.353-1.2c-.929.067-1.824.09-2.707.2A14.216,14.216,0,0,0,87,215.05a13.954,13.954,0,0,0,6.259,12.382,13.251,13.251,0,0,0,9.946,2.314,14.294,14.294,0,0,0,12.341-13.892.98.98,0,0,0-.8-1.147,13.684,13.684,0,0,1-5.959-3.261,7.3,7.3,0,0,0-3.682-2.055,17.522,17.522,0,0,0-4.045-.339,1.692,1.692,0,0,0-1.661,1.4,1.57,1.57,0,0,0,.989,1.7,16.42,16.42,0,0,0,1.636.834c1.162.517,2.38.922,3.5,1.522a5.4,5.4,0,0,1,2.769,6.816,5.873,5.873,0,0,1-4.354,3.87c-1.009.288-1.021.247-1.021,1.317v2.2H99.726c0-.68,0-1.336,0-1.991,0-1.044,0-1.014-1.009-1.123a12.272,12.272,0,0,1-4.44-1.3Z" transform="translate(0 0)"/><path class="b" d="M305.94,245.32v-1.987c0-1.027-.011-.971-.989-1.156-1.222-.231-2.437-.523-3.631-.871-.92-.268-.907-.332-.671-1.245.246-.95.493-1.9.709-2.731,1.412.386,2.725.848,4.076,1.078a8.338,8.338,0,0,0,2.733-.1,1.84,1.84,0,0,0,.59-3.508c-.809-.423-1.677-.733-2.5-1.134a22.116,22.116,0,0,1-3.678-1.9,5.127,5.127,0,0,1,.407-8.376,11.631,11.631,0,0,1,2.568-1.14c.437-.145.554-.312.543-.724-.021-.8-.006-1.592-.006-2.422h3.123c0,.727.019,1.45-.007,2.171-.016.436.113.573.578.654,1.223.213,2.426.539,3.636.823.4.093.513.285.378.717-.308.985-.547,1.991-.834,3.066-.23-.091-.416-.161-.6-.238a9.009,9.009,0,0,0-5.173-.709,1.754,1.754,0,0,0-1.593,1.39,1.58,1.58,0,0,0,1.031,1.757c.983.5,2.008.922,3.017,1.375.708.318,1.439.593,2.12.96a5.309,5.309,0,0,1,2.987,5.483,5.6,5.6,0,0,1-3.809,4.918,4.821,4.821,0,0,1-1.275.4c-.534.057-.585.338-.573.764.019.708-.006,1.417.009,2.125.008.366-.072.578-.5.567C307.756,245.3,306.908,245.32,305.94,245.32Z" transform="translate(-187.17 -35.572)"/></g></svg>