<svg xmlns="http://www.w3.org/2000/svg" width="61.349" height="70.203" viewBox="0 0 61.349 70.203"><defs><style>.a{fill:#eaeaea;}</style></defs><g transform="translate(564.7 -254.097)"><path class="a" d="M-511.139,261.895c2.041,0,3.954,0,5.867,0,1.4,0,1.92.511,1.92,1.888q0,29.3,0,58.592c0,1.474-.5,1.922-2.128,1.922q-18.492,0-36.984,0-6.151,0-12.3,0c-1.627,0-2.081-.448-2.085-2.056-.005-1.887,0-3.774,0-5.758-.325-.015-.607-.038-.889-.038-1.727,0-3.453.005-5.179,0-1.23-.006-1.778-.551-1.778-1.783q0-22.134.023-44.267a2.229,2.229,0,0,1,.591-1.417c4.742-4.8,9.523-9.551,14.279-14.333a2.054,2.054,0,0,1,1.617-.545q11.411.009,22.822,0h12.058c1.746,0,2.168.432,2.168,2.214C-511.139,258.143-511.139,259.972-511.139,261.895Zm-2.958,51.631V257.006h-33.1v.922q0,5.787,0,11.574c0,1.6-.478,2.081-2.057,2.082q-5.828,0-11.655,0h-.818v41.941Zm7.8,7.828V264.841h-4.842v1.093q0,24.154,0,48.308c0,1.75-.45,2.2-2.187,2.2h-40.6v4.909Zm-43.806-61.91-9.189,9.19h9.189Z" transform="translate(0 0)"/><path class="a" d="M-499.756,389.155q-8.857,0-17.713,0c-1.488,0-2.3-.976-1.745-2.113a1.476,1.476,0,0,1,1.473-.793c1.4-.006,2.8,0,4.206,0h31.3c.216,0,.432-.008.647,0a1.461,1.461,0,0,1,1.547,1.34,1.445,1.445,0,0,1-1.359,1.528,8.67,8.67,0,0,1-1.291.025h-17.066Z" transform="translate(-37.976 -110.755)"/><path class="a" d="M-499.708,433.58h-17.548a6.711,6.711,0,0,1-.888-.026,1.394,1.394,0,0,1-1.266-1.354,1.36,1.36,0,0,1,1.115-1.4,4.882,4.882,0,0,1,.962-.083q17.629-.006,35.258,0c.081,0,.162,0,.243,0,1.134.034,1.792.565,1.792,1.446s-.648,1.415-1.8,1.415Q-490.773,433.584-499.708,433.58Z" transform="translate(-37.957 -148.027)"/><path class="a" d="M-434.333,490.253q5.988,0,11.976.006a3.921,3.921,0,0,1,1.028.135,1.233,1.233,0,0,1,.908,1.289,1.225,1.225,0,0,1-.9,1.3,5.676,5.676,0,0,1-1.429.162q-11.855.016-23.709-.012a2.248,2.248,0,0,1-1.512-.545,1.882,1.882,0,0,1-.225-1.468c.142-.654.767-.856,1.4-.859,2.1-.009,4.208,0,6.312,0Z" transform="translate(-97.603 -197.925)"/><path class="a" d="M-434.846,559.228q-6.069,0-12.138-.005a3.591,3.591,0,0,1-.949-.12,1.249,1.249,0,0,1-.943-1.342,1.211,1.211,0,0,1,.926-1.271,6.063,6.063,0,0,1,1.431-.152c7.9-.011,15.806-.021,23.709.011a2.2,2.2,0,0,1,1.5.575,1.573,1.573,0,0,1,.166,1.451,1.95,1.95,0,0,1-1.324.815,24.02,24.02,0,0,1-2.989.038Z" transform="translate(-97.074 -253.304)"/><path class="a" d="M-515.716,482.57c-.808,0-1.616.009-2.424,0a1.388,1.388,0,0,1-1.518-1.422c-.039-1.669-.042-3.341,0-5.01a1.381,1.381,0,0,1,1.523-1.429q2.464-.034,4.929,0a1.35,1.35,0,0,1,1.456,1.475q.034,2.464,0,4.929c-.015.969-.544,1.444-1.542,1.457C-514.1,482.578-514.908,482.57-515.716,482.57Zm1.044-2.9v-2.066h-2.063v2.066Z" transform="translate(-37.725 -184.881)"/><path class="a" d="M-511.293,543.927a4.2,4.2,0,0,1-4.1,4.163,4.254,4.254,0,0,1-4.2-4.165,4.206,4.206,0,0,1,4.2-4.144A4.149,4.149,0,0,1-511.293,543.927Zm-2.9-.024a1.25,1.25,0,0,0-1.3-1.236,1.314,1.314,0,0,0-1.2,1.28,1.309,1.309,0,0,0,1.239,1.239A1.275,1.275,0,0,0-514.193,543.9Z" transform="translate(-37.808 -239.436)"/></g></svg>