<svg xmlns="http://www.w3.org/2000/svg" width="83.16" height="82.386" viewBox="0 0 83.16 82.386"><g transform="translate(-6114.214 2026.484)"><g transform="translate(6114.214 -2026.485)"><path d="M6188.676-2002.527v-21.946c-.4.134-.738.242-1.07.357q-15.668,5.429-31.338,10.845a1.72,1.72,0,0,1-1.045-.035q-19.585-6.786-39.156-13.6c-.191-.066-.383-.137-.572-.2a1.611,1.611,0,0,1-1.279-1.616c.035-.806.566-1.2,1.316-1.461,11.775-4.084,23.588-8.069,35.289-12.363a13.145,13.145,0,0,1,9.746.01c11.543,4.229,23.2,8.151,34.811,12.19.225.078.451.147.668.236.732.3,1.328.759,1.3,1.618a1.741,1.741,0,0,1-1.412,1.634c-1.246.4-2.48.845-3.744,1.28v23.081a7.207,7.207,0,0,1,4.729,4.292,6.53,6.53,0,0,1,.115,4.46,6.886,6.886,0,0,1-7,4.888,6.916,6.916,0,0,1-6.416-5.754A7.013,7.013,0,0,1,6188.676-2002.527Z" transform="translate(-6114.213 2043.484)" fill="#e8e8e8"/><path d="M6199.848-1916.329c2.1.725,4.1,1.411,6.092,2.107,5.467,1.909,10.916,3.88,16.42,5.681a5.836,5.836,0,0,0,3.439-.055c7.15-2.4,14.262-4.925,21.383-7.409.281-.1.57-.17,1-.3.021.439.051.789.051,1.139,0,7.219-.025,14.438.025,21.656a2.667,2.667,0,0,1-1.811,2.793,55.172,55.172,0,0,1-13.1,4.037,56.5,56.5,0,0,1-13.4.643,56.693,56.693,0,0,1-18.781-4.856,2.048,2.048,0,0,1-1.441-1.982q.009-11.435.01-22.87A4.28,4.28,0,0,1,6199.848-1916.329Z" transform="translate(-6182.418 1942.068)" fill="#e8e8e8"/><path d="M6465.16-1763.175a10.533,10.533,0,0,0,10.318-.019v1.264q0,10.523,0,21.046c0,2.433-.916,3.333-3.371,3.333-1.414,0-2.834.016-4.248,0a2.607,2.607,0,0,1-2.766-2.711q-.029-11.232-.006-22.463A3.476,3.476,0,0,1,6465.16-1763.175Z" transform="translate(-6394.061 1819.93)" fill="#e8e8e8"/></g><path d="M6.914,0A6.914,6.914,0,1,1,0,6.914,6.914,6.914,0,0,1,6.914,0Z" transform="translate(6183.369 -1985.711)" fill="#e8e8e8"/></g></svg>