<svg xmlns="http://www.w3.org/2000/svg" width="53.45" height="94.105" viewBox="0 0 53.45 94.105"><g transform="translate(-619.727 -385.445)"><path d="M632.309,431.94a6.946,6.946,0,1,0,6.947-6.947A6.949,6.949,0,0,0,632.309,431.94Z" transform="translate(-4.42 -13.893)" fill="#e8e8e8"/><path d="M670.957,437.13a6.307,6.307,0,1,0,6.307-6.306A6.308,6.308,0,0,0,670.957,437.13Z" transform="translate(-17.997 -15.941)" fill="#e8e8e8"/><path d="M673.131,473.062c-.785-3.69-2.749-10.361-3.281-12.727a12.089,12.089,0,0,0-1.8-4.284A8.225,8.225,0,0,0,664.275,453a7.59,7.59,0,0,0-.858-.275,4.612,4.612,0,0,0-1.427-.246h-5.445a4.661,4.661,0,0,0-1.484.264,7.819,7.819,0,0,0-2.046.875,8.5,8.5,0,0,0-2.533,2.431,12.063,12.063,0,0,0-1.795,4.284c-.016.071-.037.157-.055.235-.127-.7-.265-1.378-.42-2a11.1,11.1,0,0,0-2.5-4.815,10.386,10.386,0,0,0-2.614-2.085,11.727,11.727,0,0,0-3.55-1.288c-.248-.046-.475-.082-.676-.107a5.075,5.075,0,0,0-1.206-.15H632a5.217,5.217,0,0,0-1.221.152,11.988,11.988,0,0,0-3.341.95,10.5,10.5,0,0,0-3.484,2.529,11.072,11.072,0,0,0-2.5,4.815,43.5,43.5,0,0,0-.807,4.457c-.651,4.773-.921,10.074-.922,10.111a2.564,2.564,0,1,0,5.121.264s.006-.134.023-.393c.05-.908.2-3.268.463-5.884.13-1.307.289-2.679.476-3.956a16.568,16.568,0,0,1,.735-3.417c.529-1.308.936-1.039,1.341-1.309l-.954,13.945a5.23,5.23,0,0,0,.043.631c0,.084-.025.165-.025.252v25.741a3.264,3.264,0,0,0,6.527,0V477.448h2.711v21.559a3.264,3.264,0,0,0,3.265,3.264h3.134a2.123,2.123,0,0,1-.68-1.134,2.1,2.1,0,0,1-.055-.468V488.845c0-.057.013-.11.016-.165a3.44,3.44,0,0,1-.028-.413l.591-9.83a2.62,2.62,0,0,0-.775,1.46l-.792,7.661a1.733,1.733,0,0,1-1.411,1.526,1.708,1.708,0,0,1-.311.029,1.688,1.688,0,0,1-.18-.009,1.734,1.734,0,0,1-1.546-1.9l.8-7.737c0-.046.012-.092.02-.137a6.319,6.319,0,0,1,1.218-2.754,5.158,5.158,0,0,1,3.261-1.958,4.869,4.869,0,0,1,.77-.066h1.794c.023,0,.045.006.067.007h3.325c.022,0,.044-.007.067-.007h1.793a5.044,5.044,0,0,1,.652.048,5.415,5.415,0,0,1,4.31,3.673,6.682,6.682,0,0,1,.288,1.057c.008.045.015.091.019.137l.341,3.3.459,4.437a1.734,1.734,0,0,1-3.449.356l-.01-.092-.486-4.7-.3-2.869a2.62,2.62,0,0,0-.773-1.458l.26,4.327.33,5.5a3.424,3.424,0,0,1-.027.413c0,.055.016.108.016.165v11.824a2.122,2.122,0,0,1-.736,1.6h4.043a2.339,2.339,0,0,0,2.332-2.333V482.772h2.922v17.166a2.331,2.331,0,1,0,4.662,0V482.772c.031,0,.059,0,.089-.006a3.345,3.345,0,0,1,.51,0h2.749c-.81-11.186-5.537-16.959-4.608-20.919a15.721,15.721,0,0,1,.872-2.738,8.936,8.936,0,0,1,.753,2.149c.516,2.3,2.478,8.951,3.271,12.677a2.1,2.1,0,0,0,4.1-.872Zm-23.232-.834a4.518,4.518,0,0,1-4.477.746,4.49,4.49,0,0,1-.645-.3,4.547,4.547,0,0,1-2.24-3.179,4.593,4.593,0,0,1-.071-.776c0-.051.006-.1.008-.152a4.551,4.551,0,0,1,4.536-4.393,4.589,4.589,0,0,1,.664.054,4.521,4.521,0,0,1,1.559.529,4.543,4.543,0,0,1,.666,7.471Z" transform="translate(0 -22.72)" fill="#e8e8e8"/><path d="M661.794,511.566H660.02v10.688a2.121,2.121,0,0,1-.736,1.6h3.246a2.119,2.119,0,0,1-.737-1.6Z" transform="translate(-13.896 -44.306)" fill="#e8e8e8"/><path d="M664.464,387.716v-.867a1.4,1.4,0,1,0-2.808,0v.87a6.415,6.415,0,0,1,1.437-.089A5.5,5.5,0,0,1,664.464,387.716Z" transform="translate(-14.73)" fill="#e8e8e8"/><path d="M641.305,410.709a7.6,7.6,0,0,0,.684.427,40.6,40.6,0,0,1,4.567-1.545,18.184,18.184,0,0,1,3.227-.467v20.434a14.545,14.545,0,0,1,2.809,4.089V409.124a17.993,17.993,0,0,1,3.767.605c1.413.387,2.636.9,4.026,1.407a7.7,7.7,0,0,0,.686-.427,16.614,16.614,0,0,1,7.8-2.194,12.378,12.378,0,0,1,5.647,1.128,17.15,17.15,0,0,0-.263-1.913,17.593,17.593,0,0,0-.471-1.855,18.648,18.648,0,0,0-3.138-5.905q-.3-.383-.62-.754-.64-.742-1.355-1.43a22.391,22.391,0,0,0-2.3-1.931,26.331,26.331,0,0,0-31.161.614,21.415,21.415,0,0,0-3.476,3.5,18.657,18.657,0,0,0-3.138,5.905,17.475,17.475,0,0,0-.471,1.855,17.036,17.036,0,0,0-.262,1.913,12.371,12.371,0,0,1,5.646-1.128A16.621,16.621,0,0,1,641.305,410.709Z" transform="translate(-2.857 -1.969)" fill="#e8e8e8"/></g></svg>