<svg xmlns="http://www.w3.org/2000/svg" xmlns:xlink="http://www.w3.org/1999/xlink" width="278" height="308.269" viewBox="0 0 278 308.269"><defs><style>.a,.n,.p{fill:#575757;}.a{opacity:0.103;}.b{opacity:0.5;fill:url(#a);}.c{fill:#fff;}.d{opacity:0.4;}.e,.i{fill:none;stroke-linecap:round;stroke-linejoin:round;}.e{stroke:#69686c;}.e,.j{stroke-width:0.377px;}.f,.g{fill:#bbb;font-family:Roboto-Regular, Roboto;}.f{font-size:9px;}.g{font-size:11px;}.h{fill:#575756;}.i{stroke:#f26c6c;stroke-width:1.506px;}.j{fill:#f26c6c;stroke:#f7f7f7;stroke-miterlimit:10;}.k{fill:#f46a4e;}.l{fill:#f2b05a;}.m{fill:#fdfdfd;}.n{font-size:12px;font-family:Roboto-Bold, Roboto;font-weight:700;}.o,.p{stroke:none;}</style><linearGradient id="a" x1="0.5" y1="1.115" x2="0.5" y2="-0.058" gradientUnits="objectBoundingBox"><stop offset="0" stop-color="#fff"/><stop offset="0.161" stop-color="#fefafa"/><stop offset="0.322" stop-color="#fdeeee"/><stop offset="0.484" stop-color="#fbdada"/><stop offset="0.647" stop-color="#f9bebe"/><stop offset="0.81" stop-color="#f69999"/><stop offset="0.971" stop-color="#f26d6d"/><stop offset="0.978" stop-color="#f26c6c"/></linearGradient></defs><g transform="translate(-49.744 -641)"><g class="a" transform="translate(78 641)"><path class="o" d="M 219.1329498291016 0.769106924533844 L 0.5350529551506042 0.769106924533844 C 0.5196900367736816 0.7466000318527222 0.5000121593475342 0.699765145778656 0.5000121593475342 0.6345513463020325 C 0.5000121593475342 0.5693375468254089 0.5196900367736816 0.5225026607513428 0.5350529551506042 0.4999957978725433 L 219.1329498291016 0.4999957978725433 C 219.1483001708984 0.5225026607513428 219.1679840087891 0.5693375468254089 219.1679840087891 0.6345513463020325 C 219.1679840087891 0.699765145778656 219.1483001708984 0.7466000318527222 219.1329498291016 0.769106924533844 Z"/><path class="p" d="M 0.4983673095703125 -4.172325134277344e-06 L 219.1696166992188 -4.172325134277344e-06 C 219.4448394775391 -4.172325134277344e-06 219.6679534912109 0.2841069102287292 219.6679534912109 0.6345513463020325 C 219.6679534912109 0.9849957823753357 219.4448394775391 1.269106864929199 219.1696166992188 1.269106864929199 L 0.4983673095703125 1.269106864929199 C 0.2231292724609375 1.269106864929199 -1.52587890625e-05 0.9849957823753357 -1.52587890625e-05 0.6345513463020325 C -1.52587890625e-05 0.2841069102287292 0.2231292724609375 -4.172325134277344e-06 0.4983673095703125 -4.172325134277344e-06 Z"/></g><g class="a" transform="translate(78 948)"><path class="o" d="M 219.1329498291016 0.769106924533844 L 0.5350529551506042 0.769106924533844 C 0.5196900367736816 0.7466000318527222 0.5000121593475342 0.699765145778656 0.5000121593475342 0.6345513463020325 C 0.5000121593475342 0.5693375468254089 0.5196900367736816 0.5225026607513428 0.5350529551506042 0.4999957978725433 L 219.1329498291016 0.4999957978725433 C 219.1483001708984 0.5225026607513428 219.1679840087891 0.5693375468254089 219.1679840087891 0.6345513463020325 C 219.1679840087891 0.699765145778656 219.1483001708984 0.7466000318527222 219.1329498291016 0.769106924533844 Z"/><path class="p" d="M 0.4983673095703125 -4.172325134277344e-06 L 219.1696166992188 -4.172325134277344e-06 C 219.4448394775391 -4.172325134277344e-06 219.6679534912109 0.2841069102287292 219.6679534912109 0.6345513463020325 C 219.6679534912109 0.9849957823753357 219.4448394775391 1.269106864929199 219.1696166992188 1.269106864929199 L 0.4983673095703125 1.269106864929199 C 0.2231292724609375 1.269106864929199 -1.52587890625e-05 0.9849957823753357 -1.52587890625e-05 0.6345513463020325 C -1.52587890625e-05 0.2841069102287292 0.2231292724609375 -4.172325134277344e-06 0.4983673095703125 -4.172325134277344e-06 Z"/></g><g transform="translate(26 200.939)"><g transform="translate(25.693 479.706)"><path class="b" d="M504.849-959.371s17.454-19.507,42.1-21.414,37.915-17.088,43.562-22.735c8-8,17.415-33.9,40.166-37.239s18.59,51.182,18.59,82.486Z" transform="translate(-463.69 1094.99)"/><rect class="c" width="26" height="95" transform="translate(167.307 47.355)"/><g class="d" transform="translate(41.159 8.994)"><line class="e" y2="145.555"/><line class="e" y2="145.555" transform="translate(41.887)"/><line class="e" y2="145.555" transform="translate(84.097)"/><line class="e" y2="145.555" transform="translate(126.167)"/><line class="e" y2="145.555" transform="translate(168.053)"/><line class="e" y2="145.555" transform="translate(210.264)"/></g><g transform="translate(29.057 38.193)"><line class="e" x1="245.25"/><g transform="translate(0 32.56)"><line class="e" x1="245.25"/></g><g transform="translate(0 65.373)"><line class="e" x1="245.25"/></g><g transform="translate(0 98.075)"><line class="e" x1="245.25"/></g></g><text class="f" transform="translate(0 40.648)"><tspan x="0" y="0">30m</tspan></text><text class="g" transform="translate(0.307 10.356)"><tspan x="0" y="0">40m</tspan></text><text class="f" transform="translate(0 70.759)"><tspan x="0" y="0">20m</tspan></text><text class="f" transform="translate(0 104.177)"><tspan x="0" y="0">10m</tspan></text><text class="f" transform="translate(6.196 137.109)"><tspan x="0" y="0">0m</tspan></text><text class="f" transform="translate(29.753 177.393)"><tspan x="0" y="0">0</tspan></text><text class="f" transform="translate(73.893 177.393)"><tspan x="0" y="0">10</tspan></text><text class="f" transform="translate(117.894 177.393)"><tspan x="0" y="0">20</tspan></text><text class="f" transform="translate(159.527 177.393)"><tspan x="0" y="0">80</tspan></text><text class="f" transform="translate(202.275 177.393)"><tspan x="0" y="0">100</tspan></text><path class="h" d="M504.849-954.365" transform="translate(-463.69 1090.633)"/><path class="i" d="M504.849-959.371s17.454-19.507,42.1-21.414,37.915-17.088,43.562-22.735c8-8,13.054-32.268,41.508-36.668" transform="translate(-463.69 1094.99)"/><circle class="j" cx="2.346" cy="2.346" r="2.346" transform="translate(39.946 133.922)"/><circle class="j" cx="2.346" cy="2.346" r="2.346" transform="translate(80.655 111.128)"/><circle class="j" cx="2.346" cy="2.346" r="2.346" transform="translate(122.91 91.387)"/><circle class="j" cx="2.346" cy="2.346" r="2.346" transform="translate(164.98 52.237)"/></g><text class="f" transform="translate(24 465.061)"><tspan x="0" y="0">Objetivo en millones</tspan></text><text class="f" transform="translate(130 673.061)"><tspan x="0" y="0">Tiempo en meses</tspan></text><g transform="translate(188.347 528.669)"><g transform="translate(-0.347 0.369)"><circle class="k" cx="5" cy="5" r="5" transform="translate(0 0.023)"/></g></g><g transform="translate(189.347 496.407)"><g transform="translate(-0.436 -0.261)"><circle class="l" cx="5" cy="5" r="5" transform="translate(0.089 -0.085)"/></g></g><path class="m" d="M190.525,311.707a.807.807,0,0,1-.122.249,2.6,2.6,0,0,0-.692,2.129c.046.427-.262.626-.673.5a1.4,1.4,0,0,1-.208-.069,2.04,2.04,0,0,0-1.805.007,1.507,1.507,0,0,1-.229.075.461.461,0,0,1-.633-.473,7.114,7.114,0,0,1,0-.792,1.014,1.014,0,0,0-.243-.746c-.161-.208-.306-.429-.452-.648a.462.462,0,0,1,.245-.754c.316-.115.638-.214.951-.336a.686.686,0,0,0,.272-.2c.216-.268.411-.553.625-.823a.447.447,0,0,1,.773,0c.213.271.408.556.624.824a.684.684,0,0,0,.272.2c.327.128.662.233.991.355A.461.461,0,0,1,190.525,311.707Z" transform="translate(5.474 188.595)"/></g><g transform="translate(25)"><text class="n" transform="translate(224 919)"><tspan x="0" y="0">Objetivo</tspan></text><g transform="translate(223.744 923.09)"><text class="n" transform="translate(0 7)"><tspan x="0" y="0">de la inversión</tspan></text></g><g transform="translate(224.347 895.336)"><g transform="translate(-0.347 0.654)"><circle class="l" cx="5" cy="5" r="5" transform="translate(0 0.01)"/></g></g><path class="m" d="M190.525,311.707a.807.807,0,0,1-.122.249,2.6,2.6,0,0,0-.692,2.129c.046.427-.262.626-.673.5a1.4,1.4,0,0,1-.208-.069,2.04,2.04,0,0,0-1.805.007,1.507,1.507,0,0,1-.229.075.461.461,0,0,1-.633-.473,7.114,7.114,0,0,1,0-.792,1.014,1.014,0,0,0-.243-.746c-.161-.208-.306-.429-.452-.648a.462.462,0,0,1,.245-.754c.316-.115.638-.214.951-.336a.686.686,0,0,0,.272-.2c.216-.268.411-.553.625-.823a.447.447,0,0,1,.773,0c.213.271.408.556.624.824a.684.684,0,0,0,.272.2c.327.128.662.233.991.355A.461.461,0,0,1,190.525,311.707Z" transform="translate(41.474 588.534)"/></g><g transform="translate(-22)"><text class="n" transform="translate(72 919)"><tspan x="0" y="0">Monto alcanzado</tspan></text><g transform="translate(71.744 923.09)"><text class="n" transform="translate(0 7)"><tspan x="0" y="0">de la inversión</tspan></text></g><g transform="translate(72.347 895.718)"><g transform="translate(-0.347 0.654)"><circle class="k" cx="5" cy="5" r="5" transform="translate(0 -0.372)"/></g></g></g></g></svg>