<svg xmlns="http://www.w3.org/2000/svg" xmlns:xlink="http://www.w3.org/1999/xlink" width="283.188" height="226" viewBox="0 0 283.188 226"><defs><style>.a{opacity:0.5;fill:url(#a);}.b{opacity:0.4;}.c{fill:none;stroke:#69686c;stroke-linecap:round;stroke-linejoin:round;}.c,.g{stroke-width:0.377px;}.d,.e{fill:#bbb;font-family:SegoeUI, Segoe UI;}.d{font-size:9px;}.e{font-size:11px;}.f{fill:#575756;}.g{fill:#f26c6c;stroke:#f7f7f7;stroke-miterlimit:10;}</style><linearGradient id="a" x1="0.5" y1="1.115" x2="0.5" y2="-0.058" gradientUnits="objectBoundingBox"><stop offset="0" stop-color="#fff"/><stop offset="0.161" stop-color="#fefafa"/><stop offset="0.322" stop-color="#fdeeee"/><stop offset="0.484" stop-color="#fbdada"/><stop offset="0.647" stop-color="#f9bebe"/><stop offset="0.81" stop-color="#f69999"/><stop offset="0.971" stop-color="#f26d6d"/><stop offset="0.978" stop-color="#f26c6c"/></linearGradient></defs><g transform="translate(-24 -455.061)"><g transform="translate(25.736 480.67)"><path class="a" d="M504.849-956.28s17.9-20,43.163-21.957,38.877-17.521,44.667-23.311c8.2-8.2,13.385-33.086,42.561-37.6s37.191-14.008,41.018-17.835c3.363-3.362.9,47.609,0,100.7H504.849Z" transform="translate(-462.646 1094.974)"/><g class="b" transform="translate(42.203 8.858)"><line class="c" y2="149.246"/><line class="c" y2="149.246" transform="translate(42.949)"/><line class="c" y2="149.246" transform="translate(86.23)"/><line class="c" y2="149.246" transform="translate(129.367)"/><line class="c" y2="149.246" transform="translate(172.316)"/><line class="c" y2="149.246" transform="translate(215.597)"/></g><g transform="translate(29.794 38.797)"><line class="c" x1="251.47"/><g transform="translate(0 33.386)"><line class="c" x1="251.47"/></g><g transform="translate(0 67.031)"><line class="c" x1="251.47"/></g><g transform="translate(0 100.563)"><line class="c" x1="251.47"/></g></g><text class="d" transform="translate(0 41.086)"><tspan x="0" y="0">30m</tspan></text><text class="e" transform="translate(0.264 10.391)"><tspan x="0" y="0">40m</tspan></text><text class="d" transform="translate(0 71.961)"><tspan x="0" y="0">20m</tspan></text><text class="d" transform="translate(0 106.226)"><tspan x="0" y="0">10m</tspan></text><text class="d" transform="translate(6.353 139.994)"><tspan x="0" y="0">0m</tspan></text><text class="d" transform="translate(30.508 181.299)"><tspan x="0" y="0">0</tspan></text><text class="d" transform="translate(75.767 181.299)"><tspan x="0" y="0">20</tspan></text><text class="d" transform="translate(120.884 181.299)"><tspan x="0" y="0">40</tspan></text><text class="d" transform="translate(163.573 181.299)"><tspan x="0" y="0">60</tspan></text><text class="d" transform="translate(207.405 181.299)"><tspan x="0" y="0">80</tspan></text><path class="f" d="M504.849-954.365" transform="translate(-462.646 1093.724)"/><circle class="g" cx="2.405" cy="2.405" r="2.405" transform="translate(40.96 136.954)"/><circle class="g" cx="2.405" cy="2.405" r="2.405" transform="translate(82.7 113.581)"/><circle class="g" cx="2.405" cy="2.405" r="2.405" transform="translate(126.028 93.34)"/><circle class="g" cx="2.405" cy="2.405" r="2.405" transform="translate(169.164 53.197)"/><circle class="g" cx="2.405" cy="2.405" r="2.405" transform="translate(211.508 36.391)"/><circle class="g" cx="2.405" cy="2.405" r="2.405" transform="translate(237.78 11.144)"/></g><text class="d" transform="translate(24 465.061)"><tspan x="0" y="0">Objetivo en millones</tspan></text><text class="d" transform="translate(133 678.061)"><tspan x="0" y="0">Tiempo en meses</tspan></text></g></svg>