<svg xmlns="http://www.w3.org/2000/svg" xmlns:xlink="http://www.w3.org/1999/xlink" width="63.361" height="63.361" viewBox="0 0 63.361 63.361"><defs><style>.a{fill:#fff;}.b{fill:#575757;font-size:16px;font-family:SegoeUI-Bold, Segoe UI;font-weight:700;}.c{fill:url(#c);}.d{filter:url(#a);}</style><filter id="a" x="2.909" y="3.027" width="58.195" height="58.195" filterUnits="userSpaceOnUse"><feOffset dy="1" input="SourceAlpha"/><feGaussianBlur stdDeviation="1.5" result="b"/><feFlood flood-opacity="0.161"/><feComposite operator="in" in2="b"/><feComposite in="SourceGraphic"/></filter><linearGradient id="c" x1="0.682" y1="0.072" x2="0.037" y2="0.605" gradientUnits="objectBoundingBox"><stop offset="0" stop-color="#cfcccc"/><stop offset="1" stop-color="#373737"/></linearGradient></defs><g transform="translate(-244.937 -405.819)"><g transform="translate(-17)"><g transform="translate(54.346 97.346)"><g transform="translate(215 315)"><g class="d" transform="matrix(1, 0, 0, 1, -7.41, -6.53)"><path class="a" d="M24.6,0A24.6,24.6,0,1,1,0,24.6,24.6,24.6,0,0,1,24.6,0Z" transform="translate(7.41 6.53)"/></g></g></g><text class="b" transform="translate(274 443)"><tspan x="0" y="0">108%</tspan></text></g><path class="c" d="M-1681.276-174.02a24.62,24.62,0,0,0-4.687-14.511,24.885,24.885,0,0,0-20.112-10.287.751.751,0,0,0-.751.751.751.751,0,0,0,.751.751,23.378,23.378,0,0,1,18.894,9.665,23.125,23.125,0,0,1,4.4,13.631.755.755,0,0,0,.012.125.758.758,0,0,0-.012.125,23.377,23.377,0,0,1-9.665,18.893,23.124,23.124,0,0,1-13.631,4.4.737.737,0,0,0-.125.013.737.737,0,0,0-.125-.013,23.377,23.377,0,0,1-18.893-9.665,23.124,23.124,0,0,1-4.4-13.631.758.758,0,0,0-.012-.125.755.755,0,0,0,.012-.125,23.379,23.379,0,0,1,9.665-18.894.751.751,0,0,0,.169-1.049.752.752,0,0,0-1.049-.169,24.885,24.885,0,0,0-10.287,20.112.782.782,0,0,0,.012.125.786.786,0,0,0-.012.125,24.618,24.618,0,0,0,4.687,14.511,24.885,24.885,0,0,0,20.112,10.287.766.766,0,0,0,.125-.013.766.766,0,0,0,.125.013,24.62,24.62,0,0,0,14.511-4.687,24.885,24.885,0,0,0,10.287-20.112.786.786,0,0,0-.012-.125A.782.782,0,0,0-1681.276-174.02Z" transform="translate(1982.817 611.395)"/><path class="c" d="M-1681.276-174.02a24.62,24.62,0,0,0-4.687-14.511,24.885,24.885,0,0,0-20.112-10.287.751.751,0,0,0-.751.751.751.751,0,0,0,.751.751,23.378,23.378,0,0,1,18.894,9.665,23.125,23.125,0,0,1,4.4,13.631.755.755,0,0,0,.012.125.758.758,0,0,0-.012.125,23.377,23.377,0,0,1-9.665,18.893,23.124,23.124,0,0,1-13.631,4.4.737.737,0,0,0-.125.013.737.737,0,0,0-.125-.013,23.377,23.377,0,0,1-18.893-9.665,23.124,23.124,0,0,1-4.4-13.631.758.758,0,0,0-.012-.125.755.755,0,0,0,.012-.125,23.379,23.379,0,0,1,9.665-18.894.751.751,0,0,0,.169-1.049.752.752,0,0,0-1.049-.169,24.885,24.885,0,0,0-10.287,20.112.782.782,0,0,0,.012.125.786.786,0,0,0-.012.125,24.618,24.618,0,0,0,4.687,14.511,24.885,24.885,0,0,0,20.112,10.287.766.766,0,0,0,.125-.013.766.766,0,0,0,.125.013,24.62,24.62,0,0,0,14.511-4.687,24.885,24.885,0,0,0,10.287-20.112.786.786,0,0,0-.012-.125A.782.782,0,0,0-1681.276-174.02Z" transform="translate(667.68 2107.358) rotate(71)"/></g></svg>