<svg xmlns="http://www.w3.org/2000/svg" width="22.465" height="20.821" viewBox="0 0 22.465 20.821"><defs><style>.a,.b{fill:#575757;}.a{font-size:1px;font-family:Roboto-Bold, Roboto;font-weight:700;}.c{fill:#e10518;}.d{fill:#fff;stroke:rgba(112,112,112,0.3);}.e{fill:#dd141d;opacity:0;}.f{stroke:none;}.g{fill:none;}</style></defs><g transform="translate(-7.035 -7.52)"><g transform="translate(7.035 7.52)"><text class="a" transform="translate(13.281 10.889)"><tspan x="-1.945" y="0">Vivienda</tspan></text><g transform="translate(0 0.05)"><path class="b" d="M5285.037-1935.1a4.722,4.722,0,0,1,3.254-4.692,4.661,4.661,0,0,1,5.086,1.6,4.649,4.649,0,0,1,.2,5.406l1.88,2.337c.752.932,1.5,1.867,2.259,2.8a.816.816,0,0,1,.19.554q-.008,3.582,0,7.164c0,.556-.148.7-.707.7H5276.15c-.559,0-.709-.149-.709-.7q0-3.516,0-7.032a.938.938,0,0,1,.216-.63c1.888-2.358,3.781-4.714,5.649-7.089a.982.982,0,0,1,.889-.422C5283.133-1935.091,5284.076-1935.1,5285.037-1935.1Zm-1.046,14.323h3.349v.217c0-2.071,0-3.741,0-5.812a.8.8,0,0,0-.188-.55q-2.023-2.494-4.032-5c-.407-.505-.814-1.09-1.234-1.61-.065.075-.112.125-.155.178-1.742,2.17-3.218,4.02-4.957,6.195a.575.575,0,0,0-.11.333c-.005,2.124,0,3.7,0,5.821,0,.076.01.151.017.232h2.074v-4.8c0-.546.139-.681.693-.681h3.86c.542,0,.685.145.685.7v4.779Zm12.708.023v-5.974h-7.967v5.974ZM5286-1935.427a3.7,3.7,0,0,0,3.682,3.769,3.725,3.725,0,0,0,3.715-3.692,3.719,3.719,0,0,0-3.7-3.709A3.674,3.674,0,0,0,5286-1935.427Z" transform="translate(-5275.438 1940.008)"/></g><g transform="translate(9.495)"><g transform="translate(2.498 1.417)"><path class="c" d="M5504.162-1908.229a2.073,2.073,0,0,1-1.251-.381,1.517,1.517,0,0,1-.626-1.032.489.489,0,0,1,.376-.6c.294-.046.5.123.554.458.064.4.4.61.927.569,0-.389.006-.782-.008-1.175,0-.048-.113-.109-.185-.133a6.563,6.563,0,0,1-.942-.311,1.246,1.246,0,0,1-.779-1.189,1.426,1.426,0,0,1,.851-1.274,6.939,6.939,0,0,1,1.041-.318c.1-.412.234-.562.526-.541.274.021.4.187.44.568a6.776,6.776,0,0,1,.974.343,1.353,1.353,0,0,1,.765,1.211.464.464,0,0,1-.427.51.466.466,0,0,1-.488-.419.7.7,0,0,0-.808-.607c0,.391-.011.785.012,1.177,0,.06.157.146.249.159a1.915,1.915,0,0,1,.989.463,1.275,1.275,0,0,1,.026,2.019,2.2,2.2,0,0,1-1.247.514c-.114.448-.261.6-.551.568C5504.325-1907.676,5504.191-1907.854,5504.162-1908.229Zm0-4.467a4.388,4.388,0,0,0-.759.335.356.356,0,0,0,.02.645,4.485,4.485,0,0,0,.739.281Zm.975,3.485c.466-.041.8-.29.787-.575-.008-.229-.393-.471-.787-.489Z" transform="translate(-5502.227 1914.157)"/></g><path class="c" d="M5459.688-1939.889a3.651,3.651,0,0,1,3.647,3.647,3.651,3.651,0,0,1-3.647,3.647,3.651,3.651,0,0,1-3.647-3.647,3.651,3.651,0,0,1,3.647-3.647m0-1.058a4.705,4.705,0,0,0-4.7,4.705,4.7,4.7,0,0,0,4.7,4.7,4.706,4.706,0,0,0,4.706-4.7,4.706,4.706,0,0,0-4.706-4.705Z" transform="translate(-5454.984 1940.947)"/></g></g><g transform="translate(13.412 14.199)"><g class="d" transform="translate(0 0)"><rect class="f" width="1.185" height="1.185" rx="0.593"/><rect class="g" x="0.5" y="0.5" width="0.185" height="0.185" rx="0.093"/></g><rect class="e" transform="translate(0 0)"/></g></g></svg>