<svg xmlns="http://www.w3.org/2000/svg" width="32.302" height="21.188" viewBox="0 0 32.302 21.188"><defs><style>.a{fill:#dd141d;}.b{fill:#5b5b5b;}</style></defs><g transform="translate(16.151 25.938)"><path class="a" d="M-8.161-10.322h0a2.786,2.786,0,0,0-2.793,2.779A2.786,2.786,0,0,0-8.176-4.75,2.786,2.786,0,0,0-5.383-7.529v-.007A2.782,2.782,0,0,0-8.161-10.322Zm.005,3.84A1.046,1.046,0,0,1-9.2-7.524v0A1.049,1.049,0,0,1-8.162-8.572,1.045,1.045,0,0,1-7.114-7.53,1.045,1.045,0,0,1-8.156-6.482Z"/><path class="a" d="M9.206-10.322h0A2.786,2.786,0,0,0,6.412-7.543,2.786,2.786,0,0,0,9.191-4.75a2.786,2.786,0,0,0,2.793-2.779v-.007A2.782,2.782,0,0,0,9.206-10.322Zm.005,3.84A1.046,1.046,0,0,1,8.163-7.524v0A1.049,1.049,0,0,1,9.2-8.572,1.045,1.045,0,0,1,10.253-7.53,1.045,1.045,0,0,1,9.211-6.482Z"/><path class="a" d="M-3.584-25.888a.372.372,0,0,0-.106.474l.521.9a.347.347,0,0,0,.464.165.348.348,0,0,0,.165-.463.31.31,0,0,0-.029-.05l-.521-.9C-3.308-26.008-3.364-25.935-3.584-25.888Z"/><path class="a" d="M-.738-25.762l-.521.9a.347.347,0,0,0,.087.484.348.348,0,0,0,.484-.086.36.36,0,0,0,.029-.05l.521-.9a.37.37,0,0,0-.11-.468c-.26-.106-.273-.06-.487.12Z"/><path class="a" d="M-5.112-23.9a.352.352,0,0,0-.312.388.352.352,0,0,0,.388.312h1.042a.35.35,0,0,0,.35-.35.35.35,0,0,0-.35-.35Z"/><path class="a" d="M.1-23.9a.352.352,0,0,0-.312.388.352.352,0,0,0,.388.312H1.216a.35.35,0,0,0,.35-.35.35.35,0,0,0-.35-.35Z"/><path class="b" d="M15.456-9.973V-22.857H-.482c0-.514-.6-.931-1.345-.931s-1.346.417-1.346.931h-.476v2.437l-4.515.011L-11.288-14.5l-4.168,1.045v3.483l-.695.326v1.415h4.581a3.473,3.473,0,0,1,4.1-2.7,3.475,3.475,0,0,1,2.7,2.714c3.892,0,6.984-.007,10.561-.011a3.473,3.473,0,0,1,4.1-2.7A3.471,3.471,0,0,1,12.127-9.4,3.308,3.308,0,0,1,12.6-8.231h3.549V-9.625C16.151-9.863,15.456-9.779,15.456-9.973ZM-1.912-14.494a.723.723,0,0,1-.7.7h-6.6a.732.732,0,0,1-.679-.783.728.728,0,0,1,.049-.217l2.088-4.189a.708.708,0,0,1,.542-.389h4.6a.722.722,0,0,1,.7.7ZM9.031-16.072H7.121v1.92H5.732v-1.92H3.821V-17.46h1.91v-1.912h1.39v1.915h1.91Z"/></g></svg>