<svg xmlns="http://www.w3.org/2000/svg" width="29.066" height="26.99" viewBox="0 0 29.066 26.99"><defs><style>.a{fill:#dd141d;}.b{fill:#575757;}</style></defs><g transform="translate(-4 -6)"><path class="a" d="M44.457,24.229a6.229,6.229,0,1,0-6.229,6.229,6.229,6.229,0,0,0,6.229-6.229Zm-3.7,1.835-.715-.716-.715.716-1.1-1.1-1.1,1.1-.715-.716-.715.716-1.1-1.1-1.1,1.1-.734-.734,1.1-1.1-1.1-1.1.734-.734,1.1,1.1,1.1-1.1.715.716.715-.716,1.1,1.1,1.1-1.1.715.716.715-.716,1.1,1.1,1.1-1.1.734.734-1.1,1.1,1.1,1.1-.734.734-1.1-1.1Z" transform="translate(-13.467 -5.771)"/><path class="b" d="M33.066,6.519A.519.519,0,0,0,32.547,6H4.519A.519.519,0,0,0,4,6.519v2.6H33.066Z"/><path class="a" d="M0,0H1.531V1.531H0Z" transform="translate(25.491 18.458) rotate(-45)"/><path class="a" d="M0,0H1.531V1.531H0Z" transform="translate(21.859 18.458) rotate(-45)"/><path class="a" d="M43.038,52.709a1.038,1.038,0,0,0,1.038-1.038V47H42v4.671A1.038,1.038,0,0,0,43.038,52.709Z" transform="translate(-18.276 -19.719)"/><path class="a" d="M43.519,43.975c-.175,0-.347-.014-.519-.026v.546h1.038v-.546C43.866,43.961,43.694,43.975,43.519,43.975Z" transform="translate(-18.757 -18.252)"/><path class="b" d="M4,16.076H21.038a7.2,7.2,0,0,1,7.447,0h4.581V14H4Z" transform="translate(0 -3.848)"/><path class="b" d="M4.519,29.862H19.2A7.242,7.242,0,0,1,19.686,20H4v9.343A.519.519,0,0,0,4.519,29.862ZM8.152,22.6a3.1,3.1,0,0,1,1.817.59,3.114,3.114,0,1,1,0,5.049A3.114,3.114,0,1,1,8.152,22.6Z" transform="translate(0 -6.733)"/><path class="b" d="M18.006,31.152a2.076,2.076,0,0,0,0-4.152,2.052,2.052,0,0,0-1.073.308,3.1,3.1,0,0,1,0,3.537,2.052,2.052,0,0,0,1.073.308Z" transform="translate(-6.22 -10.1)"/><path class="b" d="M10.076,31.152a2.052,2.052,0,0,0,1.073-.308,3.1,3.1,0,0,1,0-3.537A2.052,2.052,0,0,0,10.076,27a2.076,2.076,0,1,0,0,4.152Z" transform="translate(-1.924 -10.1)"/><path class="b" d="M57.008,29.343V20H53.779a7.242,7.242,0,0,1,.482,9.862h2.228A.519.519,0,0,0,57.008,29.343Z" transform="translate(-23.942 -6.733)"/><ellipse class="b" cx="0.26" cy="0.984" rx="0.26" ry="0.984" transform="translate(9.709 17.992)"/></g></svg>