<svg xmlns="http://www.w3.org/2000/svg" width="29.916" height="25.157" viewBox="0 0 29.916 25.157"><defs><style>.a{fill:#575757;fill-rule:evenodd;}</style></defs><g transform="translate(-6 -13)"><g transform="translate(6 13)"><path class="a" d="M20.958,965.362a28.375,28.375,0,0,0-9.9,1.774.68.68,0,0,0-.5.457l-2.05,6.225-1.88,5.737a.68.68,0,0,0-.627.69c.076,2.4,2.455,4.164,5.206,4.164s5.14-1.768,5.216-4.164a.68.68,0,0,0-.637-.69l-1.88-5.737-1.848-5.6a27.03,27.03,0,0,1,8.223-1.487v19.685a10.538,10.538,0,0,0-2.624.414,3.82,3.82,0,0,0-1.147.542,1.261,1.261,0,0,0,0,2.167,3.83,3.83,0,0,0,1.147.542,11.341,11.341,0,0,0,3.3.436,11.27,11.27,0,0,0,3.293-.436,3.83,3.83,0,0,0,1.147-.542,1.261,1.261,0,0,0,0-2.167,3.756,3.756,0,0,0-1.137-.542,10.551,10.551,0,0,0-2.624-.414V966.732a26.987,26.987,0,0,1,8.212,1.487L28,973.818l-1.88,5.737a.68.68,0,0,0-.627.691c.076,2.4,2.455,4.164,5.206,4.164s5.14-1.768,5.216-4.164a.68.68,0,0,0-.637-.691l-1.88-5.737-2.05-6.225a.68.68,0,0,0-.5-.457,28.313,28.313,0,0,0-9.89-1.774Zm-9.752,4.611,1.4,4.271,1.742,5.3H8.061l1.742-5.3Zm19.494,0,1.4,4.271,1.742,5.3H27.555l1.742-5.3Z" transform="translate(-6 -965.362)"/></g></g></svg>