<svg xmlns="http://www.w3.org/2000/svg" width="8.717" height="8.717" viewBox="0 0 8.717 8.717"><defs><style>.a{fill-rule:evenodd;}</style></defs><path class="a" d="M8.488,1.331,5.46,4.359,8.488,7.387a.76.76,0,0,1,.229.551.8.8,0,0,1-.78.78.76.76,0,0,1-.551-.229L4.359,5.46,1.331,8.488a.846.846,0,0,1-.551.229A.773.773,0,0,1,0,7.937a.76.76,0,0,1,.229-.551L3.258,4.359.229,1.331A.847.847,0,0,1,0,.78.747.747,0,0,1,.78,0a.76.76,0,0,1,.551.229L4.359,3.258,7.387.229A.76.76,0,0,1,7.937,0a.773.773,0,0,1,.78.78.846.846,0,0,1-.229.551"/></svg>