<svg xmlns="http://www.w3.org/2000/svg" width="38.273" height="9.917" viewBox="0 0 38.273 9.917"><defs><style>.a{fill:#007ac1;}.b{fill:#fff;}.c{fill:#1d1819;}.d{fill:#004990;}</style></defs><g transform="translate(-596.206 -232.036)"><path class="a" d="M603.54,241.954a5.153,5.153,0,0,0,5.185-4.916,5.064,5.064,0,0,0-5.185-5h-2.333a4.891,4.891,0,0,0-5,5,4.968,4.968,0,0,0,5,4.916Z" transform="translate(0 0)"/><path class="b" d="M602.7,233.728a4.54,4.54,0,1,0,4.539,4.54A4.54,4.54,0,0,0,602.7,233.728Zm-2.877,4.54h0a2.882,2.882,0,0,1,1.847-2.686v5.37A2.881,2.881,0,0,1,599.824,238.268Zm3.906,2.686h0v-5.372a2.876,2.876,0,0,1,0,5.372Z" transform="translate(-1.482 -1.282)"/><path class="c" d="M652.967,239.035c0-.469-.245-.438-.479-.443v-.136c.2.01.412.01.615.01.219,0,.516-.01.9-.01a1.9,1.9,0,0,1,2.085,1.826c0,.517-.3,1.815-2.148,1.815-.266,0-.511-.01-.756-.01s-.464.005-.7.01v-.135c.313-.031.464-.042.479-.4v-2.53Zm.511,2.447h0c0,.4.287.448.542.448a1.453,1.453,0,0,0,1.5-1.628,1.567,1.567,0,0,0-1.632-1.679c-.214,0-.312.015-.407.021v2.837Z" transform="translate(-42.653 -4.865)"/><path class="c" d="M668.124,241.781h.1c.146,0,.25,0,.25-.173V240.2c0-.229-.078-.261-.271-.365v-.084c.245-.074.537-.172.558-.188a.185.185,0,0,1,.094-.026c.026,0,.037.031.037.073v2c0,.173.115.173.261.173h.089v.136c-.177,0-.36-.01-.547-.01s-.376.005-.568.01v-.136Zm.558-3.051h0a.256.256,0,0,1,0-.512.255.255,0,0,1,.255.251A.261.261,0,0,1,668.682,238.73Z" transform="translate(-54.503 -4.685)"/><path class="c" d="M673.7,244.341c0-.193-.058-.245-.3-.344v-.1a6.926,6.926,0,0,0,.688-.251c.016,0,.031.011.031.052v.339a1.53,1.53,0,0,1,.9-.391c.443,0,.6.324.6.73v1.345c0,.173.115.173.261.173h.094v.136c-.183,0-.365-.01-.553-.01s-.376.005-.563.01V245.9h.094c.146,0,.25,0,.25-.173v-1.351c0-.3-.182-.443-.479-.443a1.394,1.394,0,0,0-.605.25v1.544c0,.173.115.173.262.173h.094v.136c-.183,0-.365-.01-.553-.01s-.376.005-.563.01V245.9h.094c.146,0,.25,0,.25-.173v-1.382Z" transform="translate(-58.468 -8.799)"/><path class="c" d="M684.5,244.591a1.262,1.262,0,0,0,0,.3.871.871,0,0,0,.766.9,1,1,0,0,0,.7-.349l.073.073a1.223,1.223,0,0,1-.965.589,1.048,1.048,0,0,1-1-1.137c0-1.022.688-1.325,1.053-1.325a.828.828,0,0,1,.882.819.586.586,0,0,1-.005.094l-.047.031Zm.923-.167h0c.13,0,.146-.068.146-.13a.442.442,0,0,0-.454-.48c-.318,0-.537.234-.6.61Z" transform="translate(-66.596 -8.799)"/><path class="c" d="M692.567,245.9h.141c.146,0,.25,0,.25-.173v-1.465c0-.162-.193-.193-.271-.235v-.078c.381-.162.59-.3.637-.3.031,0,.046.016.046.068v.469h.011c.13-.2.35-.537.667-.537a.284.284,0,0,1,.3.277.253.253,0,0,1-.245.266c-.162,0-.162-.125-.345-.125a.44.44,0,0,0-.38.433v1.225c0,.173.1.173.25.173h.292v.136c-.287-.005-.505-.01-.73-.01s-.433.005-.621.01V245.9Z" transform="translate(-73.027 -8.799)"/><path class="c" d="M700.565,245.306a.687.687,0,0,0,.657.637.368.368,0,0,0,.422-.37c0-.616-1.136-.417-1.136-1.257a.717.717,0,0,1,.808-.668,1.368,1.368,0,0,1,.594.152l.037.532h-.12a.535.535,0,0,0-.569-.516.367.367,0,0,0-.407.344c0,.611,1.21.423,1.21,1.241,0,.344-.277.71-.9.71a1.374,1.374,0,0,1-.636-.177l-.057-.6.094-.027Z" transform="translate(-79.017 -8.799)"/><path class="c" d="M716.287,239.155h-.13a.992.992,0,0,0-1.116-.855,1.486,1.486,0,0,0-1.471,1.653,1.7,1.7,0,0,0,1.554,1.81,1.061,1.061,0,0,0,1.049-.9l.12.031-.12.762a2.926,2.926,0,0,1-1.153.277,1.856,1.856,0,0,1-1.991-1.961A1.917,1.917,0,0,1,715,238.132a3.76,3.76,0,0,1,1.231.277l.052.746Z" transform="translate(-88.533 -4.62)"/><path class="c" d="M727.263,240.884h.1c.146,0,.251,0,.251-.173v-2.9c0-.339-.078-.35-.277-.407v-.084a3.321,3.321,0,0,0,.537-.224.542.542,0,0,1,.114-.057c.032,0,.042.031.042.073v3.6c0,.173.114.173.261.173h.088v.136c-.177,0-.359-.01-.547-.01s-.375.005-.568.01v-.136Z" transform="translate(-99.321 -3.788)"/><path class="c" d="M734.1,245.989c0,.094.057.1.146.1.063,0,.141-.005.209-.005v.11a5.339,5.339,0,0,0-.751.161l-.026-.016v-.422a1.406,1.406,0,0,1-.923.438.562.562,0,0,1-.574-.62V244.4c0-.136-.021-.266-.312-.292v-.1c.188-.005.6-.037.672-.037s.058.037.058.151v1.345c0,.157,0,.605.453.605a1.165,1.165,0,0,0,.631-.318v-1.4c0-.1-.25-.161-.438-.214v-.094c.469-.031.761-.073.813-.073s.042.036.042.094v1.924Z" transform="translate(-102.814 -9.045)"/><path class="c" d="M743.2,239.011a1.317,1.317,0,0,1,.777-.376,1.016,1.016,0,0,1,.97,1.1A1.317,1.317,0,0,1,743.7,241.1a1.54,1.54,0,0,1-.725-.182l-.156.12-.109-.057a6.173,6.173,0,0,0,.073-.928v-2.243c0-.339-.079-.35-.277-.407v-.084a3.29,3.29,0,0,0,.537-.224.542.542,0,0,1,.115-.057c.031,0,.042.031.042.073v1.9Zm0,1.419h0a.561.561,0,0,0,.537.533c.558,0,.793-.548.793-1.012a1,1,0,0,0-.834-1.033.8.8,0,0,0-.5.246v1.267Z" transform="translate(-110.876 -3.788)"/><path class="c" d="M652.463,260.083h.04c.1,0,.21-.014.21-.161v-1.487c0-.148-.108-.162-.21-.162h-.04v-.085c.111,0,.281.011.421.011s.312-.011.445-.011v.085h-.04c-.1,0-.21.014-.21.162v1.487c0,.148.108.161.21.161h.04v.085c-.136,0-.307-.011-.448-.011s-.307.011-.417.011v-.085Z" transform="translate(-42.634 -19.818)"/><path class="c" d="M653.291,260.141c-.137,0-.307-.011-.448-.011s-.306.011-.417.011h-.012v-.11h.052c.1,0,.2-.011.2-.149v-1.487c0-.139-.095-.148-.2-.15h-.052v-.11h.012c.111,0,.282.011.42.011s.311-.011.445-.011h.013v.11h-.052c-.1,0-.2.011-.2.15v1.487c0,.139.095.147.2.149h.052v.11Zm-.012-.024h0v-.061h-.028c-.1,0-.222-.018-.223-.174v-1.487c0-.157.121-.175.223-.175h.028v-.06c-.131,0-.3.011-.433.011s-.3-.01-.407-.011v.06h.027c.1,0,.222.018.222.175v1.487c0,.157-.121.174-.222.174h-.027v.061c.11,0,.27-.011.4-.011s.3.011.436.011Z" transform="translate(-42.596 -19.779)"/><path class="c" d="M658.325,259.609l.006-.006v-1.064a.234.234,0,0,0-.247-.267h-.063v-.085c.134,0,.264.011.4.011.116,0,.233-.011.349-.011v.085h-.042c-.12,0-.253.023-.253.36v1.292a1.87,1.87,0,0,0,.017.286h-.108l-1.461-1.629v1.169c0,.247.048.332.267.332h.048v.085c-.122,0-.244-.011-.366-.011s-.258.011-.386.011v-.085h.04c.2,0,.255-.133.255-.36v-1.2a.254.254,0,0,0-.258-.255h-.037v-.085c.108,0,.218.011.326.011.085,0,.168-.011.253-.011l1.263,1.422Z" transform="translate(-45.681 -19.818)"/><path class="c" d="M658.449,260.185l-.117,0-1.44-1.6v1.137c0,.247.041.317.254.32h.061v.11h-.013c-.123,0-.245-.011-.366-.011s-.257.011-.386.011h-.012v-.11h.052c.188,0,.241-.122.243-.348v-1.2a.243.243,0,0,0-.246-.243h-.05v-.109h.012c.109,0,.22.011.326.011.084,0,.167-.011.262-.007l1.247,1.4V258.5c0-.226-.152-.253-.235-.255h-.075v-.109h.013c.134,0,.265.011.4.011.115,0,.232-.011.349-.011h.012v.109h-.055c-.117,0-.237.014-.241.348v1.291a1.861,1.861,0,0,0,.017.284l0,.015Zm-.108-.025h.094a1.925,1.925,0,0,1-.015-.274v-1.291c0-.341.143-.373.265-.373h.03v-.06c-.112,0-.224.011-.337.011-.13,0-.256-.01-.385-.011v.06h.05a.248.248,0,0,1,.259.28l0,1.072-.006.006-.01.009-1.262-1.427c-.084,0-.166.011-.253.011-.1,0-.21-.01-.313-.011v.06h.025a.267.267,0,0,1,.27.268v1.2c0,.227-.063.372-.267.373h-.027v.061c.123,0,.249-.011.373-.011s.236.01.354.011v-.061h-.036c-.223,0-.279-.1-.279-.345v-1.2l1.474,1.648Zm-.057-.589h0l.009-.008Zm-.006-.005h0l0,0Z" transform="translate(-45.64 -19.78)"/><path class="c" d="M666.58,258.053c-.213,0-.221.051-.264.258h-.085c.011-.079.025-.159.034-.241a1.68,1.68,0,0,0,.017-.241h.068c.023.085.094.082.17.082h1.464c.077,0,.148,0,.154-.088l.068.011c-.011.077-.023.153-.031.23s-.005.153-.005.23l-.085.032c-.006-.1-.02-.273-.21-.273h-.465v1.51c0,.219.1.244.235.244h.054v.086c-.11,0-.31-.011-.462-.011-.17,0-.369.011-.48.011v-.086h.054c.156,0,.236-.014.236-.238v-1.516Z" transform="translate(-53.068 -19.543)"/><path class="c" d="M667.654,259.86c-.112,0-.31-.011-.463-.011-.17,0-.369.011-.48.011H666.7v-.11h.066c.156,0,.219-.006.223-.226v-1.5h-.453V258h.478v1.529c0,.228-.092.251-.248.251h-.042v.06c.112,0,.3-.011.468-.011.148,0,.338.01.45.011v-.06H667.6c-.137,0-.247-.034-.247-.257V258h.478c.19,0,.215.163.221.268l.061-.023c0-.074,0-.148.005-.223s.019-.146.029-.218l-.043-.007c-.013.083-.093.087-.164.086h-1.478c-.067,0-.14,0-.165-.082h-.047a1.641,1.641,0,0,1-.017.23c-.008.078-.021.153-.032.228h.061c.037-.2.062-.262.273-.259v.025c-.21,0-.205.039-.252.249l0,.01h-.109l0-.015c.011-.079.026-.159.034-.241a1.587,1.587,0,0,0,.017-.239v-.012h.09l0,.009c.019.072.072.072.144.073h1.478c.079,0,.137,0,.141-.077v-.013l.013,0,.08.013,0,.012c-.011.076-.023.153-.031.229s-.006.152-.006.229v.009l-.008,0-.1.037v-.016c-.008-.107-.019-.261-.2-.261h-.453v1.5c0,.214.088.229.223.232h.067v.11Z" transform="translate(-53.023 -19.498)"/><path class="c" d="M674.761,260.083h.04c.1,0,.21-.014.21-.161v-1.487c0-.148-.108-.162-.21-.162h-.04v-.085c.173,0,.468.011.706.011s.534-.011.726-.011c0,.122,0,.309.006.434l-.085.023c-.014-.184-.048-.332-.346-.332h-.394v.743h.337c.17,0,.208-.1.224-.25h.085q-.008.167-.008.332c0,.108,0,.215.008.324l-.085.017c-.017-.17-.025-.281-.221-.281h-.34v.661c0,.185.164.185.346.185.341,0,.491-.023.576-.346l.079.02c-.037.151-.071.3-.1.451-.182,0-.508-.011-.763-.011s-.593.011-.755.011v-.085Z" transform="translate(-59.532 -19.818)"/><path class="c" d="M676.241,260.142c-.182,0-.508-.012-.763-.012s-.593.012-.755.012h-.012v-.11h.052c.1,0,.2-.011.2-.149V258.4c0-.139-.094-.148-.2-.15h-.052v-.109h.012c.173,0,.468.011.706.011s.533-.011.726-.011h.013v.013c0,.043,0,.093,0,.147,0,.1,0,.205.008.286v.01l-.009,0-.1.026v-.015c-.017-.184-.041-.318-.333-.32h-.382V259h.326c.164,0,.193-.085.212-.238v-.011H676v.013c-.005.11-.009.221-.009.332s0,.215.009.323v.01l-.01,0-.1.02v-.013c-.019-.173-.021-.268-.209-.27h-.328v.649c0,.172.149.171.334.172.342,0,.479-.018.564-.337l0-.011.012,0,.091.023,0,.012c-.036.15-.071.3-.1.451l0,.01Zm-.01-.025h0c.024-.143.057-.287.092-.43l-.056-.014c-.085.318-.25.346-.585.344-.179,0-.358,0-.359-.2v-.673h.353c.2,0,.218.117.232.279l.062-.013c-.006-.1-.008-.209-.008-.313s0-.213.008-.32h-.062c-.016.148-.062.252-.235.25h-.35v-.768h.407c.3,0,.344.15.357.329l.061-.016c0-.08-.008-.183-.008-.278,0-.049,0-.094,0-.135-.193,0-.48.011-.714.011s-.52-.01-.694-.011v.06h.028c.1,0,.222.018.222.175v1.487c0,.156-.121.174-.222.175h-.028v.06c.165,0,.493-.011.743-.011s.57.011.753.011Z" transform="translate(-59.494 -19.78)"/><path class="c" d="M682.219,258.487c0-.207-.114-.216-.2-.216h-.051v-.085c.091,0,.267.011.44.011s.307-.011.457-.011c.357,0,.676.1.676.5a.536.536,0,0,1-.394.5l.485.726a.314.314,0,0,0,.275.17v.085c-.094,0-.185-.011-.278-.011s-.179.011-.267.011a7.962,7.962,0,0,1-.591-.92h-.187v.608c0,.219.1.227.232.227h.051v.085c-.162,0-.326-.011-.488-.011-.136,0-.27.011-.411.011v-.085h.051c.105,0,.2-.048.2-.153v-1.442Zm.363.658h.138c.284,0,.437-.108.437-.443a.387.387,0,0,0-.414-.414,1.419,1.419,0,0,0-.161.011v.846Z" transform="translate(-64.993 -19.818)"/><path class="c" d="M683.866,260.141c-.1,0-.185-.011-.279-.011s-.177.011-.276.007a7.956,7.956,0,0,1-.588-.915h-.168v.595c0,.214.089.212.22.215h.063v.11h-.013c-.162,0-.327-.011-.488-.011-.136,0-.269.011-.411.011h-.012v-.11h.063c.1,0,.188-.045.189-.141v-1.442c0-.2-.1-.2-.189-.2h-.063v-.11h.012c.092,0,.267.011.44.011s.306-.011.457-.011c.358,0,.687.1.688.512a.544.544,0,0,1-.388.506l.477.714a.3.3,0,0,0,.267.165h.01v.108Zm-1.322-.944h.194l0,.006a8.847,8.847,0,0,0,.58.914c.087,0,.178-.012.266-.012s.178.01.266.011v-.062a.325.325,0,0,1-.273-.174l-.494-.739.014-.006a.522.522,0,0,0,.386-.488c0-.394-.306-.485-.663-.487-.15,0-.286.011-.457.011s-.335-.011-.428-.011v.06h.039c.088,0,.214.015.214.228v1.442c0,.114-.107.166-.214.166h-.039v.06c.137,0,.266-.011.4-.011.159,0,.319.011.476.011v-.06h-.039c-.129,0-.245-.016-.245-.24V259.2Zm0-.078h-.012v-.869h.011a1.385,1.385,0,0,1,.163-.011.4.4,0,0,1,.427.427c0,.339-.163.454-.449.454Zm.139-.024h0c.281,0,.422-.1.425-.43a.376.376,0,0,0-.4-.4,1.193,1.193,0,0,0-.149.01v.822Z" transform="translate(-64.954 -19.779)"/><path class="c" d="M692.163,259.609l.005-.006v-1.064a.234.234,0,0,0-.247-.267h-.062v-.085c.133,0,.263.011.4.011.116,0,.232-.011.349-.011v.085h-.043c-.119,0-.253.023-.253.36v1.292a1.9,1.9,0,0,0,.017.286h-.108l-1.461-1.629v1.169c0,.247.048.332.267.332h.048v.085c-.122,0-.244-.011-.366-.011s-.259.011-.386.011v-.085h.039c.2,0,.256-.133.256-.36v-1.2a.254.254,0,0,0-.258-.255h-.037v-.085c.107,0,.219.011.326.011.085,0,.167-.011.253-.011l1.263,1.422Z" transform="translate(-71.324 -19.818)"/><path class="c" d="M692.287,260.183l-.117,0-1.44-1.605v1.137c0,.247.041.317.255.32h.06v.11h-.012c-.123,0-.245-.012-.366-.012s-.258.012-.385.012h-.013v-.11h.052c.188,0,.241-.122.243-.349v-1.195a.243.243,0,0,0-.245-.243h-.05v-.11h.013c.108,0,.219.011.326.011.083,0,.166-.011.261-.007l1.247,1.4V258.5c0-.225-.152-.254-.234-.255h-.075v-.11h.012c.134,0,.265.011.4.011.116,0,.232-.011.349-.011h.012v.11h-.054c-.117,0-.238.014-.24.348v1.291a1.813,1.813,0,0,0,.017.285l0,.014Zm-.108-.025h.093a1.95,1.95,0,0,1-.015-.274v-1.291c0-.341.144-.372.265-.373h.03v-.06c-.111,0-.224.011-.337.011-.13,0-.257-.01-.385-.011v.06h.051a.249.249,0,0,1,.259.279l0,1.073-.005.006-.009.009-1.263-1.427c-.084,0-.167.011-.252.011-.105,0-.211-.01-.315-.011v.06h.025a.268.268,0,0,1,.27.268v1.195c0,.228-.064.373-.268.374h-.028v.06c.122,0,.249-.011.374-.011s.237.01.354.011v-.06h-.036c-.224,0-.279-.1-.28-.345v-1.2l1.474,1.648Zm-.057-.589h0l.008-.008Zm-.007-.005h0l0,0Z" transform="translate(-71.284 -19.779)"/><path class="c" d="M700.173,259.539a1.14,1.14,0,0,0-.063.221c0,.085.12.1.213.1h.032v.085c-.114-.006-.23-.011-.344-.011s-.2.005-.306.011v-.085h.017a.257.257,0,0,0,.247-.185l.454-1.3a2.418,2.418,0,0,0,.105-.352,1.428,1.428,0,0,0,.258-.122.066.066,0,0,1,.023-.006.02.02,0,0,1,.02.009c.008.023.017.048.026.071l.522,1.484c.034.1.068.2.1.29a.181.181,0,0,0,.188.113h.017v.085c-.128-.006-.255-.011-.391-.011s-.281.005-.426.011v-.085h.031c.065,0,.176-.011.176-.082a.908.908,0,0,0-.057-.2l-.11-.329h-.644l-.091.3Zm.414-1.257h-.006l-.264.8h.53Z" transform="translate(-78.436 -19.596)"/><path class="c" d="M701.646,259.919c-.128-.006-.255-.012-.391-.012s-.28.006-.426.012h-.013v-.111h.044c.066,0,.163-.015.163-.069a.893.893,0,0,0-.056-.2l-.108-.321h-.626l-.088.287a1.206,1.206,0,0,0-.063.218c0,.069.107.086.2.086h.044v.111h-.013c-.113-.006-.229-.012-.342-.012s-.2.006-.306.012h-.013v-.111h.029a.243.243,0,0,0,.235-.176l.454-1.3a3.315,3.315,0,0,0,.113-.36,1.441,1.441,0,0,0,.257-.122.079.079,0,0,1,.028-.007.035.035,0,0,1,.031.016l.025.072.523,1.484c.034.1.067.2.1.288a.166.166,0,0,0,.176.106h.029v.111Zm-.8-.025h0c.141,0,.278-.01.414-.01s.255.006.379.01v-.059h0a.193.193,0,0,1-.2-.121c-.037-.086-.072-.192-.1-.291l-.523-1.484c-.008-.023-.017-.048-.024-.068,0,0,0,0,0,0h-.005a.053.053,0,0,0-.016,0,1.051,1.051,0,0,1-.253.113,2.365,2.365,0,0,1-.106.354l-.454,1.3a.271.271,0,0,1-.258.193h0v.059c.1,0,.2-.01.294-.01s.221.006.33.01v-.059h-.018c-.092,0-.221-.012-.225-.112a1.131,1.131,0,0,1,.063-.225l.012,0-.012,0,.093-.3h.662l.114.337a.862.862,0,0,1,.058.208c0,.087-.124.093-.188.1h-.019v.059Zm-.58-.834h0l.272-.828h.015v.012h0v-.012h.008l.269.828Zm.034-.025h.5l-.247-.76Zm.241-.787h0l.007,0Z" transform="translate(-78.397 -19.557)"/><path class="c" d="M707.306,258.053c-.213,0-.222.051-.264.258h-.085c.011-.079.026-.159.034-.241a1.68,1.68,0,0,0,.017-.241h.068c.023.085.094.082.17.082h1.465c.076,0,.147,0,.153-.088l.068.011c-.011.077-.022.153-.031.23s-.006.153-.006.23l-.085.032c-.005-.1-.02-.273-.21-.273h-.465v1.51c0,.219.1.244.235.244h.054v.086c-.111,0-.309-.011-.462-.011-.17,0-.369.011-.479.011v-.086h.054c.156,0,.236-.014.236-.238v-1.516Z" transform="translate(-83.932 -19.543)"/><path class="c" d="M708.38,259.86c-.111,0-.31-.011-.462-.011-.169,0-.368.011-.479.011h-.013v-.11h.066c.156,0,.219-.006.223-.226v-1.5h-.452V258h.477v1.529c0,.228-.092.25-.248.251h-.042v.061c.112,0,.3-.011.467-.011.148,0,.338.01.45.011v-.061h-.042c-.136,0-.247-.033-.247-.257V258h.478c.191,0,.216.163.221.268l.062-.023c0-.074,0-.148.006-.223s.018-.146.029-.218l-.043-.007c-.013.083-.093.087-.164.086h-1.479c-.067,0-.139,0-.165-.083h-.046a1.715,1.715,0,0,1-.017.231c-.007.078-.021.154-.032.228h.061c.037-.2.062-.262.274-.259v.025c-.21,0-.206.039-.252.249l0,.01H706.9l0-.014c.012-.08.026-.159.034-.241a1.639,1.639,0,0,0,.017-.239v-.012h.09l0,.009c.02.071.072.072.144.073h1.479c.078,0,.135,0,.14-.077v-.014l.013,0,.081.013,0,.012c-.012.076-.022.153-.031.229s-.006.153-.006.229v.009l-.008,0-.1.037v-.016c-.007-.107-.018-.261-.2-.261H708.1v1.5c0,.214.088.229.223.232h.066v.11Z" transform="translate(-83.887 -19.498)"/><path class="c" d="M715.545,260.083h.04c.1,0,.21-.014.21-.161v-1.487c0-.148-.107-.162-.21-.162h-.04v-.085c.111,0,.281.011.42.011s.313-.011.446-.011v.085h-.04c-.1,0-.211.014-.211.162v1.487c0,.148.108.161.211.161h.04v.085c-.136,0-.307-.011-.448-.011s-.307.011-.417.011v-.085Z" transform="translate(-90.44 -19.818)"/><path class="c" d="M716.373,260.142c-.137,0-.307-.012-.448-.012s-.307.012-.417.012h-.012v-.11h.052c.1,0,.2-.01.2-.149V258.4c0-.139-.094-.148-.2-.15h-.052v-.109h.012c.111,0,.281.011.419.011s.312-.011.446-.011h.012v.109h-.052c-.1,0-.2.012-.2.15v1.487c0,.139.094.148.2.149h.052v.11Zm-.013-.025h0v-.06h-.027c-.1,0-.222-.018-.222-.174V258.4c0-.157.12-.175.222-.175h.027v-.06c-.131,0-.295.011-.433.011s-.3-.01-.407-.011v.06h.027c.1,0,.222.018.222.175v1.487c0,.156-.121.174-.222.174h-.027v.06c.109,0,.27-.011.4-.011s.3.01.436.011Z" transform="translate(-90.402 -19.78)"/><path class="c" d="M720.518,258.011a1,1,0,0,1,1.087.98,1.041,1.041,0,0,1-1.072,1.087,1,1,0,0,1-1.061-1.019,1.032,1.032,0,0,1,1.047-1.047Zm.043,1.941h0c.551,0,.647-.486.647-.9s-.224-.917-.695-.917c-.5,0-.644.443-.644.823,0,.508.233.994.692.994Z" transform="translate(-93.416 -19.685)"/><path class="c" d="M719.419,259.02a1.047,1.047,0,0,1,1.059-1.06v.025a1.021,1.021,0,0,0-1.035,1.035.991.991,0,0,0,1.05,1.006,1.029,1.029,0,0,0,1.061-1.075.984.984,0,0,0-1.075-.967v-.025a1.009,1.009,0,0,1,1.1.991,1.055,1.055,0,0,1-1.085,1.1,1.017,1.017,0,0,1-1.074-1.031Zm.4-.1h0c0-.382.15-.835.656-.835.482,0,.707.513.707.93s-.1.911-.659.911V259.9c.54,0,.633-.474.634-.888s-.222-.9-.683-.9c-.487,0-.631.432-.632.81,0,.506.231.98.68.982v.024c-.471,0-.7-.494-.7-1.006Z" transform="translate(-93.376 -19.646)"/><path class="c" d="M730.415,259.609l.006-.006v-1.064a.234.234,0,0,0-.247-.267h-.061v-.085c.133,0,.263.011.4.011.117,0,.233-.011.349-.011v.085h-.043c-.119,0-.252.023-.252.36v1.292a1.847,1.847,0,0,0,.017.286h-.107l-1.462-1.629v1.169c0,.247.048.332.266.332h.049v.085c-.122,0-.244-.011-.366-.011s-.258.011-.386.011v-.085h.04c.2,0,.255-.133.255-.36v-1.2a.254.254,0,0,0-.258-.255h-.037v-.085c.108,0,.219.011.326.011.085,0,.167-.011.253-.011l1.263,1.422Z" transform="translate(-100.313 -19.818)"/><path class="c" d="M730.542,260.185l-.117,0-1.44-1.6v1.137c0,.247.041.317.254.319h.062v.11h-.012c-.123,0-.245-.011-.366-.011s-.257.011-.386.011h-.012v-.11h.052c.187,0,.241-.121.243-.347v-1.2a.242.242,0,0,0-.246-.243h-.049v-.109h.012c.109,0,.219.011.326.011.084,0,.166-.011.262-.007l1.247,1.4V258.5c0-.226-.152-.253-.235-.255h-.075v-.109h.013c.134,0,.264.011.4.011.116,0,.232-.011.35-.011h.012v.109h-.055c-.117,0-.238.014-.24.348v1.291a1.879,1.879,0,0,0,.016.285l0,.014h-.014Zm-.108-.025h.093a1.916,1.916,0,0,1-.015-.274v-1.291c0-.341.143-.372.265-.373h.031v-.06c-.112,0-.224.011-.338.011-.129,0-.256-.01-.385-.011v.06h.05a.249.249,0,0,1,.259.28l0,1.072-.005.006-.009.009-1.263-1.427c-.084,0-.166.011-.253.011-.1,0-.211-.01-.314-.011v.06h.025a.268.268,0,0,1,.271.268v1.2c0,.227-.063.372-.268.373h-.028v.06c.123,0,.249-.011.374-.011s.236.01.354.011v-.06h-.037c-.223,0-.279-.1-.279-.345v-1.2l1.474,1.648Zm-.057-.589h0l.009-.008Zm-.007-.005h0l0,0Z" transform="translate(-100.276 -19.78)"/><path class="c" d="M738.428,259.539a1.2,1.2,0,0,0-.062.221c0,.085.119.1.212.1h.032v.085c-.114-.006-.23-.011-.344-.011s-.2.005-.306.011v-.085h.016a.257.257,0,0,0,.247-.185l.455-1.3a2.377,2.377,0,0,0,.1-.352,1.45,1.45,0,0,0,.259-.122.062.062,0,0,1,.022-.006c.008,0,.014,0,.019.009s.018.048.026.071l.522,1.484c.034.1.068.2.105.29a.18.18,0,0,0,.187.113h.017v.085c-.128-.006-.256-.011-.392-.011s-.281.005-.426.011v-.085h.032c.065,0,.176-.011.176-.082a.909.909,0,0,0-.058-.2l-.11-.329h-.644l-.091.3Zm.415-1.257h-.006l-.264.8h.531Z" transform="translate(-107.428 -19.596)"/><path class="c" d="M739.9,259.92c-.128-.005-.255-.011-.391-.011s-.28.006-.425.011h-.013v-.11h.043c.066,0,.164-.016.164-.07a.924.924,0,0,0-.057-.2l-.108-.321h-.626l-.088.287a1.171,1.171,0,0,0-.062.217c0,.07.106.087.2.087h.043v.11h-.013c-.114-.005-.23-.011-.343-.011s-.2.006-.306.011h-.013v-.11h.029a.246.246,0,0,0,.236-.177l.454-1.3a3.69,3.69,0,0,0,.113-.36,1.48,1.48,0,0,0,.258-.122.078.078,0,0,1,.027-.006.032.032,0,0,1,.031.016c.008.022.017.048.026.071l.522,1.484c.034.1.068.2.1.289a.167.167,0,0,0,.175.106h.03v.11Zm-.8-.025h0c.14-.005.278-.011.413-.011s.256.006.379.01v-.059h0a.194.194,0,0,1-.2-.121c-.037-.086-.071-.192-.105-.291l-.522-1.484c-.008-.023-.017-.048-.024-.068,0,0,0,0,0,0h-.005a.054.054,0,0,0-.016,0,1.08,1.08,0,0,1-.253.113,2.4,2.4,0,0,1-.106.354l-.455,1.3a.27.27,0,0,1-.258.193h0v.059c.1,0,.2-.01.294-.01s.222.006.331.01v-.059h-.019c-.092,0-.222-.011-.225-.112a1.18,1.18,0,0,1,.063-.225l.012,0-.012,0,.093-.3h.662l.114.337a.89.89,0,0,1,.057.208c0,.087-.123.093-.188.095H739.1v.06Zm-.58-.835h0l.272-.828h.015v.012h0v-.012h.009l.268.828Zm.034-.024h.5l-.247-.76-.25.76Zm.241-.787h0l.006,0Z" transform="translate(-107.389 -19.558)"/><path class="c" d="M747.164,259.89c0,.114.079.147.169.159a2.042,2.042,0,0,0,.375-.006.406.406,0,0,0,.272-.153.637.637,0,0,0,.088-.2h.082c-.031.162-.071.321-.105.483-.249,0-.5-.011-.749-.011s-.5.011-.749.011v-.085h.039c.1,0,.214-.014.214-.19v-1.459c0-.148-.111-.162-.214-.162h-.039v-.085c.15,0,.3.011.448.011s.287-.011.432-.011v.085h-.071c-.107,0-.192,0-.192.153v1.465Z" transform="translate(-113.936 -19.818)"/><path class="c" d="M748.007,260.142c-.25,0-.5-.011-.749-.011s-.5.011-.75.011H746.5v-.11h.052c.1,0,.2-.009.2-.178V258.4c0-.138-.1-.147-.2-.149H746.5v-.109h.012c.151,0,.3.011.449.011s.286-.011.432-.011h.012v.109h-.083c-.11,0-.178,0-.181.141v1.465c0,.106.07.134.159.147.05,0,.1.006.157.006a1.987,1.987,0,0,0,.215-.011.4.4,0,0,0,.264-.148.637.637,0,0,0,.086-.2l0-.009h.107l0,.015c-.032.162-.071.321-.105.482l0,.01Zm-.01-.025h0c.033-.154.07-.3.1-.458h-.058a.651.651,0,0,1-.087.2.421.421,0,0,1-.281.158c-.074.008-.148.012-.218.012s-.108,0-.16-.006c-.092-.01-.182-.049-.182-.171v-1.465c0-.158.1-.166.206-.166h.059v-.06c-.14,0-.278.011-.419.011s-.291-.01-.436-.011v.06h.027c.1,0,.225.018.225.174v1.459c0,.184-.123.2-.225.2h-.027v.06c.245,0,.491-.011.737-.011s.493.011.739.011Z" transform="translate(-113.896 -19.78)"/><path class="c" d="M752.09,257.854a.3.3,0,1,1-.3.3A.294.294,0,0,1,752.09,257.854Zm0,.542h0a.243.243,0,1,0-.237-.242A.241.241,0,0,0,752.09,258.4Zm-.149-.085h0V258.3c.037-.005.044,0,.044-.027v-.221c0-.031,0-.042-.042-.04v-.015h.153c.053,0,.1.025.1.079a.094.094,0,0,1-.071.09l.049.069a.3.3,0,0,0,.066.07v.01h-.058c-.028,0-.052-.059-.107-.138h-.033v.1c0,.02.007.018.044.023v.015Zm.1-.157h.035c.038,0,.057-.029.057-.076a.056.056,0,0,0-.059-.064h-.033Z" transform="translate(-117.909 -19.566)"/><path class="d" d="M603.54,241.954a5.153,5.153,0,0,0,5.185-4.916,5.064,5.064,0,0,0-5.185-5h-2.333a4.891,4.891,0,0,0-5,5,4.968,4.968,0,0,0,5,4.916Z" transform="translate(0 0)"/><path class="b" d="M602.7,233.728a4.54,4.54,0,1,0,4.539,4.54A4.54,4.54,0,0,0,602.7,233.728Zm-2.877,4.54h0a2.882,2.882,0,0,1,1.847-2.686v5.37A2.881,2.881,0,0,1,599.824,238.268Zm3.906,2.686h0v-5.372a2.876,2.876,0,0,1,0,5.372Z" transform="translate(-1.482 -1.282)"/><path class="c" d="M652.967,239.035c0-.469-.245-.438-.479-.443v-.136c.2.01.412.01.615.01.219,0,.516-.01.9-.01a1.9,1.9,0,0,1,2.085,1.826c0,.517-.3,1.815-2.148,1.815-.266,0-.511-.01-.756-.01s-.464.005-.7.01v-.135c.313-.031.464-.042.479-.4v-2.53Zm.511,2.447h0c0,.4.287.448.542.448a1.453,1.453,0,0,0,1.5-1.628,1.567,1.567,0,0,0-1.632-1.679c-.214,0-.312.015-.407.021v2.837Z" transform="translate(-42.653 -4.865)"/><path class="c" d="M668.124,241.781h.1c.146,0,.25,0,.25-.173V240.2c0-.229-.078-.261-.271-.365v-.084c.245-.074.537-.172.558-.188a.185.185,0,0,1,.094-.026c.026,0,.037.031.037.073v2c0,.173.115.173.261.173h.089v.136c-.177,0-.36-.01-.547-.01s-.376.005-.568.01v-.136Zm.558-3.051h0a.256.256,0,0,1,0-.512.255.255,0,0,1,.255.251A.261.261,0,0,1,668.682,238.73Z" transform="translate(-54.503 -4.685)"/><path class="c" d="M673.7,244.341c0-.193-.058-.245-.3-.344v-.1a6.926,6.926,0,0,0,.688-.251c.016,0,.031.011.031.052v.339a1.53,1.53,0,0,1,.9-.391c.443,0,.6.324.6.73v1.345c0,.173.115.173.261.173h.094v.136c-.183,0-.365-.01-.553-.01s-.376.005-.563.01V245.9h.094c.146,0,.25,0,.25-.173v-1.351c0-.3-.182-.443-.479-.443a1.394,1.394,0,0,0-.605.25v1.544c0,.173.115.173.262.173h.094v.136c-.183,0-.365-.01-.553-.01s-.376.005-.563.01V245.9h.094c.146,0,.25,0,.25-.173v-1.382Z" transform="translate(-58.468 -8.799)"/><path class="c" d="M684.5,244.591a1.262,1.262,0,0,0,0,.3.871.871,0,0,0,.766.9,1,1,0,0,0,.7-.349l.073.073a1.223,1.223,0,0,1-.965.589,1.048,1.048,0,0,1-1-1.137c0-1.022.688-1.325,1.053-1.325a.828.828,0,0,1,.882.819.586.586,0,0,1-.005.094l-.047.031Zm.923-.167h0c.13,0,.146-.068.146-.13a.442.442,0,0,0-.454-.48c-.318,0-.537.234-.6.61Z" transform="translate(-66.596 -8.799)"/><path class="c" d="M692.567,245.9h.141c.146,0,.25,0,.25-.173v-1.465c0-.162-.193-.193-.271-.235v-.078c.381-.162.59-.3.637-.3.031,0,.046.016.046.068v.469h.011c.13-.2.35-.537.667-.537a.284.284,0,0,1,.3.277.253.253,0,0,1-.245.266c-.162,0-.162-.125-.345-.125a.44.44,0,0,0-.38.433v1.225c0,.173.1.173.25.173h.292v.136c-.287-.005-.505-.01-.73-.01s-.433.005-.621.01V245.9Z" transform="translate(-73.027 -8.799)"/><path class="c" d="M700.565,245.306a.687.687,0,0,0,.657.637.368.368,0,0,0,.422-.37c0-.616-1.136-.417-1.136-1.257a.717.717,0,0,1,.808-.668,1.368,1.368,0,0,1,.594.152l.037.532h-.12a.535.535,0,0,0-.569-.516.367.367,0,0,0-.407.344c0,.611,1.21.423,1.21,1.241,0,.344-.277.71-.9.71a1.374,1.374,0,0,1-.636-.177l-.057-.6.094-.027Z" transform="translate(-79.017 -8.799)"/><path class="c" d="M716.287,239.155h-.13a.992.992,0,0,0-1.116-.855,1.486,1.486,0,0,0-1.471,1.653,1.7,1.7,0,0,0,1.554,1.81,1.061,1.061,0,0,0,1.049-.9l.12.031-.12.762a2.926,2.926,0,0,1-1.153.277,1.856,1.856,0,0,1-1.991-1.961A1.917,1.917,0,0,1,715,238.132a3.76,3.76,0,0,1,1.231.277l.052.746Z" transform="translate(-88.533 -4.62)"/><path class="c" d="M727.263,240.884h.1c.146,0,.251,0,.251-.173v-2.9c0-.339-.078-.35-.277-.407v-.084a3.321,3.321,0,0,0,.537-.224.542.542,0,0,1,.114-.057c.032,0,.042.031.042.073v3.6c0,.173.114.173.261.173h.088v.136c-.177,0-.359-.01-.547-.01s-.375.005-.568.01v-.136Z" transform="translate(-99.321 -3.788)"/><path class="c" d="M734.1,245.989c0,.094.057.1.146.1.063,0,.141-.005.209-.005v.11a5.339,5.339,0,0,0-.751.161l-.026-.016v-.422a1.406,1.406,0,0,1-.923.438.562.562,0,0,1-.574-.62V244.4c0-.136-.021-.266-.312-.292v-.1c.188-.005.6-.037.672-.037s.058.037.058.151v1.345c0,.157,0,.605.453.605a1.165,1.165,0,0,0,.631-.318v-1.4c0-.1-.25-.161-.438-.214v-.094c.469-.031.761-.073.813-.073s.042.036.042.094v1.924Z" transform="translate(-102.814 -9.045)"/><path class="c" d="M743.2,239.011a1.317,1.317,0,0,1,.777-.376,1.016,1.016,0,0,1,.97,1.1A1.317,1.317,0,0,1,743.7,241.1a1.54,1.54,0,0,1-.725-.182l-.156.12-.109-.057a6.173,6.173,0,0,0,.073-.928v-2.243c0-.339-.079-.35-.277-.407v-.084a3.29,3.29,0,0,0,.537-.224.542.542,0,0,1,.115-.057c.031,0,.042.031.042.073v1.9Zm0,1.419h0a.561.561,0,0,0,.537.533c.558,0,.793-.548.793-1.012a1,1,0,0,0-.834-1.033.8.8,0,0,0-.5.246v1.267Z" transform="translate(-110.876 -3.788)"/><path class="c" d="M652.463,260.083h.04c.1,0,.21-.014.21-.161v-1.487c0-.148-.108-.162-.21-.162h-.04v-.085c.111,0,.281.011.421.011s.312-.011.445-.011v.085h-.04c-.1,0-.21.014-.21.162v1.487c0,.148.108.161.21.161h.04v.085c-.136,0-.307-.011-.448-.011s-.307.011-.417.011v-.085Z" transform="translate(-42.634 -19.818)"/><path class="c" d="M653.291,260.141c-.137,0-.307-.011-.448-.011s-.306.011-.417.011h-.012v-.11h.052c.1,0,.2-.011.2-.149v-1.487c0-.139-.095-.148-.2-.15h-.052v-.11h.012c.111,0,.282.011.42.011s.311-.011.445-.011h.013v.11h-.052c-.1,0-.2.011-.2.15v1.487c0,.139.095.147.2.149h.052v.11Zm-.012-.024h0v-.061h-.028c-.1,0-.222-.018-.223-.174v-1.487c0-.157.121-.175.223-.175h.028v-.06c-.131,0-.3.011-.433.011s-.3-.01-.407-.011v.06h.027c.1,0,.222.018.222.175v1.487c0,.157-.121.174-.222.174h-.027v.061c.11,0,.27-.011.4-.011s.3.011.436.011Z" transform="translate(-42.596 -19.779)"/><path class="c" d="M658.325,259.609l.006-.006v-1.064a.234.234,0,0,0-.247-.267h-.063v-.085c.134,0,.264.011.4.011.116,0,.233-.011.349-.011v.085h-.042c-.12,0-.253.023-.253.36v1.292a1.87,1.87,0,0,0,.017.286h-.108l-1.461-1.629v1.169c0,.247.048.332.267.332h.048v.085c-.122,0-.244-.011-.366-.011s-.258.011-.386.011v-.085h.04c.2,0,.255-.133.255-.36v-1.2a.254.254,0,0,0-.258-.255h-.037v-.085c.108,0,.218.011.326.011.085,0,.168-.011.253-.011l1.263,1.422Z" transform="translate(-45.681 -19.818)"/><path class="c" d="M658.449,260.185l-.117,0-1.44-1.6v1.137c0,.247.041.317.254.32h.061v.11h-.013c-.123,0-.245-.011-.366-.011s-.257.011-.386.011h-.012v-.11h.052c.188,0,.241-.122.243-.348v-1.2a.243.243,0,0,0-.246-.243h-.05v-.109h.012c.109,0,.22.011.326.011.084,0,.167-.011.262-.007l1.247,1.4V258.5c0-.226-.152-.253-.235-.255h-.075v-.109h.013c.134,0,.265.011.4.011.115,0,.232-.011.349-.011h.012v.109h-.055c-.117,0-.237.014-.241.348v1.291a1.861,1.861,0,0,0,.017.284l0,.015Zm-.108-.025h.094a1.925,1.925,0,0,1-.015-.274v-1.291c0-.341.143-.373.265-.373h.03v-.06c-.112,0-.224.011-.337.011-.13,0-.256-.01-.385-.011v.06h.05a.248.248,0,0,1,.259.28l0,1.072-.006.006-.01.009-1.262-1.427c-.084,0-.166.011-.253.011-.1,0-.21-.01-.313-.011v.06h.025a.267.267,0,0,1,.27.268v1.2c0,.227-.063.372-.267.373h-.027v.061c.123,0,.249-.011.373-.011s.236.01.354.011v-.061h-.036c-.223,0-.279-.1-.279-.345v-1.2l1.474,1.648Zm-.057-.589h0l.009-.008Zm-.006-.005h0l0,0Z" transform="translate(-45.64 -19.78)"/><path class="c" d="M666.58,258.053c-.213,0-.221.051-.264.258h-.085c.011-.079.025-.159.034-.241a1.68,1.68,0,0,0,.017-.241h.068c.023.085.094.082.17.082h1.464c.077,0,.148,0,.154-.088l.068.011c-.011.077-.023.153-.031.23s-.005.153-.005.23l-.085.032c-.006-.1-.02-.273-.21-.273h-.465v1.51c0,.219.1.244.235.244h.054v.086c-.11,0-.31-.011-.462-.011-.17,0-.369.011-.48.011v-.086h.054c.156,0,.236-.014.236-.238v-1.516Z" transform="translate(-53.068 -19.543)"/><path class="c" d="M667.654,259.86c-.112,0-.31-.011-.463-.011-.17,0-.369.011-.48.011H666.7v-.11h.066c.156,0,.219-.006.223-.226v-1.5h-.453V258h.478v1.529c0,.228-.092.251-.248.251h-.042v.06c.112,0,.3-.011.468-.011.148,0,.338.01.45.011v-.06H667.6c-.137,0-.247-.034-.247-.257V258h.478c.19,0,.215.163.221.268l.061-.023c0-.074,0-.148.005-.223s.019-.146.029-.218l-.043-.007c-.013.083-.093.087-.164.086h-1.478c-.067,0-.14,0-.165-.082h-.047a1.641,1.641,0,0,1-.017.23c-.008.078-.021.153-.032.228h.061c.037-.2.062-.262.273-.259v.025c-.21,0-.205.039-.252.249l0,.01h-.109l0-.015c.011-.079.026-.159.034-.241a1.587,1.587,0,0,0,.017-.239v-.012h.09l0,.009c.019.072.072.072.144.073h1.478c.079,0,.137,0,.141-.077v-.013l.013,0,.08.013,0,.012c-.011.076-.023.153-.031.229s-.006.152-.006.229v.009l-.008,0-.1.037v-.016c-.008-.107-.019-.261-.2-.261h-.453v1.5c0,.214.088.229.223.232h.067v.11Z" transform="translate(-53.023 -19.498)"/><path class="c" d="M674.761,260.083h.04c.1,0,.21-.014.21-.161v-1.487c0-.148-.108-.162-.21-.162h-.04v-.085c.173,0,.468.011.706.011s.534-.011.726-.011c0,.122,0,.309.006.434l-.085.023c-.014-.184-.048-.332-.346-.332h-.394v.743h.337c.17,0,.208-.1.224-.25h.085q-.008.167-.008.332c0,.108,0,.215.008.324l-.085.017c-.017-.17-.025-.281-.221-.281h-.34v.661c0,.185.164.185.346.185.341,0,.491-.023.576-.346l.079.02c-.037.151-.071.3-.1.451-.182,0-.508-.011-.763-.011s-.593.011-.755.011v-.085Z" transform="translate(-59.532 -19.818)"/><path class="c" d="M676.241,260.142c-.182,0-.508-.012-.763-.012s-.593.012-.755.012h-.012v-.11h.052c.1,0,.2-.011.2-.149V258.4c0-.139-.094-.148-.2-.15h-.052v-.109h.012c.173,0,.468.011.706.011s.533-.011.726-.011h.013v.013c0,.043,0,.093,0,.147,0,.1,0,.205.008.286v.01l-.009,0-.1.026v-.015c-.017-.184-.041-.318-.333-.32h-.382V259h.326c.164,0,.193-.085.212-.238v-.011H676v.013c-.005.11-.009.221-.009.332s0,.215.009.323v.01l-.01,0-.1.02v-.013c-.019-.173-.021-.268-.209-.27h-.328v.649c0,.172.149.171.334.172.342,0,.479-.018.564-.337l0-.011.012,0,.091.023,0,.012c-.036.15-.071.3-.1.451l0,.01Zm-.01-.025h0c.024-.143.057-.287.092-.43l-.056-.014c-.085.318-.25.346-.585.344-.179,0-.358,0-.359-.2v-.673h.353c.2,0,.218.117.232.279l.062-.013c-.006-.1-.008-.209-.008-.313s0-.213.008-.32h-.062c-.016.148-.062.252-.235.25h-.35v-.768h.407c.3,0,.344.15.357.329l.061-.016c0-.08-.008-.183-.008-.278,0-.049,0-.094,0-.135-.193,0-.48.011-.714.011s-.52-.01-.694-.011v.06h.028c.1,0,.222.018.222.175v1.487c0,.156-.121.174-.222.175h-.028v.06c.165,0,.493-.011.743-.011s.57.011.753.011Z" transform="translate(-59.494 -19.78)"/><path class="c" d="M682.219,258.487c0-.207-.114-.216-.2-.216h-.051v-.085c.091,0,.267.011.44.011s.307-.011.457-.011c.357,0,.676.1.676.5a.536.536,0,0,1-.394.5l.485.726a.314.314,0,0,0,.275.17v.085c-.094,0-.185-.011-.278-.011s-.179.011-.267.011a7.962,7.962,0,0,1-.591-.92h-.187v.608c0,.219.1.227.232.227h.051v.085c-.162,0-.326-.011-.488-.011-.136,0-.27.011-.411.011v-.085h.051c.105,0,.2-.048.2-.153v-1.442Zm.363.658h.138c.284,0,.437-.108.437-.443a.387.387,0,0,0-.414-.414,1.419,1.419,0,0,0-.161.011v.846Z" transform="translate(-64.993 -19.818)"/><path class="c" d="M683.866,260.141c-.1,0-.185-.011-.279-.011s-.177.011-.276.007a7.956,7.956,0,0,1-.588-.915h-.168v.595c0,.214.089.212.22.215h.063v.11h-.013c-.162,0-.327-.011-.488-.011-.136,0-.269.011-.411.011h-.012v-.11h.063c.1,0,.188-.045.189-.141v-1.442c0-.2-.1-.2-.189-.2h-.063v-.11h.012c.092,0,.267.011.44.011s.306-.011.457-.011c.358,0,.687.1.688.512a.544.544,0,0,1-.388.506l.477.714a.3.3,0,0,0,.267.165h.01v.108Zm-1.322-.944h.194l0,.006a8.847,8.847,0,0,0,.58.914c.087,0,.178-.012.266-.012s.178.01.266.011v-.062a.325.325,0,0,1-.273-.174l-.494-.739.014-.006a.522.522,0,0,0,.386-.488c0-.394-.306-.485-.663-.487-.15,0-.286.011-.457.011s-.335-.011-.428-.011v.06h.039c.088,0,.214.015.214.228v1.442c0,.114-.107.166-.214.166h-.039v.06c.137,0,.266-.011.4-.011.159,0,.319.011.476.011v-.06h-.039c-.129,0-.245-.016-.245-.24V259.2Zm0-.078h-.012v-.869h.011a1.385,1.385,0,0,1,.163-.011.4.4,0,0,1,.427.427c0,.339-.163.454-.449.454Zm.139-.024h0c.281,0,.422-.1.425-.43a.376.376,0,0,0-.4-.4,1.193,1.193,0,0,0-.149.01v.822Z" transform="translate(-64.954 -19.779)"/><path class="c" d="M692.163,259.609l.005-.006v-1.064a.234.234,0,0,0-.247-.267h-.062v-.085c.133,0,.263.011.4.011.116,0,.232-.011.349-.011v.085h-.043c-.119,0-.253.023-.253.36v1.292a1.9,1.9,0,0,0,.017.286h-.108l-1.461-1.629v1.169c0,.247.048.332.267.332h.048v.085c-.122,0-.244-.011-.366-.011s-.259.011-.386.011v-.085h.039c.2,0,.256-.133.256-.36v-1.2a.254.254,0,0,0-.258-.255h-.037v-.085c.107,0,.219.011.326.011.085,0,.167-.011.253-.011l1.263,1.422Z" transform="translate(-71.324 -19.818)"/><path class="c" d="M692.287,260.183l-.117,0-1.44-1.605v1.137c0,.247.041.317.255.32h.06v.11h-.012c-.123,0-.245-.012-.366-.012s-.258.012-.385.012h-.013v-.11h.052c.188,0,.241-.122.243-.349v-1.195a.243.243,0,0,0-.245-.243h-.05v-.11h.013c.108,0,.219.011.326.011.083,0,.166-.011.261-.007l1.247,1.4V258.5c0-.225-.152-.254-.234-.255h-.075v-.11h.012c.134,0,.265.011.4.011.116,0,.232-.011.349-.011h.012v.11h-.054c-.117,0-.238.014-.24.348v1.291a1.813,1.813,0,0,0,.017.285l0,.014Zm-.108-.025h.093a1.95,1.95,0,0,1-.015-.274v-1.291c0-.341.144-.372.265-.373h.03v-.06c-.111,0-.224.011-.337.011-.13,0-.257-.01-.385-.011v.06h.051a.249.249,0,0,1,.259.279l0,1.073-.005.006-.009.009-1.263-1.427c-.084,0-.167.011-.252.011-.105,0-.211-.01-.315-.011v.06h.025a.268.268,0,0,1,.27.268v1.195c0,.228-.064.373-.268.374h-.028v.06c.122,0,.249-.011.374-.011s.237.01.354.011v-.06h-.036c-.224,0-.279-.1-.28-.345v-1.2l1.474,1.648Zm-.057-.589h0l.008-.008Zm-.007-.005h0l0,0Z" transform="translate(-71.284 -19.779)"/><path class="c" d="M700.173,259.539a1.14,1.14,0,0,0-.063.221c0,.085.12.1.213.1h.032v.085c-.114-.006-.23-.011-.344-.011s-.2.005-.306.011v-.085h.017a.257.257,0,0,0,.247-.185l.454-1.3a2.418,2.418,0,0,0,.105-.352,1.428,1.428,0,0,0,.258-.122.066.066,0,0,1,.023-.006.02.02,0,0,1,.02.009c.008.023.017.048.026.071l.522,1.484c.034.1.068.2.1.29a.181.181,0,0,0,.188.113h.017v.085c-.128-.006-.255-.011-.391-.011s-.281.005-.426.011v-.085h.031c.065,0,.176-.011.176-.082a.908.908,0,0,0-.057-.2l-.11-.329h-.644l-.091.3Zm.414-1.257h-.006l-.264.8h.53Z" transform="translate(-78.436 -19.596)"/><path class="c" d="M701.646,259.919c-.128-.006-.255-.012-.391-.012s-.28.006-.426.012h-.013v-.111h.044c.066,0,.163-.015.163-.069a.893.893,0,0,0-.056-.2l-.108-.321h-.626l-.088.287a1.206,1.206,0,0,0-.063.218c0,.069.107.086.2.086h.044v.111h-.013c-.113-.006-.229-.012-.342-.012s-.2.006-.306.012h-.013v-.111h.029a.243.243,0,0,0,.235-.176l.454-1.3a3.315,3.315,0,0,0,.113-.36,1.441,1.441,0,0,0,.257-.122.079.079,0,0,1,.028-.007.035.035,0,0,1,.031.016l.025.072.523,1.484c.034.1.067.2.1.288a.166.166,0,0,0,.176.106h.029v.111Zm-.8-.025h0c.141,0,.278-.01.414-.01s.255.006.379.01v-.059h0a.193.193,0,0,1-.2-.121c-.037-.086-.072-.192-.1-.291l-.523-1.484c-.008-.023-.017-.048-.024-.068,0,0,0,0,0,0h-.005a.053.053,0,0,0-.016,0,1.051,1.051,0,0,1-.253.113,2.365,2.365,0,0,1-.106.354l-.454,1.3a.271.271,0,0,1-.258.193h0v.059c.1,0,.2-.01.294-.01s.221.006.33.01v-.059h-.018c-.092,0-.221-.012-.225-.112a1.131,1.131,0,0,1,.063-.225l.012,0-.012,0,.093-.3h.662l.114.337a.862.862,0,0,1,.058.208c0,.087-.124.093-.188.1h-.019v.059Zm-.58-.834h0l.272-.828h.015v.012h0v-.012h.008l.269.828Zm.034-.025h.5l-.247-.76Zm.241-.787h0l.007,0Z" transform="translate(-78.397 -19.557)"/><path class="c" d="M707.306,258.053c-.213,0-.222.051-.264.258h-.085c.011-.079.026-.159.034-.241a1.68,1.68,0,0,0,.017-.241h.068c.023.085.094.082.17.082h1.465c.076,0,.147,0,.153-.088l.068.011c-.011.077-.022.153-.031.23s-.006.153-.006.23l-.085.032c-.005-.1-.02-.273-.21-.273h-.465v1.51c0,.219.1.244.235.244h.054v.086c-.111,0-.309-.011-.462-.011-.17,0-.369.011-.479.011v-.086h.054c.156,0,.236-.014.236-.238v-1.516Z" transform="translate(-83.932 -19.543)"/><path class="c" d="M708.38,259.86c-.111,0-.31-.011-.462-.011-.169,0-.368.011-.479.011h-.013v-.11h.066c.156,0,.219-.006.223-.226v-1.5h-.452V258h.477v1.529c0,.228-.092.25-.248.251h-.042v.061c.112,0,.3-.011.467-.011.148,0,.338.01.45.011v-.061h-.042c-.136,0-.247-.033-.247-.257V258h.478c.191,0,.216.163.221.268l.062-.023c0-.074,0-.148.006-.223s.018-.146.029-.218l-.043-.007c-.013.083-.093.087-.164.086h-1.479c-.067,0-.139,0-.165-.083h-.046a1.715,1.715,0,0,1-.017.231c-.007.078-.021.154-.032.228h.061c.037-.2.062-.262.274-.259v.025c-.21,0-.206.039-.252.249l0,.01H706.9l0-.014c.012-.08.026-.159.034-.241a1.639,1.639,0,0,0,.017-.239v-.012h.09l0,.009c.02.071.072.072.144.073h1.479c.078,0,.135,0,.14-.077v-.014l.013,0,.081.013,0,.012c-.012.076-.022.153-.031.229s-.006.153-.006.229v.009l-.008,0-.1.037v-.016c-.007-.107-.018-.261-.2-.261H708.1v1.5c0,.214.088.229.223.232h.066v.11Z" transform="translate(-83.887 -19.498)"/><path class="c" d="M715.545,260.083h.04c.1,0,.21-.014.21-.161v-1.487c0-.148-.107-.162-.21-.162h-.04v-.085c.111,0,.281.011.42.011s.313-.011.446-.011v.085h-.04c-.1,0-.211.014-.211.162v1.487c0,.148.108.161.211.161h.04v.085c-.136,0-.307-.011-.448-.011s-.307.011-.417.011v-.085Z" transform="translate(-90.44 -19.818)"/><path class="c" d="M716.373,260.142c-.137,0-.307-.012-.448-.012s-.307.012-.417.012h-.012v-.11h.052c.1,0,.2-.01.2-.149V258.4c0-.139-.094-.148-.2-.15h-.052v-.109h.012c.111,0,.281.011.419.011s.312-.011.446-.011h.012v.109h-.052c-.1,0-.2.012-.2.15v1.487c0,.139.094.148.2.149h.052v.11Zm-.013-.025h0v-.06h-.027c-.1,0-.222-.018-.222-.174V258.4c0-.157.12-.175.222-.175h.027v-.06c-.131,0-.295.011-.433.011s-.3-.01-.407-.011v.06h.027c.1,0,.222.018.222.175v1.487c0,.156-.121.174-.222.174h-.027v.06c.109,0,.27-.011.4-.011s.3.01.436.011Z" transform="translate(-90.402 -19.78)"/><path class="c" d="M720.518,258.011a1,1,0,0,1,1.087.98,1.041,1.041,0,0,1-1.072,1.087,1,1,0,0,1-1.061-1.019,1.032,1.032,0,0,1,1.047-1.047Zm.043,1.941h0c.551,0,.647-.486.647-.9s-.224-.917-.695-.917c-.5,0-.644.443-.644.823,0,.508.233.994.692.994Z" transform="translate(-93.416 -19.685)"/><path class="c" d="M719.419,259.02a1.047,1.047,0,0,1,1.059-1.06v.025a1.021,1.021,0,0,0-1.035,1.035.991.991,0,0,0,1.05,1.006,1.029,1.029,0,0,0,1.061-1.075.984.984,0,0,0-1.075-.967v-.025a1.009,1.009,0,0,1,1.1.991,1.055,1.055,0,0,1-1.085,1.1,1.017,1.017,0,0,1-1.074-1.031Zm.4-.1h0c0-.382.15-.835.656-.835.482,0,.707.513.707.93s-.1.911-.659.911V259.9c.54,0,.633-.474.634-.888s-.222-.9-.683-.9c-.487,0-.631.432-.632.81,0,.506.231.98.68.982v.024c-.471,0-.7-.494-.7-1.006Z" transform="translate(-93.376 -19.646)"/><path class="c" d="M730.415,259.609l.006-.006v-1.064a.234.234,0,0,0-.247-.267h-.061v-.085c.133,0,.263.011.4.011.117,0,.233-.011.349-.011v.085h-.043c-.119,0-.252.023-.252.36v1.292a1.847,1.847,0,0,0,.017.286h-.107l-1.462-1.629v1.169c0,.247.048.332.266.332h.049v.085c-.122,0-.244-.011-.366-.011s-.258.011-.386.011v-.085h.04c.2,0,.255-.133.255-.36v-1.2a.254.254,0,0,0-.258-.255h-.037v-.085c.108,0,.219.011.326.011.085,0,.167-.011.253-.011l1.263,1.422Z" transform="translate(-100.313 -19.818)"/><path class="c" d="M730.542,260.185l-.117,0-1.44-1.6v1.137c0,.247.041.317.254.319h.062v.11h-.012c-.123,0-.245-.011-.366-.011s-.257.011-.386.011h-.012v-.11h.052c.187,0,.241-.121.243-.347v-1.2a.242.242,0,0,0-.246-.243h-.049v-.109h.012c.109,0,.219.011.326.011.084,0,.166-.011.262-.007l1.247,1.4V258.5c0-.226-.152-.253-.235-.255h-.075v-.109h.013c.134,0,.264.011.4.011.116,0,.232-.011.35-.011h.012v.109h-.055c-.117,0-.238.014-.24.348v1.291a1.879,1.879,0,0,0,.016.285l0,.014h-.014Zm-.108-.025h.093a1.916,1.916,0,0,1-.015-.274v-1.291c0-.341.143-.372.265-.373h.031v-.06c-.112,0-.224.011-.338.011-.129,0-.256-.01-.385-.011v.06h.05a.249.249,0,0,1,.259.28l0,1.072-.005.006-.009.009-1.263-1.427c-.084,0-.166.011-.253.011-.1,0-.211-.01-.314-.011v.06h.025a.268.268,0,0,1,.271.268v1.2c0,.227-.063.372-.268.373h-.028v.06c.123,0,.249-.011.374-.011s.236.01.354.011v-.06h-.037c-.223,0-.279-.1-.279-.345v-1.2l1.474,1.648Zm-.057-.589h0l.009-.008Zm-.007-.005h0l0,0Z" transform="translate(-100.276 -19.78)"/><path class="c" d="M738.428,259.539a1.2,1.2,0,0,0-.062.221c0,.085.119.1.212.1h.032v.085c-.114-.006-.23-.011-.344-.011s-.2.005-.306.011v-.085h.016a.257.257,0,0,0,.247-.185l.455-1.3a2.377,2.377,0,0,0,.1-.352,1.45,1.45,0,0,0,.259-.122.062.062,0,0,1,.022-.006c.008,0,.014,0,.019.009s.018.048.026.071l.522,1.484c.034.1.068.2.105.29a.18.18,0,0,0,.187.113h.017v.085c-.128-.006-.256-.011-.392-.011s-.281.005-.426.011v-.085h.032c.065,0,.176-.011.176-.082a.909.909,0,0,0-.058-.2l-.11-.329h-.644l-.091.3Zm.415-1.257h-.006l-.264.8h.531Z" transform="translate(-107.428 -19.596)"/><path class="c" d="M739.9,259.92c-.128-.005-.255-.011-.391-.011s-.28.006-.425.011h-.013v-.11h.043c.066,0,.164-.016.164-.07a.924.924,0,0,0-.057-.2l-.108-.321h-.626l-.088.287a1.171,1.171,0,0,0-.062.217c0,.07.106.087.2.087h.043v.11h-.013c-.114-.005-.23-.011-.343-.011s-.2.006-.306.011h-.013v-.11h.029a.246.246,0,0,0,.236-.177l.454-1.3a3.69,3.69,0,0,0,.113-.36,1.48,1.48,0,0,0,.258-.122.078.078,0,0,1,.027-.006.032.032,0,0,1,.031.016c.008.022.017.048.026.071l.522,1.484c.034.1.068.2.1.289a.167.167,0,0,0,.175.106h.03v.11Zm-.8-.025h0c.14-.005.278-.011.413-.011s.256.006.379.01v-.059h0a.194.194,0,0,1-.2-.121c-.037-.086-.071-.192-.105-.291l-.522-1.484c-.008-.023-.017-.048-.024-.068,0,0,0,0,0,0h-.005a.054.054,0,0,0-.016,0,1.08,1.08,0,0,1-.253.113,2.4,2.4,0,0,1-.106.354l-.455,1.3a.27.27,0,0,1-.258.193h0v.059c.1,0,.2-.01.294-.01s.222.006.331.01v-.059h-.019c-.092,0-.222-.011-.225-.112a1.18,1.18,0,0,1,.063-.225l.012,0-.012,0,.093-.3h.662l.114.337a.89.89,0,0,1,.057.208c0,.087-.123.093-.188.095H739.1v.06Zm-.58-.835h0l.272-.828h.015v.012h0v-.012h.009l.268.828Zm.034-.024h.5l-.247-.76-.25.76Zm.241-.787h0l.006,0Z" transform="translate(-107.389 -19.558)"/><path class="c" d="M747.164,259.89c0,.114.079.147.169.159a2.042,2.042,0,0,0,.375-.006.406.406,0,0,0,.272-.153.637.637,0,0,0,.088-.2h.082c-.031.162-.071.321-.105.483-.249,0-.5-.011-.749-.011s-.5.011-.749.011v-.085h.039c.1,0,.214-.014.214-.19v-1.459c0-.148-.111-.162-.214-.162h-.039v-.085c.15,0,.3.011.448.011s.287-.011.432-.011v.085h-.071c-.107,0-.192,0-.192.153v1.465Z" transform="translate(-113.936 -19.818)"/><path class="c" d="M748.007,260.142c-.25,0-.5-.011-.749-.011s-.5.011-.75.011H746.5v-.11h.052c.1,0,.2-.009.2-.178V258.4c0-.138-.1-.147-.2-.149H746.5v-.109h.012c.151,0,.3.011.449.011s.286-.011.432-.011h.012v.109h-.083c-.11,0-.178,0-.181.141v1.465c0,.106.07.134.159.147.05,0,.1.006.157.006a1.987,1.987,0,0,0,.215-.011.4.4,0,0,0,.264-.148.637.637,0,0,0,.086-.2l0-.009h.107l0,.015c-.032.162-.071.321-.105.482l0,.01Zm-.01-.025h0c.033-.154.07-.3.1-.458h-.058a.651.651,0,0,1-.087.2.421.421,0,0,1-.281.158c-.074.008-.148.012-.218.012s-.108,0-.16-.006c-.092-.01-.182-.049-.182-.171v-1.465c0-.158.1-.166.206-.166h.059v-.06c-.14,0-.278.011-.419.011s-.291-.01-.436-.011v.06h.027c.1,0,.225.018.225.174v1.459c0,.184-.123.2-.225.2h-.027v.06c.245,0,.491-.011.737-.011s.493.011.739.011Z" transform="translate(-113.896 -19.78)"/><path class="c" d="M752.09,257.854a.3.3,0,1,1-.3.3A.294.294,0,0,1,752.09,257.854Zm0,.542h0a.243.243,0,1,0-.237-.242A.241.241,0,0,0,752.09,258.4Zm-.149-.085h0V258.3c.037-.005.044,0,.044-.027v-.221c0-.031,0-.042-.042-.04v-.015h.153c.053,0,.1.025.1.079a.094.094,0,0,1-.071.09l.049.069a.3.3,0,0,0,.066.07v.01h-.058c-.028,0-.052-.059-.107-.138h-.033v.1c0,.02.007.018.044.023v.015Zm.1-.157h.035c.038,0,.057-.029.057-.076a.056.056,0,0,0-.059-.064h-.033Z" transform="translate(-117.909 -19.566)"/></g></svg>