<svg xmlns="http://www.w3.org/2000/svg" width="22.5" height="22.291" viewBox="0 0 22.5 22.291"><defs><style>.a{fill:#575757;}.b{fill:#e10518;}</style></defs><g transform="translate(-6114.214 2043.485)"><g transform="translate(6114.214 -2043.485)"><path class="a" d="M6134.36-2032.4v-5.938c-.109.036-.2.065-.29.1q-4.239,1.469-8.479,2.934a.464.464,0,0,1-.282-.009q-5.3-1.836-10.595-3.681l-.155-.055a.435.435,0,0,1-.346-.437c.009-.218.153-.325.356-.4,3.186-1.1,6.382-2.183,9.548-3.345a3.557,3.557,0,0,1,2.637,0c3.124,1.144,6.277,2.205,9.419,3.3.061.021.122.04.181.064.2.081.359.205.353.438a.471.471,0,0,1-.382.442c-.337.11-.671.229-1.013.346v6.245a1.951,1.951,0,0,1,1.279,1.161,1.767,1.767,0,0,1,.031,1.207,1.864,1.864,0,0,1-1.893,1.322,1.871,1.871,0,0,1-1.736-1.557A1.9,1.9,0,0,1,6134.36-2032.4Z" transform="translate(-6114.214 2043.485)"/><path class="a" d="M6199.76-1916.329c.567.2,1.108.382,1.648.57,1.479.516,2.954,1.05,4.443,1.537a1.58,1.58,0,0,0,.931-.015c1.935-.649,3.858-1.333,5.785-2,.076-.026.154-.046.271-.08.006.119.014.214.014.308,0,1.953-.007,3.906.007,5.859a.722.722,0,0,1-.49.756,14.923,14.923,0,0,1-3.544,1.092,15.291,15.291,0,0,1-3.625.174,15.342,15.342,0,0,1-5.082-1.314.554.554,0,0,1-.39-.536q0-3.094,0-6.188A1.149,1.149,0,0,1,6199.76-1916.329Z" transform="translate(-6195.044 1923.293)"/><path class="b" d="M6465.1-1763.189a2.85,2.85,0,0,0,2.792-.005v.342q0,2.847,0,5.694c0,.658-.248.9-.912.9-.383,0-.767,0-1.149,0a.705.705,0,0,1-.748-.734q-.008-3.039,0-6.078A1.018,1.018,0,0,1,6465.1-1763.189Z" transform="translate(-6445.866 1778.545)"/></g><circle class="b" cx="1.871" cy="1.871" r="1.871" transform="translate(6132.925 -2032.453)"/></g></svg>