<svg xmlns="http://www.w3.org/2000/svg" xmlns:xlink="http://www.w3.org/1999/xlink" width="21.792" height="20.196" viewBox="0 0 21.792 20.196"><defs><style>.a,.e{fill:#fff;}.b,.c{fill:#575757;}.b{font-size:1px;font-family:Roboto-Bold, Roboto;font-weight:700;}.d{fill:#e10518;}.e{stroke:rgba(112,112,112,0.3);}.f{fill:#dd141d;opacity:0;}.g{stroke:none;}.h{fill:none;}.i{filter:url(#c);}.j{filter:url(#a);}</style><filter id="a" x="4.502" y="5.477" width="14.478" height="10.898" filterUnits="userSpaceOnUse"><feOffset dy="1" input="SourceAlpha"/><feGaussianBlur stdDeviation="1.5" result="b"/><feFlood flood-opacity="0.251"/><feComposite operator="in" in2="b"/><feComposite in="SourceGraphic"/></filter><filter id="c" x="3.708" y="5.477" width="10.898" height="10.898" filterUnits="userSpaceOnUse"><feOffset dy="1" input="SourceAlpha"/><feGaussianBlur stdDeviation="1.5" result="d"/><feFlood flood-opacity="0.161"/><feComposite operator="in" in2="d"/><feComposite in="SourceGraphic"/></filter></defs><g transform="translate(1467 -959)"><g transform="translate(-1467 959)"><g class="j" transform="matrix(1, 0, 0, 1, 0, 0)"><path class="a" d="M.309,0H5.169a.292.292,0,0,1,.309.271V1.627a.292.292,0,0,1-.309.271H.309A.292.292,0,0,1,0,1.627V.271A.292.292,0,0,1,.309,0Z" transform="translate(9 8.98)"/></g><text class="b" transform="translate(12.943 10.593)"><tspan x="-1.945" y="0">Vivienda</tspan></text><g transform="translate(0 0)"><g class="i" transform="matrix(1, 0, 0, 1, 0, 0)"><path class="a" d="M.949,0A.949.949,0,1,1,0,.949.949.949,0,0,1,.949,0Z" transform="translate(8.21 8.98)"/></g><g transform="translate(0 0.048)"><path class="c" d="M5284.749-1935.251a4.582,4.582,0,0,1,3.157-4.551,4.522,4.522,0,0,1,4.934,1.55,4.51,4.51,0,0,1,.19,5.244l1.823,2.267c.729.9,1.456,1.811,2.191,2.711a.792.792,0,0,1,.185.537c-.006,2.316,0,4.633,0,6.949,0,.539-.144.682-.686.682h-20.411c-.542,0-.688-.145-.688-.68q0-3.411,0-6.821a.915.915,0,0,1,.209-.611c1.832-2.288,3.668-4.573,5.48-6.876a.953.953,0,0,1,.862-.409C5282.9-1935.238,5283.816-1935.251,5284.749-1935.251Zm-1.015,13.894h3.248v.211c0-2.009,0-3.629,0-5.638a.779.779,0,0,0-.183-.533q-1.963-2.419-3.911-4.849c-.395-.49-.79-1.058-1.2-1.562-.062.073-.108.121-.15.173-1.69,2.105-3.122,3.9-4.808,6.009a.557.557,0,0,0-.107.323c0,2.06,0,3.586,0,5.646,0,.073.011.147.017.226h2.012v-4.654c0-.53.135-.661.672-.661h3.744c.525,0,.664.141.664.674v4.636Zm12.326.023v-5.795h-7.728v5.795Zm-10.374-14.23a3.592,3.592,0,0,0,3.571,3.656,3.613,3.613,0,0,0,3.6-3.581,3.607,3.607,0,0,0-3.586-3.6A3.565,3.565,0,0,0,5285.687-1935.564Z" transform="translate(-5275.438 1940.009)"/></g><g transform="translate(9.21)"><g transform="translate(2.423 1.374)"><path class="d" d="M5504.1-1908.407a2.015,2.015,0,0,1-1.214-.369,1.476,1.476,0,0,1-.607-1,.476.476,0,0,1,.365-.583c.286-.045.484.119.538.445.063.384.385.592.9.552,0-.377.006-.759-.008-1.14,0-.046-.109-.105-.179-.129a6.345,6.345,0,0,1-.914-.3,1.208,1.208,0,0,1-.756-1.153,1.381,1.381,0,0,1,.826-1.236,6.688,6.688,0,0,1,1.01-.308c.093-.4.228-.545.511-.524.266.02.384.182.427.551a6.565,6.565,0,0,1,.945.332,1.314,1.314,0,0,1,.742,1.175.45.45,0,0,1-.414.495.453.453,0,0,1-.475-.406.674.674,0,0,0-.783-.589c0,.379-.01.761.011,1.142,0,.058.152.142.241.154a1.855,1.855,0,0,1,.96.449,1.236,1.236,0,0,1,.025,1.958,2.126,2.126,0,0,1-1.209.5c-.111.435-.253.581-.535.551C5504.263-1907.871,5504.132-1908.043,5504.1-1908.407Zm0-4.333a4.243,4.243,0,0,0-.736.325.346.346,0,0,0,.019.625,4.352,4.352,0,0,0,.717.273Zm.945,3.38c.452-.04.773-.281.764-.558-.008-.223-.381-.457-.764-.474Z" transform="translate(-5502.227 1914.157)"/></g><path class="d" d="M5459.548-1939.921a3.542,3.542,0,0,1,3.539,3.538,3.542,3.542,0,0,1-3.539,3.538,3.542,3.542,0,0,1-3.538-3.538,3.542,3.542,0,0,1,3.538-3.538m0-1.026a4.564,4.564,0,0,0-4.563,4.564,4.564,4.564,0,0,0,4.563,4.564,4.564,4.564,0,0,0,4.564-4.564,4.564,4.564,0,0,0-4.564-4.564Z" transform="translate(-5454.984 1940.947)"/></g></g></g><g transform="translate(-1459.158 967.794)"><g class="e"><rect class="g" width="1" height="1" rx="0.5"/><rect class="h" x="0.5" y="0.5"/></g><rect class="f"/></g></g></svg>