<svg xmlns="http://www.w3.org/2000/svg" width="25.029" height="25.029" viewBox="0 0 25.029 25.029"><defs><style>.a,.b{fill:#575757;}.a{fill-rule:evenodd;}.b{stroke:#575757;stroke-width:0.8px;font-size:12px;font-family:HelveticaNeue, Helvetica Neue;letter-spacing:0.06em;}</style></defs><g transform="translate(-61.001 -526)"><path class="a" d="M511.75,514.074H489.067a1.173,1.173,0,0,1-1.173-1.173V493.346a1.173,1.173,0,0,1,1.173-1.173h2.347v1.173a2.737,2.737,0,1,0,5.475,0v-1.173h7.04v1.173a2.738,2.738,0,0,0,5.475,0v-1.173h2.346a1.173,1.173,0,0,1,1.173,1.173V512.9a1.172,1.172,0,0,1-1.173,1.173m-1.173-15.643H490.241v13.3h20.337Zm-3.911-3.911a1.173,1.173,0,0,1-1.173-1.173v-3.129a1.173,1.173,0,0,1,2.347,0v3.129a1.173,1.173,0,0,1-1.173,1.173m-12.514,0a1.173,1.173,0,0,1-1.173-1.173v-3.129a1.173,1.173,0,0,1,2.346,0v3.129a1.172,1.172,0,0,1-1.173,1.173" transform="translate(-426.894 36.955)"/><text class="b" transform="translate(66.655 546.158)"><tspan x="0" y="0">60</tspan></text></g></svg>