<svg xmlns="http://www.w3.org/2000/svg" width="15.139" height="26.653" viewBox="0 0 15.139 26.653"><defs><style>.a{fill:#5b5b5b;}.b{fill:#dd141d;}</style></defs><g transform="translate(-619.727 -385.445)"><path class="a" d="M632.309,426.961a1.967,1.967,0,1,0,1.968-1.968A1.968,1.968,0,0,0,632.309,426.961Z" transform="translate(-10.271 -32.282)"/><path class="a" d="M670.957,432.61a1.786,1.786,0,1,0,1.786-1.786A1.787,1.787,0,0,0,670.957,432.61Z" transform="translate(-41.818 -37.042)"/><path class="a" d="M634.852,456.618c-.222-1.045-.779-2.934-.929-3.6a3.424,3.424,0,0,0-.509-1.213,2.33,2.33,0,0,0-1.07-.864,2.147,2.147,0,0,0-.243-.078,1.306,1.306,0,0,0-.4-.07h-1.542a1.321,1.321,0,0,0-.42.075,2.215,2.215,0,0,0-.579.248,2.407,2.407,0,0,0-.718.689,3.416,3.416,0,0,0-.508,1.213l-.016.067c-.036-.2-.075-.39-.119-.567a3.144,3.144,0,0,0-.707-1.364,2.941,2.941,0,0,0-.74-.59,3.322,3.322,0,0,0-1.005-.365c-.07-.013-.135-.023-.192-.03a1.437,1.437,0,0,0-.342-.042h-1.6a1.477,1.477,0,0,0-.346.043,3.4,3.4,0,0,0-.946.269,2.975,2.975,0,0,0-.987.716,3.135,3.135,0,0,0-.707,1.364,12.323,12.323,0,0,0-.229,1.262c-.184,1.352-.261,2.853-.261,2.864a.726.726,0,1,0,1.45.075s0-.038.007-.111c.014-.257.058-.926.131-1.667.037-.37.082-.759.135-1.121a4.7,4.7,0,0,1,.208-.968c.15-.37.265-.294.38-.371l-.27,3.95a1.477,1.477,0,0,0,.012.179c0,.024-.007.047-.007.071v7.29a.924.924,0,0,0,1.849,0v-6.106h.768v6.106a.924.924,0,0,0,.925.924h.888a.6.6,0,0,1-.193-.321.593.593,0,0,1-.016-.132v-3.349c0-.016,0-.031,0-.047a.986.986,0,0,1-.008-.117l.167-2.784a.742.742,0,0,0-.219.414l-.224,2.17a.491.491,0,0,1-.4.432.485.485,0,0,1-.088.008l-.051,0a.491.491,0,0,1-.438-.539l.227-2.191c0-.013,0-.026.006-.039a1.79,1.79,0,0,1,.345-.78,1.461,1.461,0,0,1,.924-.554,1.378,1.378,0,0,1,.218-.019h.508l.019,0h.942l.019,0h.508a1.424,1.424,0,0,1,.185.014,1.534,1.534,0,0,1,1.221,1.04,1.894,1.894,0,0,1,.081.3c0,.013,0,.026.005.039l.1.935.13,1.257a.5.5,0,0,1-.438.539l-.051,0a.491.491,0,0,1-.488-.441l0-.026-.138-1.331-.084-.812a.742.742,0,0,0-.219-.413l.074,1.225.094,1.558a.981.981,0,0,1-.008.117c0,.015,0,.031,0,.047v3.349a.6.6,0,0,1-.208.454h1.145a.662.662,0,0,0,.66-.661v-4.862h.828v4.862a.66.66,0,1,0,1.32,0v-4.862l.025,0a.949.949,0,0,1,.144,0h.779c-.229-3.168-1.568-4.8-1.3-5.925a4.457,4.457,0,0,1,.247-.776,2.533,2.533,0,0,1,.213.609c.146.65.7,2.535.926,3.59a.594.594,0,0,0,1.162-.247Zm-6.58-.236a1.28,1.28,0,0,1-1.268.211,1.268,1.268,0,0,1-.183-.085,1.288,1.288,0,0,1-.635-.9,1.3,1.3,0,0,1-.02-.22c0-.014,0-.029,0-.043a1.289,1.289,0,0,1,1.285-1.244,1.3,1.3,0,0,1,.188.015,1.281,1.281,0,0,1,.441.15,1.287,1.287,0,0,1,.189,2.116Z" transform="translate(0 -52.793)"/><path class="a" d="M659.995,511.566h-.5v3.027a.6.6,0,0,1-.208.454h.919a.6.6,0,0,1-.209-.454Z" transform="translate(-32.29 -102.949)"/><path class="b" d="M662.451,386.088v-.245a.4.4,0,1,0-.8,0v.247a1.816,1.816,0,0,1,.407-.025A1.56,1.56,0,0,1,662.451,386.088Z" transform="translate(-34.226)"/><path class="b" d="M631.668,396.619a2.159,2.159,0,0,0,.194.121,11.5,11.5,0,0,1,1.293-.438,5.15,5.15,0,0,1,.914-.132v5.788a4.119,4.119,0,0,1,.8,1.158V396.17a5.1,5.1,0,0,1,1.067.171c.4.109.747.255,1.14.4a2.183,2.183,0,0,0,.194-.121,4.705,4.705,0,0,1,2.209-.621,3.506,3.506,0,0,1,1.6.319,4.879,4.879,0,0,0-.074-.542,4.97,4.97,0,0,0-.133-.525,5.282,5.282,0,0,0-.889-1.672q-.085-.109-.175-.214-.181-.21-.384-.4a6.339,6.339,0,0,0-.652-.547,7.457,7.457,0,0,0-8.825.174,6.065,6.065,0,0,0-.984.992,5.285,5.285,0,0,0-.889,1.672,4.955,4.955,0,0,0-.133.525,4.822,4.822,0,0,0-.074.542,3.5,3.5,0,0,1,1.6-.319A4.707,4.707,0,0,1,631.668,396.619Z" transform="translate(-6.639 -4.576)"/></g></svg>