<svg xmlns="http://www.w3.org/2000/svg" width="30" height="29.714" viewBox="0 0 30 29.714"><defs><style>.a{fill:#e10518;fill-rule:evenodd;}.b{fill:#575757;}</style></defs><g transform="translate(-412.304 -3603.582)"><path class="a" d="M439.97,3610.253H436.2a.87.87,0,1,1,0-1.741h1.5a7.53,7.53,0,0,0-13.684,4.353.87.87,0,1,1-1.74,0,9.275,9.275,0,0,1,16.826-5.394V3605.9a.87.87,0,0,1,1.74,0v3.482a.869.869,0,0,1-.869.869m-16.826,5.222h3.77a.871.871,0,1,1,0,1.743H425.4a7.538,7.538,0,0,0,13.7-4.353.87.87,0,0,1,1.74,0,9.268,9.268,0,0,1-16.826,5.38v1.583a.87.87,0,1,1-1.74,0v-3.483a.87.87,0,0,1,.87-.87" transform="translate(-4.254)"/><path class="b" d="M441.781,3632.564a2.03,2.03,0,0,0-2.861-.148s-5.674,4.81-5.822,5.273.059,2.271-.741,3a2.735,2.735,0,0,1-1.976.7l-6.185-.019a3.3,3.3,0,0,0-1.153.261c-.214.1-.294.458-.63.437s-.879-.687-.886-.977.607-.5.967-.658a4.693,4.693,0,0,1,1.83-.392l6.013.088a1.611,1.611,0,0,0,1.147-2.694,1.6,1.6,0,0,0-1.085-.531l-12.045-.572a5.389,5.389,0,0,0-4.1,1.86l0,.011c-.228.2-.449.395-.6.531l-1.087.989a.815.815,0,0,0-.055,1.143l2.046,2.257,1.771,1.955a.742.742,0,0,0,1.022.164c.265-.24.738-.618,1.052-.843.07-.05.178-.113.3-.181a2.435,2.435,0,0,1,1.181-.155l9.782.19a6.2,6.2,0,0,0,4-1.605l7.974-7.22a2.025,2.025,0,0,0,.139-2.856" transform="translate(0 -12.08)"/></g></svg>