<svg xmlns="http://www.w3.org/2000/svg" width="27.75" height="18.435" viewBox="0 0 27.75 18.435"><defs><style>.a{fill:#5b5b5b;}.b{fill:#dd141d;}.c{fill:#575757;}</style></defs><g transform="translate(-98.668 -94.313)"><path class="a" d="M126.418,92.714a1.709,1.709,0,0,1-1.713,1.713H100.734a1.714,1.714,0,0,1-1.713-1.713h0a1.72,1.72,0,0,1,1.713-1.72H124.7a1.715,1.715,0,0,1,1.713,1.72Zm-10.27,0a.859.859,0,0,0-.853-.86h-5.138a.86.86,0,0,0-.86.86h0a.855.855,0,0,0,.86.853H115.3a.853.853,0,0,0,.853-.853Z" transform="translate(0 18.321)"/><g transform="translate(98.674 94.313)"><g transform="translate(-0.006)"><path class="b" d="M15.79,0c.936.1,1.938.151,2.922.311a6.57,6.57,0,0,1,4.7,3.156,1.367,1.367,0,0,0,.836.647c.606.174,1.195.407,1.8.585a.659.659,0,0,1,.523.737q-.019.764,0,1.528c.011.412-.148.875.346,1.162.079.046.084.257.084.393.01.457.008.914,0,1.37-.005.585-.123.7-.719.707-.439.006-.88-.017-1.318.006-.468.024-.651-.18-.692-.64a3.135,3.135,0,0,0-6.248-.135c-.06.7-.135.769-.836.769H9.753c-.676,0-.727-.056-.778-.753a3.141,3.141,0,0,0-6.246-.065c-.07.759-.13.814-.906.814H.61c-.4,0-.625-.172-.616-.6C0,9.484-.006,8.974,0,8.465c0-.118.013-.3.084-.342.5-.286.4-.78.411-1.207A2.3,2.3,0,0,1,1.978,4.749a10.2,10.2,0,0,1,3.93-.86A1.276,1.276,0,0,0,6.9,3.435,10.254,10.254,0,0,1,13.249.215C14.074.1,14.9.074,15.79,0ZM11.236,3.846c.9,0,1.79-.008,2.686,0,.323,0,.49-.089.482-.447-.017-.669-.008-1.338,0-2,0-.286-.1-.406-.414-.377A9.764,9.764,0,0,0,8.373,3.279a1.475,1.475,0,0,0-.239.418,1.836,1.836,0,0,0,.47.136c.877.023,1.754.017,2.633.017Zm6.325,0c.6,0,1.192-.008,1.788,0,.327.006.482-.11.471-.46a10.63,10.63,0,0,1,.021-1.365.52.52,0,0,0-.375-.633.533.533,0,0,0-.126-.016c-1.212-.153-2.425-.288-3.641-.427-.3-.034-.406.119-.4.4.008.648.022,1.3-.005,1.945-.017.407.117.574.536.557.578-.018,1.157,0,1.735,0ZM20.766,2.12c-.028.534-.073.95-.055,1.363a.463.463,0,0,0,.29.341,5.134,5.134,0,0,0,1.1,0c.089-.008.251-.251.229-.284a3.534,3.534,0,0,0-1.56-1.416Z" transform="translate(0.006)"/><path class="c" d="M6.562,9.462A2.242,2.242,0,1,1,4.313,11.7,2.241,2.241,0,0,1,6.562,9.462Zm0,3.586a1.342,1.342,0,0,0-.024-2.685h0a1.343,1.343,0,0,0,.024,2.685Z" transform="translate(-0.701 -1.55)"/><path class="c" d="M24.86,9.462a2.246,2.246,0,1,1-.023,0Zm1.331,2.23a1.338,1.338,0,1,0,0,.189A1.424,1.424,0,0,0,26.191,11.692Z" transform="translate(-3.698 -1.55)"/></g></g></g></svg>