<svg xmlns="http://www.w3.org/2000/svg" width="23.38" height="30" viewBox="0 0 23.38 30"><defs><style>.a{fill:#575757;}.b{fill:#dd141d;fill-rule:evenodd;}</style></defs><g transform="translate(-476.145 -2952.831)"><path class="a" d="M484.73,2968.436H477.6a1.454,1.454,0,0,0-1.453,1.454v18.823a1.451,1.451,0,0,0,1.453,1.45h14.476a1.452,1.452,0,0,0,1.453-1.454v-13.678c-6.487,0-8.348-3.655-8.8-6.6m-5.929,4.827h5.553v1.691H478.8Zm12.071,11.831H478.8v-1.688h12.07Zm0-3.378H478.8v-1.69h12.07Zm0-3.381H478.8v-1.69h12.07Z" transform="translate(0 -7.332)"/><path class="b" d="M501.126,2952.831a6.9,6.9,0,1,0,6.9,6.9,6.9,6.9,0,0,0-6.9-6.9m.685,10.285v.761c0,.179-.06.289-.291.289h-.78c-.229,0-.288-.11-.288-.289v-.781a2.231,2.231,0,0,1-2-2.051c0-.227.061-.278.288-.278h.971c.23,0,.34.03.36.278a.683.683,0,0,0,.19.411,1.311,1.311,0,0,0,.98.33c.54,0,.979-.12.979-.681s-.89-.568-1.739-.84c-1.009-.318-1.939-.719-1.939-1.988a2.023,2.023,0,0,1,1.91-1.929v-.77c0-.179.059-.289.288-.289h.78c.231,0,.29.11.29.289v.8c.971.2,1.819.78,1.819,1.809,0,.241-.06.279-.289.279h-.98c-.19,0-.221-.138-.27-.267a.678.678,0,0,0-.209-.3,1.322,1.322,0,0,0-.85-.27c-.329,0-.879.131-.879.58,0,.609,1.47.83,1.869.989.72.22,1.779.511,1.779,1.871a2.03,2.03,0,0,1-1.988,2.048" transform="translate(-8.497)"/></g></svg>