<svg xmlns="http://www.w3.org/2000/svg" width="30" height="29.947" viewBox="0 0 30 29.947"><defs><style>.a{fill:#575757;}.b{fill:#e10518;fill-rule:evenodd;}</style></defs><g transform="translate(-93.117 -3693.65)"><path class="a" d="M122.594,3724.384a2.027,2.027,0,0,0-2.858-.149s-5.676,4.811-5.823,5.273.058,2.271-.744,3a2.731,2.731,0,0,1-1.974.7l-6.186-.02a3.333,3.333,0,0,0-1.154.261c-.209.1-.292.458-.629.435s-.878-.686-.884-.975.607-.5.966-.659a4.774,4.774,0,0,1,1.829-.391l6.015.088a1.633,1.633,0,0,0,1.038-.417,1.619,1.619,0,0,0-.978-2.808l-12.045-.572a5.385,5.385,0,0,0-4.1,1.86l0,.013c-.228.2-.449.393-.6.53l-1.088.989a.814.814,0,0,0-.055,1.143l2.046,2.258,1.771,1.953a.744.744,0,0,0,1.024.165,13.226,13.226,0,0,1,1.053-.842,3.5,3.5,0,0,1,.3-.182,2.451,2.451,0,0,1,1.18-.156l9.78.191a6.222,6.222,0,0,0,4-1.6l7.971-7.22a2.024,2.024,0,0,0,.14-2.857" transform="translate(0 -13.599)"/><path class="b" d="M112.563,3693.65a9.619,9.619,0,1,0,9.617,9.62,9.62,9.62,0,0,0-9.617-9.62m.955,14.346v1.059c0,.251-.084.4-.405.4h-1.087c-.32,0-.4-.153-.4-.4v-1.086c-1.45-.307-2.791-1.269-2.791-2.86,0-.319.087-.391.405-.391h1.353c.32,0,.474.043.5.391a.982.982,0,0,0,.265.572,1.827,1.827,0,0,0,1.366.461c.754,0,1.368-.169,1.368-.948s-1.242-.794-2.427-1.171c-1.407-.448-2.7-1.006-2.7-2.775,0-1.563,1.214-2.426,2.664-2.692v-1.073c0-.251.083-.4.4-.4h1.087c.32,0,.4.153.4.4v1.115c1.353.28,2.537,1.086,2.537,2.524,0,.333-.082.389-.4.389h-1.368c-.264,0-.306-.194-.375-.375a.947.947,0,0,0-.294-.417,1.842,1.842,0,0,0-1.185-.377c-.46,0-1.225.179-1.225.807,0,.852,2.049,1.157,2.605,1.381,1,.307,2.483.711,2.483,2.607,0,1.673-1.129,2.622-2.775,2.858" transform="translate(-4.444)"/></g></svg>