<svg xmlns="http://www.w3.org/2000/svg" width="15.822" height="9.779" viewBox="0 0 15.822 9.779"><defs><style>.a{fill:#ff5f00;}.b{fill:#eb001b;}.c{fill:#f79e1b;}</style></defs><g transform="translate(-38.086 -112.23)"><rect class="a" width="4.278" height="7.689" transform="translate(43.858 113.275)"/><path class="b" d="M44.13,117.12A4.881,4.881,0,0,1,46,113.275a4.89,4.89,0,1,0,0,7.689A4.882,4.882,0,0,1,44.13,117.12Z" transform="translate(0 0)"/><path class="c" d="M88.585,117.12a4.89,4.89,0,0,1-7.911,3.844,4.891,4.891,0,0,0,0-7.689,4.889,4.889,0,0,1,7.911,3.844Zm-.466,3.03v-.157h.063v-.032H88.02v.032h.064v.157Zm.314,0v-.19h-.05l-.057.131-.057-.131h-.05v.19h.035v-.143l.053.124h.036l.054-.124v.143Z" transform="translate(-34.677 0)"/></g></svg>