<svg xmlns="http://www.w3.org/2000/svg" xmlns:xlink="http://www.w3.org/1999/xlink" width="31.247" height="10.092" viewBox="0 0 31.247 10.092"><defs><style>.a{fill:url(#a);}</style><linearGradient id="a" y1="0.5" x2="1" y2="0.5" gradientUnits="objectBoundingBox"><stop offset="0" stop-color="#272158"/><stop offset="1" stop-color="#164193"/></linearGradient></defs><path class="a" d="M605.148,115.452l-4.091,9.76h-2.669l-2.013-7.789a1.069,1.069,0,0,0-.6-.857,10.559,10.559,0,0,0-2.491-.831l.06-.283h4.3a1.176,1.176,0,0,1,1.164,1l1.063,5.648,2.628-6.643Zm10.458,6.574c.011-2.576-3.562-2.718-3.537-3.869.008-.35.341-.722,1.071-.817a4.766,4.766,0,0,1,2.489.437l.444-2.069a6.785,6.785,0,0,0-2.362-.433c-2.5,0-4.252,1.327-4.266,3.226-.017,1.406,1.253,2.189,2.211,2.657.983.478,1.313.785,1.309,1.213-.007.655-.785.944-1.511.955a5.283,5.283,0,0,1-2.593-.617l-.457,2.139a7.646,7.646,0,0,0,2.808.518c2.653,0,4.388-1.31,4.4-3.339m6.591,3.187h2.335l-2.039-9.76h-2.155a1.149,1.149,0,0,0-1.075.716l-3.789,9.044h2.651l.527-1.458h3.239Zm-2.818-3.458,1.329-3.665.765,3.665Zm-10.623-6.3-2.088,9.76h-2.525l2.089-9.76Z" transform="translate(-593.284 -115.273)"/></svg>