<svg xmlns="http://www.w3.org/2000/svg" width="24.465" height="24.422" viewBox="0 0 24.465 24.422"><defs><style>.a{fill:#e10518;}.b{fill:#575757;fill-rule:evenodd;}</style></defs><g transform="translate(4606 -3144)"><path class="a" d="M539.111,3365.585a1.653,1.653,0,0,0-2.331-.121s-4.629,3.923-4.749,4.3.047,1.852-.607,2.444a2.227,2.227,0,0,1-1.61.568l-5.044-.016a2.717,2.717,0,0,0-.941.212c-.171.078-.239.374-.513.355s-.716-.559-.721-.8.495-.407.788-.537a3.885,3.885,0,0,1,1.492-.319l4.906.071a1.33,1.33,0,0,0,.846-.34,1.32,1.32,0,0,0-.8-2.29l-9.823-.466a4.392,4.392,0,0,0-3.345,1.517v.011c-.186.161-.366.32-.488.432l-.887.807a.664.664,0,0,0-.045.932l1.668,1.842,1.444,1.593a.607.607,0,0,0,.835.134,10.74,10.74,0,0,1,.858-.687,2.862,2.862,0,0,1,.245-.148,2,2,0,0,1,.963-.127l7.976.156a5.073,5.073,0,0,0,3.265-1.309l6.5-5.888a1.651,1.651,0,0,0,.114-2.33" transform="translate(-5121.073 -207.611)"/><path class="b" d="M532.745,3334.974a7.845,7.845,0,1,0,7.843,7.845,7.845,7.845,0,0,0-7.843-7.845m.779,11.7v.864c0,.2-.069.33-.331.33h-.887c-.261,0-.329-.125-.329-.33v-.886a2.538,2.538,0,0,1-2.276-2.332c0-.26.071-.319.331-.319h1.1c.261,0,.387.035.408.319a.8.8,0,0,0,.216.467,1.49,1.49,0,0,0,1.114.376c.615,0,1.116-.137,1.116-.773s-1.013-.647-1.98-.954c-1.147-.365-2.205-.821-2.205-2.263a2.3,2.3,0,0,1,2.172-2.2v-.875c0-.2.068-.33.329-.33h.887c.261,0,.33.125.33.33v.909c1.1.229,2.069.886,2.069,2.059,0,.271-.067.317-.329.317h-1.116c-.215,0-.25-.158-.306-.306a.769.769,0,0,0-.239-.34,1.5,1.5,0,0,0-.966-.307c-.375,0-1,.146-1,.658,0,.7,1.671.944,2.125,1.126.819.25,2.025.58,2.025,2.126a2.311,2.311,0,0,1-2.263,2.331" transform="translate(-5126.512 -190.974)"/></g></svg>