<svg xmlns="http://www.w3.org/2000/svg" width="24.415" height="21.177" viewBox="0 0 24.415 21.177"><defs><style>.a,.c{fill:#575757;}.a{stroke:#575757;}.b{fill:#e10518;stroke:#e10518;stroke-width:0.5px;}</style></defs><g transform="translate(-4480.452 2983.788)"><path class="a" d="M4500.9-2638.13c.039-.047.048-.069.063-.075.22-.087.222-.261.208-.46a8.968,8.968,0,0,0-1.693-4.694,8.97,8.97,0,0,0-3.215-2.773,9.158,9.158,0,0,0-1.954-.729,9.463,9.463,0,0,0-2.429-.271,2.336,2.336,0,0,0-.362.031.277.277,0,0,0-.151.083,2.444,2.444,0,0,0-.594,1.255c-.068.438-.129.878-.2,1.317-.066.422.031.571.508.686.308.074.625.108.937.165a4.778,4.778,0,0,1,.6.127,1.011,1.011,0,0,1,.689.9,4.979,4.979,0,0,1,.045.98,3.424,3.424,0,0,0,.37,1.56,4.342,4.342,0,0,0,1.414,1.765.871.871,0,0,1,.083.067.289.289,0,0,1,.031.061.894.894,0,0,1-.156.031c-.476,0-.95.006-1.425,0a.349.349,0,0,1-.228-.113,5.841,5.841,0,0,1-1.07-1.953,4.327,4.327,0,0,1-.226-1.727c.033-.486.068-.456-.448-.51a4.392,4.392,0,0,1-1.578-.45,1.351,1.351,0,0,1-.775-1.432c.053-.582.144-1.161.238-1.738a4.842,4.842,0,0,1,.2-.651c.012-.041.027-.08.056-.159-.136.036-.236.06-.335.09a8.962,8.962,0,0,0-5.073,3.857,8.478,8.478,0,0,0-.971,2.113c-.036.121.021.15.114.18.374.121.756.221,1.115.378a4.08,4.08,0,0,1,.782.481,1.011,1.011,0,0,1,.352,1.048c-.021.139-.04.28-.053.42a.162.162,0,0,1-.185.17c-.3,0-.6,0-.895,0-.132,0-.168-.06-.152-.178.022-.16.032-.322.063-.48a.171.171,0,0,0-.117-.214c-.322-.131-.641-.273-.97-.383-.37-.123-.375-.11-.405.284-.021.271-.042.543-.057.815-.005.109-.053.155-.159.155-.3,0-.605,0-.909,0-.137,0-.16-.08-.148-.188.065-.576.121-1.153.2-1.726a8.139,8.139,0,0,1,.543-1.886,10.148,10.148,0,0,1,3.077-4.17,10.081,10.081,0,0,1,3.332-1.783,10.141,10.141,0,0,1,5.086-.29,10.121,10.121,0,0,1,4.224,1.878,10.325,10.325,0,0,1,3.263,4.157,9.876,9.876,0,0,1,.753,2.764c.043.35.046.7.072,1.056.01.135-.036.192-.178.189-.379-.007-.758,0-1.136,0A1.615,1.615,0,0,1,4500.9-2638.13Z" transform="translate(0 -325.008)"/><path class="b" d="M4731.667-2980.224a1.5,1.5,0,0,0-.269-.01l-.208.006c-.464.013-.944.027-1.417.045-.1-.2-.213-.4-.318-.592l-.122-.224-.213-.394c-.325-.6-.66-1.222-.993-1.831a.573.573,0,0,0-.179-.189l-.025-.02a.319.319,0,0,0-.426,0l-.044.041a.319.319,0,0,0-.1.28.233.233,0,0,1,0,.026.82.82,0,0,0,.023.131c.085.3.164.578.242.846l.236.809q.171.585.34,1.171l-.6,0c-.543,0-1.105.005-1.66.022-.158,0-.183-.026-.229-.114a3.2,3.2,0,0,0-.26-.4c-.041-.056-.083-.115-.125-.176a.317.317,0,0,0-.356-.124.318.318,0,0,0-.224.3v2.026a.318.318,0,0,0,.221.3.318.318,0,0,0,.356-.118l.047-.066.066-.093.111-.168c.083-.126.161-.245.247-.359.8,0,1.615,0,2.407,0l-.389,1.344q-.175.6-.35,1.21c-.028.1-.054.2-.079.291-.012.044-.024.088-.036.132a.318.318,0,0,0,.2.384.537.537,0,0,0,.174.03.448.448,0,0,0,.411-.282l.008-.016.161-.3c.483-.894.983-1.819,1.469-2.731a.051.051,0,0,1,.007-.011h.006c.425.021.854.033,1.271.045l.339.01a1.449,1.449,0,0,0,.27-.012.629.629,0,0,0,.542-.634A.64.64,0,0,0,4731.667-2980.224Z" transform="translate(-235.549)"/><path class="c" d="M4619.94-2848.889a.506.506,0,0,1-.131.1c-.358.12-.72.23-1.079.348-.158.052-.313.111-.468.171a.124.124,0,0,1-.189-.081c-.112-.292-.23-.581-.343-.872-.044-.113.036-.157.121-.187q.636-.218,1.274-.43c.115-.038.231-.07.347-.1.076-.021.161-.037.19.062C4619.754-2849.564,4619.841-2849.243,4619.94-2848.889Z" transform="translate(-133.764 -128.503)"/><path class="c" d="M5102.977-2777.728a.865.865,0,0,1,.106.057c.463.348.922.7,1.387,1.046.114.086.1.158.015.256-.189.209-.376.421-.554.64-.087.108-.156.095-.251.019q-.407-.324-.822-.641c-.145-.11-.3-.21-.445-.312-.072-.049-.112-.1-.055-.186.175-.265.347-.531.523-.8A.454.454,0,0,1,5102.977-2777.728Z" transform="translate(-599.688 -198.547)"/><path class="c" d="M4992.218-2835.585c.1-.3.192-.567.288-.832s.1-.258.343-.156c.488.2.973.414,1.458.626.174.076.182.108.1.274-.124.248-.257.492-.374.743-.06.129-.128.138-.248.083-.413-.187-.829-.366-1.245-.547-.074-.032-.155-.049-.225-.088A.408.408,0,0,1,4992.218-2835.585Z" transform="translate(-492.913 -141.426)"/><path class="c" d="M4504.557-2799.765a.64.64,0,0,0-.13.047q-.7.437-1.4.879a.129.129,0,0,1-.2-.035q-.267-.376-.538-.75c-.055-.075-.06-.133.027-.187q.749-.472,1.5-.946c.074-.047.148-.072.2.029l.459.834c.011.022.018.046.027.07Z" transform="translate(-21.799 -176.176)"/></g></svg>