<svg xmlns="http://www.w3.org/2000/svg" width="10" height="10" viewBox="0 0 10 10">
  <g id="Grupo_6583" data-name="Grupo 6583" transform="translate(-4633 -7879)">
    <g id="Grupo_6582" data-name="Grupo 6582" transform="translate(4633.347 7878.336)">
      <g id="Grupo_5594" data-name="Grupo 5594" transform="translate(-0.347 0.654)">
        <circle id="Elipse_53" data-name="Elipse 53" cx="5" cy="5" r="5" transform="translate(0 0.01)" fill="#f2b05a"/>
      </g>
    </g>
    <path id="Trazado_3030" data-name="Trazado 3030" d="M189.929,311.465a.714.714,0,0,1-.108.221,2.3,2.3,0,0,0-.612,1.883c.04.378-.232.554-.6.444a1.243,1.243,0,0,1-.184-.061,1.805,1.805,0,0,0-1.6.006,1.335,1.335,0,0,1-.2.066.408.408,0,0,1-.56-.419,6.3,6.3,0,0,1,0-.7.9.9,0,0,0-.215-.66c-.143-.184-.271-.38-.4-.574a.408.408,0,0,1,.217-.667c.279-.1.564-.189.841-.3a.607.607,0,0,0,.24-.177c.191-.237.364-.489.553-.728a.4.4,0,0,1,.684,0c.188.24.361.492.552.729a.605.605,0,0,0,.24.176c.289.113.585.206.876.314A.408.408,0,0,1,189.929,311.465Z" transform="translate(4450.288 7571.996)" fill="#fdfdfd"/>
  </g>
</svg>
