<svg xmlns="http://www.w3.org/2000/svg" width="22.608" height="21.497" viewBox="0 0 22.608 21.497"><defs><style>.a{fill:#5b5b5b;}.b{fill:#dd141d;}.c{fill:#fff;}</style></defs><g transform="translate(-4308.073 1899.012)"><path class="a" d="M4315.115-1757.224c-.552,0-1.1,0-1.657,0-.311,0-.4-.09-.413-.4-.021-.483-.041-.965-.051-1.448a.846.846,0,0,0-.207-.561c-1.134-1.347-2.257-2.7-3.384-4.055a3.46,3.46,0,0,1-.778-1.937c-.178-1.837-.366-3.674-.546-5.511a1.328,1.328,0,0,1,.015-.36.755.755,0,0,1,.672-.62.646.646,0,0,1,.688.476,14.3,14.3,0,0,1,.344,1.693c.093.691.141,1.389.19,2.086a3.286,3.286,0,0,0,.524,1.473c.631,1.038,1.292,2.059,1.942,3.086.022.036.054.067.078.1.095.137.225.217.372.116s.089-.254.007-.388c-.633-1.038-1.269-2.075-1.9-3.117a.85.85,0,0,1,.526-1.3.78.78,0,0,1,.839.324c.681.881,1.356,1.766,2.052,2.635a4.033,4.033,0,0,0,.719.7,5.182,5.182,0,0,1,2.182,3.218,6.316,6.316,0,0,1,.024,1.336c-.02.664-.065,1.327-.1,1.99-.019.364-.149.492-.514.492h-1.631Z" transform="translate(0 -120.317)"/><path class="a" d="M4566.437-1757.316c-.544,0-1.088,0-1.632,0-.285,0-.377-.074-.394-.359-.058-.99-.154-1.982-.142-2.972a3.917,3.917,0,0,1,1.027-2.515,16.309,16.309,0,0,1,1.235-1.172,6.2,6.2,0,0,0,.629-.608c.706-.884,1.4-1.78,2.085-2.676a.825.825,0,0,1,1.136-.257.854.854,0,0,1,.27,1.181c-.382.646-.778,1.284-1.168,1.925l-.727,1.193c-.085.139-.168.289.008.408s.29-.016.382-.146a25.056,25.056,0,0,0,2.249-3.654,3.665,3.665,0,0,0,.3-1.248c.105-1.046.25-2.088.383-3.131a1.33,1.33,0,0,1,.072-.248c.147-.442.431-.65.788-.58a.8.8,0,0,1,.663.887c-.155,1.441-.318,2.881-.48,4.322-.054.489-.108.977-.164,1.466a3.351,3.351,0,0,1-.813,1.786q-1.7,2.037-3.394,4.082a.54.54,0,0,0-.114.3c-.027.508-.042,1.017-.057,1.526-.011.376-.109.48-.48.482-.553,0-1.105,0-1.658,0Z" transform="translate(-242.92 -120.251)"/><path class="a" d="M4402.441-1899.012h5.491a1.182,1.182,0,0,1,1.269,1.257q0,2.927,0,5.854a1.189,1.189,0,0,1-1.267,1.266q-5.492,0-10.982,0a1.192,1.192,0,0,1-1.267-1.291q0-2.9,0-5.8a1.184,1.184,0,0,1,1.291-1.284Zm-4.358,1.034a1.214,1.214,0,0,1-1.362,1.366v3.535a1.241,1.241,0,0,1,1.369,1.388h8.625a1.309,1.309,0,0,1,.42-1.01,1.211,1.211,0,0,1,1.054-.27v-3.56a1.223,1.223,0,0,1-1.437-1.449Z" transform="translate(-83.073)"/><path class="b" d="M4408.463-1722.346h5.8c.475,0,.724.178.719.514s-.253.506-.731.506H4402.6c-.4-.009-.643-.2-.639-.519s.243-.5.652-.5Z" transform="translate(-89.019 -167.512)"/><path class="b" d="M4423.951-1687.2q2.253,0,4.5,0a.967.967,0,0,1,.33.043.462.462,0,0,1,.318.507.471.471,0,0,1-.4.446,1.317,1.317,0,0,1-.283.015h-8.984c-.069,0-.139,0-.207,0a.516.516,0,0,1-.476-.494.526.526,0,0,1,.46-.511,1.946,1.946,0,0,1,.233,0Z" transform="translate(-104.945 -200.838)"/><path class="b" d="M4455.544-1652.023h2.847c.387,0,.619.187.625.5s-.237.52-.635.52c-1.915,0-3.829.006-5.745-.009a.75.75,0,0,1-.511-.22.617.617,0,0,1-.051-.5.457.457,0,0,1,.495-.295Q4454.057-1652.021,4455.544-1652.023Z" transform="translate(-136.513 -234.19)"/><path class="c" d="M4350.676-1755.439q-.2-1.553-.4-3.069a.608.608,0,0,1,.474.525c.138.577.261,1.159.365,1.743C4351.211-1755.695,4351.2-1755.692,4350.676-1755.439Z" transform="translate(-40.017 -133.223)"/><path class="c" d="M4685.787-1759.514c-.13,1.045-.26,2.074-.391,3.114a4.335,4.335,0,0,1-.431-.229.235.235,0,0,1-.057-.195c.131-.7.263-1.4.409-2.1A.712.712,0,0,1,4685.787-1759.514Z" transform="translate(-357.307 -132.27)"/><path class="c" d="M4372.124-1741.963c-.542-.111-.53-.113-.624-.546-.107-.494-.236-.983-.355-1.474l.054-.051c.113.1.283.185.331.312C4371.739-1743.163,4371.915-1742.592,4372.124-1741.963Z" transform="translate(-59.803 -146.948)"/><path class="c" d="M4663.738-1743.643q-.165.657-.329,1.314a1.684,1.684,0,0,0-.035.176c-.064.45-.063.45-.61.507.2-.593.374-1.161.584-1.715.05-.131.219-.218.333-.324Z" transform="translate(-336.312 -147.278)"/><path class="b" d="M4481.808-1864.778a2.577,2.577,0,0,1-2.559,2.551,2.568,2.568,0,0,1-2.562-2.595,2.564,2.564,0,0,1,2.558-2.519A2.553,2.553,0,0,1,4481.808-1864.778Zm-2.26,1.912c-.087-.332.071-.456.338-.585a.757.757,0,0,0,.08-1.262,4.328,4.328,0,0,0-.518-.287c-.106-.057-.249-.091-.307-.179a.642.642,0,0,1-.094-.4.3.3,0,0,1,.228-.186c.1,0,.264.1.276.175.051.315.265.27.481.28s.265-.092.22-.284a.733.733,0,0,0-.471-.544c-.164-.061-.241-.14-.213-.316.025-.154-.044-.214-.2-.211s-.258.021-.243.208a1.366,1.366,0,0,1-.012.2c-.568.211-.735.42-.731.879a.731.731,0,0,0,.4.673,5.468,5.468,0,0,1,.662.344.534.534,0,0,1,.141.4c0,.078-.152.223-.224.215-.125-.012-.324-.1-.345-.189-.072-.294-.264-.274-.485-.28-.243-.007-.278.1-.223.3a.861.861,0,0,0,.6.618c.079.027.159.051.232.074.011.129.02.237.031.358Z" transform="translate(-159.877 -30.03)"/><path class="c" d="M4440.358-1831.164a.716.716,0,0,1,.708-.709.725.725,0,0,1,.708.714.722.722,0,0,1-.727.719A.709.709,0,0,1,4440.358-1831.164Z" transform="translate(-125.431 -63.66)"/><path class="c" d="M4585.912-1831.089a.721.721,0,0,1-.717.7.722.722,0,0,1-.7-.742.715.715,0,0,1,.727-.689A.718.718,0,0,1,4585.912-1831.089Z" transform="translate(-262.097 -63.713)"/></g></svg>