<svg xmlns="http://www.w3.org/2000/svg" width="19.672" height="19.594" viewBox="0 0 19.672 19.594"><defs><style>.a{fill:#dd141d;}.a,.b{fill-rule:evenodd;}.b{fill:#575757;}</style></defs><path class="a" d="M20.951,20.866V21.8c0,.234-.078.351-.351.351h-.935c-.273,0-.351-.117-.351-.351v-.935A2.7,2.7,0,0,1,16.9,18.373c0-.273.078-.351.351-.351h1.169c.273,0,.429.039.429.351a.838.838,0,0,0,.234.506,1.672,1.672,0,0,0,1.208.39c.662,0,1.208-.156,1.208-.818,0-.7-1.091-.7-2.1-1.013-1.247-.39-2.376-.9-2.376-2.415,0-1.363,1.052-2.1,2.337-2.337v-.935c0-.234.078-.351.351-.351h.935c.273,0,.351.117.351.351v.974c1.169.234,2.22.935,2.22,2.22,0,.312-.078.351-.351.351H21.614c-.234,0-.273-.156-.312-.312a.72.72,0,0,0-.273-.351,1.54,1.54,0,0,0-1.052-.312c-.39,0-1.091.156-1.091.7,0,.74,1.792,1.013,2.259,1.208.857.273,2.181.623,2.181,2.259.039,1.363-.935,2.181-2.376,2.376" transform="translate(-10.278 -6.959)"/><path class="b" d="M18.6,7.051H14.586a.935.935,0,1,1,0-1.87h1.6a7.843,7.843,0,0,0-6.466-3.35A7.93,7.93,0,0,0,1.77,9.778a.948.948,0,0,1-.935.935A.948.948,0,0,1-.1,9.778,9.825,9.825,0,0,1,17.7,4.09V2.454a.935.935,0,0,1,1.87,0V6.116a1.011,1.011,0,0,1-.974.935M.874,12.543H4.847a.935.935,0,0,1,0,1.87H3.25A7.962,7.962,0,0,0,17.7,9.817a.935.935,0,0,1,1.87,0,9.876,9.876,0,0,1-9.856,9.778A9.722,9.722,0,0,1,1.77,15.465V17.14a.948.948,0,0,1-.935.935.941.941,0,0,1-.9-.935V13.478a.948.948,0,0,1,.935-.935" transform="translate(0.1)"/></svg>