<svg xmlns="http://www.w3.org/2000/svg" width="97.215" height="44.61" viewBox="0 0 97.215 44.61"><g transform="translate(0.006)"><g transform="translate(-0.006)"><path d="M56.846,0c3.37.346,6.975.542,10.517,1.119a23.646,23.646,0,0,1,16.909,11.36,4.92,4.92,0,0,0,3.009,2.329c2.182.626,4.3,1.466,6.476,2.106a2.371,2.371,0,0,1,1.881,2.654q-.068,2.749,0,5.5c.039,1.484-.533,3.151,1.246,4.183.286.166.3.924.3,1.414.036,1.643.027,3.289,0,4.932-.018,2.106-.442,2.516-2.588,2.546-1.58.021-3.166-.06-4.743.021-1.685.087-2.344-.647-2.492-2.305a11.282,11.282,0,0,0-22.485-.484c-.217,2.5-.484,2.769-3.009,2.769H35.116c-2.431,0-2.618-.2-2.8-2.708A11.306,11.306,0,0,0,9.838,35.2c-.253,2.732-.466,2.928-3.262,2.931H2.212c-1.453,0-2.248-.62-2.218-2.167.036-1.833,0-3.668.024-5.5,0-.424.045-1.083.3-1.231C2.125,28.206,1.758,26.427,1.8,24.89a8.268,8.268,0,0,1,5.335-7.8A36.716,36.716,0,0,1,21.279,14a4.591,4.591,0,0,0,3.578-1.637A36.9,36.9,0,0,1,47.7.773C50.668.373,53.644.268,56.846,0ZM40.454,13.843c3.223,0,6.443-.027,9.666,0,1.162,0,1.763-.322,1.733-1.607-.06-2.407-.027-4.815-.015-7.2,0-1.029-.37-1.463-1.49-1.357A35.139,35.139,0,0,0,30.15,11.8a5.307,5.307,0,0,0-.861,1.5,6.609,6.609,0,0,0,1.691.491c3.157.084,6.313.06,9.476.06Zm22.762,0c2.146,0,4.291-.027,6.434,0,1.177.021,1.736-.4,1.694-1.655a38.258,38.258,0,0,1,.075-4.914A1.873,1.873,0,0,0,70.068,5a1.918,1.918,0,0,0-.454-.057C65.251,4.388,60.887,3.9,56.512,3.4c-1.068-.123-1.463.427-1.45,1.453.027,2.332.078,4.67-.018,7-.06,1.466.421,2.067,1.929,2,2.079-.066,4.165,0,6.244,0ZM74.754,7.632c-.1,1.923-.262,3.419-.2,4.905A1.665,1.665,0,0,0,75.6,13.764a18.478,18.478,0,0,0,3.954,0c.322-.03.9-.9.825-1.023a12.721,12.721,0,0,0-5.615-5.1Z" transform="translate(0.006)" fill="#e8e8e8"/><path d="M12.408,9.462a8.068,8.068,0,1,1-8.095,8.05A8.067,8.067,0,0,1,12.408,9.462Zm0,12.907a4.832,4.832,0,0,0-.087-9.663h0a4.833,4.833,0,0,0,.087,9.663Z" transform="translate(8.685 19.012)" fill="#e8e8e8"/><path d="M30.727,9.462a8.084,8.084,0,1,1-.081,0Zm4.791,8.026a4.815,4.815,0,1,0,0,.68A5.127,5.127,0,0,0,35.518,17.488Z" transform="translate(45.432 19.012)" fill="#e8e8e8"/></g></g></svg>