<svg id="Grupo_4656" data-name="Grupo 4656" xmlns="http://www.w3.org/2000/svg" width="24.882" height="24.882" viewBox="0 0 24.882 24.882">
  <path id="Trazado_2252" data-name="Trazado 2252" d="M387.383,1303.87l-3.84,3.841h1.849a1.166,1.166,0,1,1,0,2.332h-4.665a1.166,1.166,0,0,1-1.167-1.166v-4.666a1.167,1.167,0,0,1,2.333,0v1.85l3.841-3.841a1.166,1.166,0,1,1,1.649,1.65m-12.1,13.949a3.5,3.5,0,1,1,3.5-3.5,3.5,3.5,0,0,1-3.5,3.5m-5.442,7.775a1.166,1.166,0,0,1-1.166-1.166v-1.85l-3.841,3.841a1.166,1.166,0,1,1-1.649-1.649l3.84-3.841h-1.85a1.167,1.167,0,0,1,0-2.333h4.666a1.166,1.166,0,0,1,1.166,1.166v4.665a1.166,1.166,0,0,1-1.166,1.166" transform="translate(-362.843 -1301.879)" fill="#575757" fill-rule="evenodd"/>
  <circle id="Elipse_22" data-name="Elipse 22" cx="4.178" cy="4.178" r="4.178" transform="translate(8.357 8.357)" fill="#e10518"/>
</svg>
