<svg xmlns="http://www.w3.org/2000/svg" width="77.897" height="77.761" viewBox="0 0 77.897 77.761"><g transform="translate(3649 -3487)"><path d="M591.611,3366.775a5.264,5.264,0,0,0-7.422-.386s-14.738,12.491-15.12,13.693.149,5.9-1.931,7.78a7.093,7.093,0,0,1-5.127,1.811l-16.062-.051a8.647,8.647,0,0,0-3,.675c-.543.25-.759,1.191-1.634,1.131s-2.28-1.781-2.3-2.532,1.576-1.3,2.509-1.711a12.363,12.363,0,0,1,4.75-1.015l15.619.227a4.241,4.241,0,0,0,2.7-1.083,4.2,4.2,0,0,0-2.54-7.29l-31.276-1.486c-5.537-.15-8.382,2.774-10.651,4.829l0,.035c-.591.513-1.166,1.021-1.553,1.377l-2.824,2.568a2.114,2.114,0,0,0-.142,2.967l5.312,5.863,4.6,5.071a1.932,1.932,0,0,0,2.658.427,34.322,34.322,0,0,1,2.733-2.186c.178-.128.458-.291.779-.472a6.371,6.371,0,0,1,3.065-.406l25.4.5a16.153,16.153,0,0,0,10.4-4.168l20.7-18.747a5.256,5.256,0,0,0,.363-7.418" transform="translate(-4164.073 164.719)" fill="#e8e8e8"/><path d="M549.877,3334.974a24.977,24.977,0,1,0,24.972,24.978,24.977,24.977,0,0,0-24.972-24.978m2.479,37.25v2.75c0,.651-.219,1.049-1.052,1.049h-2.823c-.831,0-1.047-.4-1.047-1.049v-2.822c-3.766-.8-7.246-3.293-7.246-7.425,0-.828.226-1.015,1.052-1.015h3.513c.832,0,1.232.112,1.3,1.015a2.551,2.551,0,0,0,.688,1.487,4.743,4.743,0,0,0,3.547,1.2c1.958,0,3.553-.438,3.553-2.462s-3.224-2.061-6.3-3.039c-3.652-1.164-7.021-2.613-7.021-7.206,0-4.059,3.151-6.3,6.917-6.989v-2.787c0-.65.216-1.049,1.047-1.049H551.3c.832,0,1.049.4,1.049,1.049v2.9c3.514.728,6.588,2.822,6.588,6.554,0,.865-.214,1.009-1.047,1.009h-3.553c-.685,0-.795-.5-.974-.974a2.453,2.453,0,0,0-.762-1.084,4.784,4.784,0,0,0-3.076-.979c-1.193,0-3.181.464-3.181,2.095,0,2.214,5.32,3.006,6.765,3.587,2.608.8,6.448,1.846,6.448,6.769,0,4.344-2.932,6.807-7.2,7.422" transform="translate(-4159.926 152.026)" fill="#e8e8e8" fill-rule="evenodd"/></g></svg>