<svg xmlns="http://www.w3.org/2000/svg" width="70.9" height="67.413" viewBox="0 0 70.9 67.413"><g transform="translate(-4308.073 1899.012)"><path d="M4330.158-1725.406c-1.732,0-3.464.008-5.2,0-.974-.006-1.255-.282-1.295-1.255-.064-1.514-.129-3.027-.159-4.541a2.653,2.653,0,0,0-.647-1.758c-3.558-4.226-7.079-8.476-10.613-12.718a10.851,10.851,0,0,1-2.441-6.074c-.559-5.762-1.148-11.521-1.713-17.283a4.166,4.166,0,0,1,.046-1.129,2.367,2.367,0,0,1,2.106-1.943,2.025,2.025,0,0,1,2.159,1.493,44.732,44.732,0,0,1,1.078,5.309c.293,2.167.442,4.357.6,6.541a10.3,10.3,0,0,0,1.645,4.62c1.979,3.256,4.053,6.456,6.091,9.678.07.114.17.21.245.321.3.43.7.682,1.167.365.5-.339.278-.8.021-1.216-1.984-3.256-3.979-6.506-5.943-9.774a2.665,2.665,0,0,1,1.651-4.091,2.448,2.448,0,0,1,2.631,1.017c2.136,2.762,4.254,5.538,6.436,8.262a12.632,12.632,0,0,0,2.254,2.194c3.447,2.587,6.039,5.762,6.843,10.091a19.787,19.787,0,0,1,.077,4.189c-.062,2.081-.205,4.161-.311,6.24-.059,1.142-.469,1.542-1.613,1.543q-2.558,0-5.115,0Z" transform="translate(0 -106.272)" fill="#e8e8e8"/><path d="M4571.069-1725.546c-1.706,0-3.411,0-5.117,0-.895,0-1.184-.233-1.236-1.126-.181-3.106-.483-6.215-.445-9.32a12.284,12.284,0,0,1,3.221-7.888,50.978,50.978,0,0,1,3.874-3.677,19.545,19.545,0,0,0,1.974-1.906c2.213-2.772,4.378-5.583,6.54-8.392a2.586,2.586,0,0,1,3.562-.806,2.676,2.676,0,0,1,.845,3.7c-1.2,2.024-2.438,4.025-3.664,6.035q-1.138,1.871-2.28,3.742c-.266.436-.526.907.026,1.28s.908-.049,1.2-.458a78.687,78.687,0,0,0,7.052-11.459,11.491,11.491,0,0,0,.926-3.914c.331-3.28.786-6.547,1.2-9.818a4.2,4.2,0,0,1,.227-.777c.463-1.387,1.351-2.039,2.47-1.82a2.519,2.519,0,0,1,2.078,2.783c-.485,4.52-1,9.036-1.5,13.554q-.255,2.3-.515,4.6a10.511,10.511,0,0,1-2.55,5.6q-5.335,6.388-10.642,12.8a1.686,1.686,0,0,0-.357.938c-.086,1.593-.13,3.19-.178,4.786-.035,1.18-.341,1.5-1.5,1.511-1.733.01-3.467,0-5.2,0Z" transform="translate(-214.563 -106.215)" fill="#e8e8e8"/><path d="M4416.872-1899.011h17.22a3.708,3.708,0,0,1,3.979,3.943q.012,9.178,0,18.357a3.729,3.729,0,0,1-3.974,3.97q-17.225.014-34.441,0a3.737,3.737,0,0,1-3.972-4.047q0-9.1,0-18.195a3.711,3.711,0,0,1,4.049-4.027Zm-13.666,3.241c-.023,2.85-1.431,4.256-4.272,4.285v11.084c2.763-.009,4.38,1.624,4.292,4.353h27.05a4.1,4.1,0,0,1,1.318-3.167,3.8,3.8,0,0,1,3.3-.846v-11.163a3.836,3.836,0,0,1-4.508-4.546Z" transform="translate(-73.374 0)" fill="#e8e8e8"/><path d="M4422.361-1722.345h18.2c1.49,0,2.271.56,2.254,1.613s-.793,1.587-2.294,1.587q-18.157,0-36.312,0c-.081,0-.163,0-.245,0-1.269-.029-2.016-.635-2-1.627s.763-1.571,2.046-1.572Q4413.182-1722.349,4422.361-1722.345Z" transform="translate(-78.627 -147.958)" fill="#e8e8e8"/><path d="M4435.055-1687.195q7.065,0,14.128.005a3.041,3.041,0,0,1,1.033.134,1.45,1.45,0,0,1,1,1.589,1.476,1.476,0,0,1-1.255,1.4,4.127,4.127,0,0,1-.888.046q-14.092,0-28.175,0c-.216,0-.436.013-.649-.007a1.619,1.619,0,0,1-1.493-1.549,1.649,1.649,0,0,1,1.444-1.6,6.061,6.061,0,0,1,.73-.014Z" transform="translate(-92.694 -177.394)" fill="#e8e8e8"/><path d="M4463.016-1652.021q4.465,0,8.928,0c1.214,0,1.941.588,1.958,1.568s-.744,1.629-1.99,1.63c-6,0-12.009.019-18.016-.028a2.356,2.356,0,0,1-1.6-.69,1.938,1.938,0,0,1-.161-1.559,1.433,1.433,0,0,1,1.552-.924Q4458.352-1652.014,4463.016-1652.021Z" transform="translate(-120.579 -206.853)" fill="#e8e8e8"/><path d="M4351.53-1748.882q-.636-4.87-1.254-9.625a1.9,1.9,0,0,1,1.486,1.645c.433,1.81.819,3.634,1.145,5.466C4353.207-1749.686,4353.161-1749.677,4351.53-1748.882Z" transform="translate(-35.346 -117.673)" fill="#e8e8e8"/><path d="M4687.667-1759.514c-.408,3.275-.814,6.5-1.225,9.766a13.611,13.611,0,0,1-1.351-.718.735.735,0,0,1-.178-.611c.41-2.2.824-4.4,1.283-6.584A2.234,2.234,0,0,1,4687.667-1759.514Z" transform="translate(-315.598 -116.83)" fill="#e8e8e8"/><path d="M4374.215-1737.541c-1.7-.348-1.663-.354-1.957-1.71-.337-1.549-.741-3.083-1.114-4.624l.168-.158c.355.322.887.579,1.037.979C4373.009-1741.3,4373.56-1739.513,4374.215-1737.541Z" transform="translate(-52.822 -129.795)" fill="#e8e8e8"/><path d="M4665.818-1743.554q-.517,2.061-1.032,4.121a5.116,5.116,0,0,0-.108.553c-.2,1.411-.2,1.411-1.914,1.59.621-1.859,1.171-3.64,1.831-5.378.158-.412.688-.682,1.046-1.018C4665.7-1743.641,4665.757-1743.6,4665.818-1743.554Z" transform="translate(-297.054 -130.087)" fill="#e8e8e8"/><path d="M4492.747-1859.3a8.081,8.081,0,0,1-8.024,8,8.055,8.055,0,0,1-8.036-8.138,8.042,8.042,0,0,1,8.021-7.9A8.008,8.008,0,0,1,4492.747-1859.3Zm-7.089,6c-.273-1.041.224-1.429,1.062-1.835a2.375,2.375,0,0,0,.251-3.957,13.628,13.628,0,0,0-1.624-.9c-.333-.18-.78-.284-.964-.562a2.016,2.016,0,0,1-.294-1.247.929.929,0,0,1,.715-.583c.312.014.829.311.865.549.161.987.832.847,1.51.879.72.032.83-.29.691-.891a2.3,2.3,0,0,0-1.477-1.7c-.515-.192-.755-.437-.668-.991.08-.484-.139-.673-.638-.662-.472.01-.809.067-.763.651a4.4,4.4,0,0,1-.037.619c-1.781.661-2.306,1.317-2.292,2.757a2.291,2.291,0,0,0,1.27,2.111,17.148,17.148,0,0,1,2.076,1.077,1.674,1.674,0,0,1,.44,1.243c0,.246-.478.7-.7.676-.394-.038-1.016-.309-1.083-.593-.225-.923-.828-.859-1.521-.879-.762-.022-.872.3-.7.946a2.7,2.7,0,0,0,1.893,1.938c.246.085.5.159.729.232.034.4.063.743.1,1.124Z" transform="translate(-141.214 -26.525)" fill="#e8e8e8"/><path d="M4440.358-1829.65a2.245,2.245,0,0,1,2.222-2.223,2.274,2.274,0,0,1,2.22,2.24,2.264,2.264,0,0,1-2.278,2.254A2.223,2.223,0,0,1,4440.358-1829.65Z" transform="translate(-110.789 -56.229)" fill="#e8e8e8"/><path d="M4588.943-1829.535a2.261,2.261,0,0,1-2.248,2.207,2.265,2.265,0,0,1-2.2-2.327,2.242,2.242,0,0,1,2.28-2.16A2.252,2.252,0,0,1,4588.943-1829.535Z" transform="translate(-231.502 -56.276)" fill="#e8e8e8"/></g></svg>