<svg xmlns="http://www.w3.org/2000/svg" width="21.154" height="22.113" viewBox="0 0 21.154 22.113">
  <g id="Grupo_6382" data-name="Grupo 6382" transform="translate(529.355 589.263)">
    <g id="Grupo_6382-2" data-name="Grupo 6382" transform="translate(-528.851 -588.743)">
      <path id="Trazado_2875" data-name="Trazado 2875" d="M-519.515-587.76c-.115-.084-.2-.141-.28-.206a.436.436,0,0,1-.107-.57.425.425,0,0,1,.551-.169.716.716,0,0,1,.13.067c.461.3.923.606,1.381.915a.437.437,0,0,1,.039.738c-.478.377-.965.744-1.454,1.107a.4.4,0,0,1-.589-.042.448.448,0,0,1,.028-.617c.1-.109.225-.2.376-.333a7.887,7.887,0,0,0-2.459.524,8.928,8.928,0,0,0-6,7.886,9.058,9.058,0,0,0,7.133,9.706,8.733,8.733,0,0,0,7.531-1.64,8.952,8.952,0,0,0,3.64-7.1,2.131,2.131,0,0,1,.01-.219.443.443,0,0,1,.487-.435.412.412,0,0,1,.394.489,14.974,14.974,0,0,1-.186,1.863,9.862,9.862,0,0,1-4.57,6.624,9.62,9.62,0,0,1-6.216,1.47,9.8,9.8,0,0,1-7.4-4.345,9.4,9.4,0,0,1-1.645-7.086,9.83,9.83,0,0,1,7.233-8.251,14.691,14.691,0,0,1,1.717-.337C-519.7-587.734-519.627-587.743-519.515-587.76Z" transform="translate(528.851 588.743)" fill="#575757" stroke="#575757" stroke-width="1"/>
      <path id="Trazado_2876" data-name="Trazado 2876" d="M-384.615-455.035h-7.291a1.462,1.462,0,0,1,.2-1,4.042,4.042,0,0,0,.617-2.026c.036-.4.019-.813.065-1.215a2.442,2.442,0,0,1,1.7-2.139c.061-.022.123-.04.185-.06l.2-.065c0-.158-.006-.312,0-.465a.657.657,0,0,1,.612-.641.641.641,0,0,1,.683.561.13.13,0,0,1,.006.048c-.1.435.15.571.513.712a2.438,2.438,0,0,1,1.591,2.443,6.463,6.463,0,0,0,.3,2.087c.123.338.345.64.474.977A4.319,4.319,0,0,1-384.615-455.035Z" transform="translate(398.591 468.793)" fill="#dd141d"/>
    </g>
    <g id="Grupo_6384" data-name="Grupo 6384" transform="translate(-519.45 -587.27)">
      <path id="Trazado_2877" data-name="Trazado 2877" d="M-334.33-298.363a.844.844,0,0,1-.56,1.068.885.885,0,0,1-1.123-.575c-.011-.039-.018-.079-.026-.118-.064-.34-.035-.375.311-.375Z" transform="translate(336.065 311.051)" fill="#dd141d"/>
      <g id="Grupo_6383" data-name="Grupo 6383" transform="translate(3.463 0)">
        <path id="Trazado_2878" data-name="Trazado 2878" d="M-142.17-420.419a.544.544,0,0,1-.545-.539.55.55,0,0,1,.545-.543.55.55,0,0,1,.545.542A.544.544,0,0,1-142.17-420.419Z" transform="translate(148.68 428.183)" fill="#dd141d"/>
        <path id="Trazado_2879" data-name="Trazado 2879" d="M-183.092-500.484a.542.542,0,0,1-.542-.541.544.544,0,0,1,.545-.539.549.549,0,0,1,.543.542A.548.548,0,0,1-183.092-500.484Z" transform="translate(187.604 504.343)" fill="#dd141d"/>
        <path id="Trazado_2880" data-name="Trazado 2880" d="M-263.963-558.01a.528.528,0,0,1-.531.546.533.533,0,0,1-.548-.531.539.539,0,0,1,.534-.548A.532.532,0,0,1-263.963-558.01Z" transform="translate(265.043 558.544)" fill="#dd141d"/>
        <path id="Trazado_2881" data-name="Trazado 2881" d="M-155.871-462.244a.538.538,0,0,1-.536.546.554.554,0,0,1-.547-.542.537.537,0,0,1,.541-.541A.526.526,0,0,1-155.871-462.244Z" transform="translate(162.224 467.45)" fill="#dd141d"/>
        <path id="Trazado_2882" data-name="Trazado 2882" d="M-219.934-534.378a.542.542,0,0,1-.539.545.553.553,0,0,1-.542-.545.539.539,0,0,1,.543-.54A.53.53,0,0,1-219.934-534.378Z" transform="translate(223.162 536.07)" fill="#dd141d"/>
      </g>
    </g>
  </g>
</svg>
