<svg xmlns="http://www.w3.org/2000/svg" width="31.502" height="38.184" viewBox="0 0 31.502 38.184"><defs><style>.a{fill:#575757;}</style></defs><g transform="translate(-4309 -2938)"><path class="a" d="M4147.578-2456.813c-1.392,0-2.784,0-4.177,0s-2.784,0-4.176,0a1.072,1.072,0,0,0-1.183,1.048,1.084,1.084,0,0,0,1.169,1.073q4.2.011,8.4,0a1.078,1.078,0,0,0,1.159-1.082A1.075,1.075,0,0,0,4147.578-2456.813Z" transform="translate(181.344 5409.974)"/><path class="a" d="M4051.983-2616.237a15.662,15.662,0,0,0-6.952-8.861,15.71,15.71,0,0,0-20.34,3.589,15.484,15.484,0,0,0-3.5,9.345,15.791,15.791,0,0,0,2.852,9.624,19.425,19.425,0,0,0,2.479,2.75q.219.214.438.428c2.3,2.269,4.62,4.6,6.861,6.857q1.167,1.175,2.335,2.348a2.548,2.548,0,0,1,.177.213c.047.06.1.127.162.2l.466.57.443-.588c.054-.072.1-.136.142-.2a1.7,1.7,0,0,1,.147-.192c3.091-3.1,6.218-6.228,9.136-9.147.165-.165.315-.306.457-.43a15.766,15.766,0,0,0,3.948-5.271A15.688,15.688,0,0,0,4051.983-2616.237Zm-10.941,20q-1.191,1.18-2.38,2.362c-.482.48-.95.958-1.446,1.464l-.281.287-1.51-1.517c-1.523-1.53-2.961-2.975-4.437-4.449-.5-.5-1.02-1-1.521-1.485-.9-.868-1.829-1.766-2.688-2.691a13.243,13.243,0,0,1-3.628-9.379,13.244,13.244,0,0,1,3.952-9.593,13.176,13.176,0,0,1,9.577-4.156,15.11,15.11,0,0,1,2.316.183,13.1,13.1,0,0,1,10.617,8.239,13.065,13.065,0,0,1-1.16,12.93,18.708,18.708,0,0,1-2.434,2.831C4044.376-2599.542,4042.681-2597.864,4041.042-2596.24Z" transform="translate(287.813 5565.354)"/><path class="a" d="M4147.7-2415.979c-1.421-.01-2.843,0-4.264,0h0c-1.407,0-2.813,0-4.22,0a1.074,1.074,0,0,0-1.184,1.047,1.079,1.079,0,0,0,1.17,1.067q4.2.013,8.4,0a1.42,1.42,0,0,0,.671-.178,1,1,0,0,0,.443-1.155A1,1,0,0,0,4147.7-2415.979Z" transform="translate(181.349 5372.772)"/><path class="a" d="M4139.27-2495.579q4.155,0,8.31,0a1.081,1.081,0,0,0,1.189-1.05,1.08,1.08,0,0,0-1.2-1.076c-1.392,0-2.785,0-4.177,0q-2.066,0-4.133,0a1.083,1.083,0,0,0-1.213,1.067A1.1,1.1,0,0,0,4139.27-2495.579Z" transform="translate(181.344 5447.23)"/></g></svg>