<svg xmlns="http://www.w3.org/2000/svg" width="55.289" height="55.265" viewBox="0 0 55.289 55.265"><defs><style>.a{opacity:0.6;}.b{fill:#f2f2f2;}</style></defs><g class="a" transform="translate(-82.429 -177.657)"><path class="b" d="M119.422,214.338a47.638,47.638,0,0,1-.9,5.086,17.589,17.589,0,0,1-9.093,11.241c-6.456,3.292-12.886,3.01-18.911-1.028a17.579,17.579,0,0,1-7.9-12.629,18.349,18.349,0,0,1,14.011-20.477,20.38,20.38,0,0,1,3.385-.434c.625-.04.854-.191.878-.857a17.737,17.737,0,0,1,6.416-13.223,17.24,17.24,0,0,1,10.724-4.335c7.662-.342,13.49,2.864,17.294,9.447a17.224,17.224,0,0,1,1.409,14.5c-2.211,6.661-6.893,10.706-13.653,12.406a11.625,11.625,0,0,1-1.893.293C120.584,214.377,119.967,214.338,119.422,214.338Zm-.337-32.127A13.811,13.811,0,0,0,105.225,196a13.825,13.825,0,0,0,27.651.056A13.777,13.777,0,0,0,119.084,182.211ZM94.811,219.238c.736.291,1.36.579,2.009.787a8.119,8.119,0,0,0,4.782.292,1.714,1.714,0,0,0,1.367-1.462,1.791,1.791,0,0,0-.931-1.845,10.5,10.5,0,0,0-1.532-.752,19.582,19.582,0,0,1-4.546-2.192,5.009,5.009,0,0,1-1.413-6.042,5.711,5.711,0,0,1,4.079-3.157c.543-.135.745-.357.7-.924-.055-.723-.013-1.453-.013-2.227h2.4l-.342-1.164c-.9.065-1.766.087-2.621.2a13.765,13.765,0,0,0-11.895,13.112,13.511,13.511,0,0,0,6.061,11.989,12.831,12.831,0,0,0,9.63,2.241,13.84,13.84,0,0,0,11.949-13.451.949.949,0,0,0-.774-1.11,13.25,13.25,0,0,1-5.77-3.158,7.072,7.072,0,0,0-3.565-1.989,16.968,16.968,0,0,0-3.916-.328,1.638,1.638,0,0,0-1.608,1.353,1.52,1.52,0,0,0,.958,1.65,15.9,15.9,0,0,0,1.584.807c1.125.5,2.3.893,3.385,1.473a5.225,5.225,0,0,1,2.681,6.6,5.687,5.687,0,0,1-4.216,3.747c-.977.279-.988.239-.988,1.275V227.1H99.177c0-.658,0-1.293,0-1.928,0-1.011,0-.982-.977-1.088a11.882,11.882,0,0,1-4.3-1.26Z" transform="translate(0 0)"/><path class="b" d="M305.768,244.488v-1.924c0-.995-.011-.94-.957-1.119-1.183-.223-2.359-.506-3.515-.844-.891-.26-.878-.321-.649-1.206.238-.92.477-1.839.687-2.644,1.367.374,2.638.821,3.947,1.044a8.072,8.072,0,0,0,2.646-.094,1.781,1.781,0,0,0,.571-3.4c-.784-.409-1.624-.71-2.419-1.1a21.412,21.412,0,0,1-3.561-1.842,4.964,4.964,0,0,1,.394-8.11,11.264,11.264,0,0,1,2.486-1.1c.423-.141.537-.3.526-.7-.021-.77-.006-1.541-.006-2.345h3.024c0,.7.018,1.4-.007,2.1-.015.422.11.555.56.633,1.184.206,2.349.522,3.52.8.383.09.5.276.366.694-.3.954-.529,1.928-.808,2.969-.222-.088-.4-.156-.582-.23a8.724,8.724,0,0,0-5.008-.686,1.7,1.7,0,0,0-1.543,1.346,1.53,1.53,0,0,0,1,1.7c.952.486,1.945.892,2.921,1.332.685.308,1.393.574,2.053.929A5.141,5.141,0,0,1,314.3,236a5.424,5.424,0,0,1-3.688,4.761,4.669,4.669,0,0,1-1.235.387c-.517.055-.566.328-.555.74.019.685-.006,1.372.009,2.057.008.354-.07.56-.487.549C307.526,244.473,306.705,244.488,305.768,244.488Z" transform="translate(-188.151 -35.759)"/></g></svg>