<svg xmlns="http://www.w3.org/2000/svg" width="86.075" height="72.742" viewBox="0 0 86.075 72.742"><g transform="translate(-4480.452 2983.825)"><path d="M4549.047-2612.328c.136-.164.168-.242.22-.265.776-.306.783-.921.735-1.623a31.612,31.612,0,0,0-5.971-16.549,31.613,31.613,0,0,0-11.336-9.775,32.223,32.223,0,0,0-6.89-2.572,33.316,33.316,0,0,0-8.562-.957,8.1,8.1,0,0,0-1.277.109.976.976,0,0,0-.534.292,8.621,8.621,0,0,0-2.095,4.425c-.239,1.546-.456,3.1-.7,4.643-.232,1.487.108,2.012,1.792,2.417,1.086.262,2.2.381,3.3.58a16.945,16.945,0,0,1,2.133.449,3.566,3.566,0,0,1,2.431,3.165,17.541,17.541,0,0,1,.158,3.455,12.084,12.084,0,0,0,1.3,5.5,15.3,15.3,0,0,0,4.983,6.223,3.094,3.094,0,0,1,.291.235,1.035,1.035,0,0,1,.108.216,3.2,3.2,0,0,1-.549.111c-1.677.006-3.349.021-5.023-.016a1.231,1.231,0,0,1-.8-.4,20.6,20.6,0,0,1-3.771-6.886,15.249,15.249,0,0,1-.795-6.088c.115-1.714.239-1.608-1.579-1.8a15.492,15.492,0,0,1-5.562-1.586,4.761,4.761,0,0,1-2.731-5.048c.188-2.051.508-4.094.84-6.128a16.991,16.991,0,0,1,.7-2.294c.041-.144.1-.283.2-.562-.479.127-.833.21-1.181.316a31.6,31.6,0,0,0-17.887,13.6,29.891,29.891,0,0,0-3.425,7.449c-.127.426.072.527.4.634,1.317.427,2.665.78,3.932,1.333a14.382,14.382,0,0,1,2.757,1.7,3.565,3.565,0,0,1,1.241,3.7c-.072.49-.14.986-.187,1.481a.571.571,0,0,1-.652.6c-1.051-.01-2.1-.016-3.154,0-.467.009-.592-.211-.537-.629.077-.564.113-1.135.222-1.691a.6.6,0,0,0-.411-.756c-1.136-.463-2.261-.962-3.421-1.351-1.3-.435-1.32-.389-1.429,1-.072.957-.149,1.916-.2,2.875-.019.385-.187.547-.562.545-1.067,0-2.135-.008-3.205,0-.484,0-.564-.282-.523-.664.23-2.03.425-4.063.713-6.086a28.7,28.7,0,0,1,1.916-6.651,35.771,35.771,0,0,1,10.849-14.7,35.541,35.541,0,0,1,11.746-6.285,35.746,35.746,0,0,1,17.933-1.022,35.684,35.684,0,0,1,14.892,6.622,36.4,36.4,0,0,1,11.5,14.658,34.786,34.786,0,0,1,2.654,9.746c.153,1.233.164,2.483.255,3.725.036.476-.125.676-.628.665-1.336-.023-2.672-.006-4.006-.011A5.615,5.615,0,0,1,4549.047-2612.328Z" transform="translate(3.488 -299.347)" fill="#e8e8e8" stroke="#e8e8e8" stroke-width="1"/><path d="M4749.149-2971.916a5.28,5.28,0,0,0-.947-.037l-.732.021c-1.639.048-3.328.1-5,.159-.369-.7-.752-1.406-1.123-2.088-.145-.264-.285-.527-.428-.791l-.752-1.389c-1.145-2.117-2.326-4.307-3.5-6.455a1.991,1.991,0,0,0-.631-.667c-.033-.026-.074-.058-.09-.072a1.125,1.125,0,0,0-1.5.017l-.158.144a1.131,1.131,0,0,0-.35.986.7.7,0,0,1,.012.091,2.977,2.977,0,0,0,.08.461c.3,1.063.578,2.039.852,2.983l.832,2.853q.6,2.063,1.2,4.127c-.707.006-1.418.01-2.107.012-1.916.01-3.9.019-5.852.078-.559.016-.645-.091-.809-.4a11.092,11.092,0,0,0-.916-1.4c-.145-.2-.293-.4-.441-.619a1.118,1.118,0,0,0-1.256-.436,1.12,1.12,0,0,0-.789,1.071v7.145a1.12,1.12,0,0,0,.779,1.068,1.123,1.123,0,0,0,1.256-.417l.166-.231c.1-.131.164-.229.234-.328l.393-.594c.293-.444.568-.865.869-1.265,2.826-.013,5.7,0,8.488.011q-.686,2.37-1.371,4.736-.618,2.133-1.234,4.266c-.1.345-.191.69-.277,1.025-.043.155-.084.311-.125.466a1.122,1.122,0,0,0,.721,1.354,1.9,1.9,0,0,0,.613.105,1.579,1.579,0,0,0,1.449-.993.491.491,0,0,1,.027-.056l.568-1.05c1.7-3.152,3.465-6.411,5.18-9.629a.306.306,0,0,1,.023-.041h.023c1.5.073,3.012.116,4.482.159l1.2.035a5.061,5.061,0,0,0,.951-.042,2.219,2.219,0,0,0,1.912-2.233A2.256,2.256,0,0,0,4749.149-2971.916Z" transform="translate(-213.463)" fill="#e8e8e8" stroke="#e8e8e8" stroke-width="0.5"/><path d="M4625.557-2846.18a1.821,1.821,0,0,1-.464.341c-1.264.422-2.539.812-3.8,1.228-.556.183-1.1.392-1.65.6a.438.438,0,0,1-.666-.286c-.4-1.027-.812-2.048-1.211-3.074-.156-.4.128-.555.428-.658q2.241-.768,4.491-1.518c.4-.135.814-.248,1.224-.36.267-.073.566-.132.67.219C4624.9-2848.561,4625.208-2847.428,4625.557-2846.18Z" transform="translate(-124.925 -115.753)" fill="#e8e8e8"/><path d="M5104.61-2777.729a2.965,2.965,0,0,1,.375.2c1.631,1.228,3.252,2.468,4.889,3.688.4.3.369.557.053.9-.666.737-1.326,1.484-1.951,2.256-.307.38-.551.334-.887.067q-1.436-1.144-2.9-2.26c-.51-.386-1.043-.741-1.57-1.1-.254-.171-.395-.351-.193-.656.617-.934,1.223-1.874,1.844-2.8A1.591,1.591,0,0,1,5104.61-2777.729Z" transform="translate(-543.644 -180.266)" fill="#e8e8e8"/><path d="M4992.218-2832.935c.365-1.056.678-2,1.014-2.932.32-.886.348-.91,1.211-.55,1.719.718,3.43,1.46,5.141,2.207.611.269.641.382.35.968-.436.876-.9,1.733-1.316,2.619-.211.454-.451.486-.875.294-1.455-.66-2.922-1.291-4.387-1.929a8.5,8.5,0,0,1-.793-.31A1.446,1.446,0,0,1,4992.218-2832.935Z" transform="translate(-445.298 -127.656)" fill="#e8e8e8"/><path d="M4510.383-2797.156a2.252,2.252,0,0,0-.458.165q-2.465,1.541-4.918,3.1a.454.454,0,0,1-.72-.125q-.94-1.326-1.9-2.643c-.192-.265-.21-.467.1-.659q2.64-1.664,5.271-3.335c.262-.167.523-.255.718.1q.809,1.472,1.62,2.942c.039.077.063.164.1.246Z" transform="translate(-21.798 -159.662)" fill="#e8e8e8"/></g></svg>