<svg xmlns="http://www.w3.org/2000/svg" width="76.514" height="70.743" viewBox="0 0 76.514 70.743"><defs><style>.a{fill:#e8e8e8;}</style></defs><path class="a" d="M5308.131-1923.3a16.085,16.085,0,0,1,11.086-15.979,15.878,15.878,0,0,1,17.322,5.442,15.835,15.835,0,0,1,.668,18.413q3.19,3.964,6.4,7.961c2.561,3.176,5.111,6.359,7.693,9.519a2.78,2.78,0,0,1,.648,1.887c-.02,8.133-.01,16.267-.014,24.4,0,1.892-.5,2.4-2.406,2.4h-71.666c-1.9,0-2.418-.508-2.418-2.388q-.006-11.975-.01-23.949a3.21,3.21,0,0,1,.732-2.145c6.434-8.032,12.879-16.057,19.244-24.145a3.344,3.344,0,0,1,3.027-1.435C5301.646-1923.259,5304.855-1923.3,5308.131-1923.3Zm-3.562,48.784h11.4v.741c0-7.053-.01-12.742.014-19.794a2.74,2.74,0,0,0-.641-1.873q-6.894-8.495-13.732-17.027c-1.387-1.721-2.775-3.713-4.205-5.485-.219.255-.381.425-.527.608-5.936,7.392-10.963,13.691-16.881,21.1a1.963,1.963,0,0,0-.377,1.133c-.018,7.233-.014,12.591-.014,19.825,0,.258.037.516.059.792h7.063v-16.342c0-1.859.475-2.319,2.359-2.319q6.574,0,13.146,0c1.846,0,2.332.495,2.332,2.367v16.276Zm43.279.08v-20.347h-27.133v20.347Zm-36.426-49.963a12.612,12.612,0,0,0,12.539,12.835,12.684,12.684,0,0,0,12.652-12.574,12.664,12.664,0,0,0-12.59-12.632A12.518,12.518,0,0,0,5311.422-1924.4Z" transform="translate(-5275.438 1940.008)"/></svg>